<ttFont>
    <TTGlyph name="A" xMin="103" yMin="42" xMax="1171" yMax="1409">
      <contour>
        <pt x="431" y="601" on="1"/>
        <pt x="431" y="588" on="1"/>
        <pt x="431" y="565" on="0"/>
        <pt x="498" y="565" on="1"/>
        <pt x="576" y="565" on="1"/>
        <pt x="585" y="566" on="1"/>
        <pt x="671" y="565" on="1"/>
        <pt x="731" y="565" on="1"/>
        <pt x="827" y="565" on="0"/>
        <pt x="827" y="604" on="1"/>
        <pt x="826" y="611" on="1"/>
        <pt x="826" y="619" on="1"/>
        <pt x="826" y="640" on="0"/>
        <pt x="750" y="926" on="1"/>
        <pt x="666" y="1201" on="0"/>
        <pt x="651" y="1212" on="1"/>
        <pt x="649" y="1212" on="0"/>
        <pt x="595" y="1104" on="0"/>
        <pt x="431" y="611" on="0"/>
      </contour>
      <contour>
        <pt x="1171" y="110" on="1"/>
        <pt x="1171" y="92" on="1"/>
        <pt x="1171" y="48" on="0"/>
        <pt x="1071" y="48" on="0"/>
        <pt x="1003" y="134" on="0"/>
        <pt x="884" y="377" on="0"/>
        <pt x="865" y="391" on="1"/>
        <pt x="809" y="432" on="0"/>
        <pt x="434" y="432" on="0"/>
        <pt x="332" y="334" on="0"/>
        <pt x="278" y="188" on="1"/>
        <pt x="225" y="42" on="0"/>
        <pt x="158" y="42" on="1"/>
        <pt x="103" y="42" on="0"/>
        <pt x="103" y="92" on="1"/>
        <pt x="103" y="129" on="0"/>
        <pt x="177" y="361" on="1"/>
        <pt x="427" y="1143" on="0"/>
        <pt x="443" y="1182" on="1"/>
        <pt x="497" y="1310" on="0"/>
        <pt x="575" y="1409" on="0"/>
        <pt x="643" y="1409" on="1"/>
        <pt x="712" y="1409" on="0"/>
        <pt x="770" y="1325" on="1"/>
        <pt x="828" y="1240" on="0"/>
        <pt x="1016" y="760" on="0"/>
        <pt x="1171" y="113" on="0"/>
      </contour>
    </TTGlyph>
    <TTGlyph name="AE" xMin="123" yMin="25" xMax="1561" yMax="1396">
      <contour>
        <pt x="814" y="1176" on="1"/>
        <pt x="814" y="1244" on="0"/>
        <pt x="800" y="1244" on="1"/>
        <pt x="795" y="1244" on="1"/>
        <pt x="742" y="1244" on="0"/>
        <pt x="651" y="1073" on="1"/>
        <pt x="594" y="966" on="0"/>
        <pt x="559" y="816" on="0"/>
        <pt x="453" y="617" on="0"/>
        <pt x="453" y="605" on="1"/>
        <pt x="453" y="594" on="1"/>
        <pt x="453" y="584" on="0"/>
        <pt x="503" y="584" on="1"/>
        <pt x="546" y="586" on="1"/>
        <pt x="555" y="584" on="1"/>
        <pt x="590" y="580" on="1"/>
        <pt x="658" y="572" on="0"/>
        <pt x="675" y="572" on="1"/>
        <pt x="692" y="570" on="1"/>
        <pt x="721" y="572" on="1"/>
        <pt x="776" y="572" on="0"/>
        <pt x="808" y="608" on="0"/>
        <pt x="808" y="674" on="1"/>
        <pt x="804" y="782" on="1"/>
        <pt x="806" y="824" on="1"/>
        <pt x="806" y="834" on="0"/>
        <pt x="806" y="844" on="1"/>
        <pt x="807" y="865" on="1"/>
        <pt x="807" y="886" on="1"/>
        <pt x="810" y="947" on="1"/>
        <pt x="810" y="968" on="1"/>
        <pt x="813" y="1049" on="1"/>
        <pt x="813" y="1098" on="1"/>
        <pt x="814" y="1125" on="1"/>
      </contour>
      <contour>
        <pt x="1363" y="1396" on="1"/>
        <pt x="1489" y="1396" on="0"/>
        <pt x="1523" y="1364" on="1"/>
        <pt x="1540" y="1348" on="0"/>
        <pt x="1540" y="1332" on="1"/>
        <pt x="1540" y="1275" on="0"/>
        <pt x="1274" y="1268" on="1"/>
        <pt x="1119" y="1264" on="0"/>
        <pt x="1091" y="1248" on="1"/>
        <pt x="1026" y="1211" on="0"/>
        <pt x="1026" y="983" on="1"/>
        <pt x="1026" y="864" on="0"/>
        <pt x="1131" y="813" on="0"/>
        <pt x="1415" y="806" on="0"/>
        <pt x="1482" y="782" on="0"/>
        <pt x="1482" y="679" on="0"/>
        <pt x="1428" y="666" on="1"/>
        <pt x="1415" y="663" on="0"/>
        <pt x="1357" y="658" on="1"/>
        <pt x="1243" y="649" on="1"/>
        <pt x="1130" y="637" on="0"/>
        <pt x="1025" y="562" on="0"/>
        <pt x="1025" y="236" on="0"/>
        <pt x="1094" y="190" on="1"/>
        <pt x="1131" y="166" on="0"/>
        <pt x="1445" y="158" on="0"/>
        <pt x="1485" y="148" on="1"/>
        <pt x="1561" y="130" on="0"/>
        <pt x="1561" y="88" on="1"/>
        <pt x="1561" y="56" on="0"/>
        <pt x="1481" y="25" on="0"/>
        <pt x="1370" y="25" on="1"/>
        <pt x="950" y="25" on="0"/>
        <pt x="881" y="148" on="1"/>
        <pt x="870" y="168" on="0"/>
        <pt x="836" y="363" on="0"/>
        <pt x="766" y="423" on="0"/>
        <pt x="670" y="423" on="1"/>
        <pt x="492" y="423" on="0"/>
        <pt x="419" y="380" on="1"/>
        <pt x="381" y="358" on="0"/>
        <pt x="257" y="120" on="0"/>
        <pt x="205" y="61" on="0"/>
        <pt x="123" y="61" on="0"/>
        <pt x="123" y="105" on="1"/>
        <pt x="123" y="175" on="0"/>
        <pt x="415" y="863" on="1"/>
        <pt x="543" y="1163" on="0"/>
        <pt x="626" y="1272" on="1"/>
        <pt x="679" y="1341" on="0"/>
        <pt x="807" y="1370" on="1"/>
        <pt x="887" y="1388" on="0"/>
        <pt x="1080" y="1388" on="1"/>
        <pt x="1322" y="1396" on="1"/>
      </contour>
    </TTGlyph>
    <TTGlyph name="Aacute" xMin="92" yMin="45" xMax="1143" yMax="1829">
      <contour>
        <pt x="439" y="591" on="1"/>
        <pt x="475" y="591" on="1"/>
        <pt x="484" y="592" on="1"/>
        <pt x="608" y="594" on="1"/>
        <pt x="823" y="594" on="0"/>
        <pt x="823" y="621" on="1"/>
        <pt x="823" y="628" on="1"/>
        <pt x="823" y="663" on="0"/>
        <pt x="784" y="801" on="0"/>
        <pt x="779" y="824" on="1"/>
        <pt x="740" y="1000" on="0"/>
        <pt x="623" y="1234" on="0"/>
        <pt x="617" y="1234" on="1"/>
        <pt x="612" y="1234" on="1"/>
        <pt x="607" y="1234" on="0"/>
        <pt x="483" y="985" on="0"/>
        <pt x="385" y="632" on="0"/>
        <pt x="385" y="617" on="1"/>
        <pt x="385" y="591" on="0"/>
      </contour>
      <contour>
        <pt x="536" y="1511" on="1"/>
        <pt x="510" y="1511" on="1"/>
        <pt x="481" y="1511" on="0"/>
        <pt x="481" y="1535" on="1"/>
        <pt x="481" y="1545" on="1"/>
        <pt x="481" y="1568" on="0"/>
        <pt x="574" y="1707" on="0"/>
        <pt x="713" y="1829" on="0"/>
        <pt x="776" y="1829" on="1"/>
        <pt x="790" y="1829" on="1"/>
        <pt x="848" y="1829" on="0"/>
        <pt x="848" y="1792" on="1"/>
        <pt x="848" y="1783" on="1"/>
        <pt x="848" y="1727" on="0"/>
        <pt x="571" y="1511" on="0"/>
      </contour>
      <contour>
        <pt x="1143" y="105" on="1"/>
        <pt x="1143" y="45" on="0"/>
        <pt x="1024" y="45" on="0"/>
        <pt x="992" y="99" on="1"/>
        <pt x="972" y="133" on="0"/>
        <pt x="883" y="372" on="0"/>
        <pt x="821" y="426" on="0"/>
        <pt x="688" y="426" on="1"/>
        <pt x="664" y="425" on="1"/>
        <pt x="640" y="424" on="0"/>
        <pt x="616" y="424" on="1"/>
        <pt x="567" y="422" on="1"/>
        <pt x="542" y="421" on="0"/>
        <pt x="518" y="421" on="1"/>
        <pt x="388" y="421" on="0"/>
        <pt x="350" y="382" on="1"/>
        <pt x="326" y="357" on="0"/>
        <pt x="247" y="135" on="0"/>
        <pt x="231" y="107" on="1"/>
        <pt x="201" y="53" on="0"/>
        <pt x="92" y="53" on="0"/>
        <pt x="92" y="90" on="1"/>
        <pt x="92" y="107" on="1"/>
        <pt x="92" y="139" on="0"/>
        <pt x="359" y="1062" on="0"/>
        <pt x="459" y="1313" on="0"/>
        <pt x="511" y="1372" on="1"/>
        <pt x="543" y="1409" on="0"/>
        <pt x="689" y="1409" on="0"/>
        <pt x="778" y="1297" on="0"/>
        <pt x="918" y="945" on="0"/>
        <pt x="1143" y="150" on="0"/>
      </contour>
    </TTGlyph>
    <TTGlyph name="Acircumflex" xMin="89" yMin="30" xMax="1150" yMax="1834">
      <contour>
        <pt x="464" y="578" on="1"/>
        <pt x="545" y="578" on="1"/>
        <pt x="554" y="579" on="1"/>
        <pt x="610" y="579" on="1"/>
        <pt x="820" y="579" on="0"/>
        <pt x="820" y="608" on="1"/>
        <pt x="820" y="615" on="1"/>
        <pt x="820" y="621" on="0"/>
        <pt x="812" y="655" on="1"/>
        <pt x="806" y="681" on="1"/>
        <pt x="802" y="695" on="0"/>
        <pt x="795" y="726" on="0"/>
        <pt x="780" y="780" on="0"/>
        <pt x="776" y="797" on="1"/>
        <pt x="733" y="978" on="0"/>
        <pt x="614" y="1217" on="0"/>
        <pt x="611" y="1217" on="1"/>
        <pt x="606" y="1217" on="1"/>
        <pt x="596" y="1217" on="0"/>
        <pt x="459" y="904" on="0"/>
        <pt x="424" y="746" on="1"/>
        <pt x="416" y="710" on="0"/>
        <pt x="392" y="624" on="0"/>
        <pt x="392" y="608" on="1"/>
        <pt x="392" y="578" on="0"/>
      </contour>
      <contour>
        <pt x="398" y="1525" on="1"/>
        <pt x="383" y="1525" on="1"/>
        <pt x="324" y="1525" on="0"/>
        <pt x="324" y="1555" on="1"/>
        <pt x="324" y="1561" on="1"/>
        <pt x="324" y="1618" on="0"/>
        <pt x="502" y="1781" on="1"/>
        <pt x="560" y="1834" on="0"/>
        <pt x="616" y="1834" on="1"/>
        <pt x="624" y="1834" on="1"/>
        <pt x="674" y="1834" on="0"/>
        <pt x="712" y="1799" on="1"/>
        <pt x="900" y="1627" on="0"/>
        <pt x="900" y="1559" on="1"/>
        <pt x="900" y="1531" on="0"/>
        <pt x="789" y="1531" on="0"/>
        <pt x="721" y="1599" on="1"/>
        <pt x="692" y="1628" on="0"/>
        <pt x="619" y="1708" on="0"/>
        <pt x="609" y="1708" on="0"/>
        <pt x="440" y="1525" on="0"/>
      </contour>
      <contour>
        <pt x="1150" y="150" on="0"/>
        <pt x="1150" y="30" on="0"/>
        <pt x="1088" y="30" on="1"/>
        <pt x="1037" y="30" on="0"/>
        <pt x="1006" y="70" on="1"/>
        <pt x="991" y="90" on="0"/>
        <pt x="884" y="366" on="0"/>
        <pt x="822" y="420" on="0"/>
        <pt x="410" y="420" on="0"/>
        <pt x="330" y="366" on="0"/>
        <pt x="239" y="107" on="0"/>
        <pt x="191" y="38" on="0"/>
        <pt x="89" y="38" on="0"/>
        <pt x="89" y="76" on="1"/>
        <pt x="89" y="94" on="1"/>
        <pt x="89" y="141" on="0"/>
        <pt x="159" y="366" on="0"/>
        <pt x="195" y="490" on="0"/>
        <pt x="224" y="586" on="0"/>
        <pt x="241" y="646" on="0"/>
        <pt x="390" y="1137" on="0"/>
        <pt x="457" y="1311" on="0"/>
        <pt x="512" y="1373" on="1"/>
        <pt x="544" y="1410" on="0"/>
        <pt x="690" y="1410" on="0"/>
        <pt x="779" y="1298" on="0"/>
        <pt x="870" y="1069" on="0"/>
        <pt x="1089" y="350" on="1"/>
      </contour>
    </TTGlyph>
    <TTGlyph name="Adieresis" xMin="63" yMin="36" xMax="1131" yMax="1783">
      <contour>
        <pt x="747" y="577" on="1"/>
        <pt x="797" y="577" on="0"/>
        <pt x="797" y="609" on="1"/>
        <pt x="797" y="616" on="0"/>
        <pt x="690" y="1024" on="0"/>
        <pt x="588" y="1227" on="0"/>
        <pt x="584" y="1227" on="1"/>
        <pt x="575" y="1227" on="0"/>
        <pt x="460" y="963" on="0"/>
        <pt x="370" y="623" on="0"/>
        <pt x="370" y="609" on="1"/>
        <pt x="370" y="602" on="1"/>
        <pt x="370" y="577" on="0"/>
        <pt x="446" y="577" on="1"/>
        <pt x="473" y="577" on="1"/>
        <pt x="482" y="578" on="1"/>
        <pt x="658" y="577" on="1"/>
      </contour>
      <contour>
        <pt x="372" y="1584" on="1"/>
        <pt x="327" y="1584" on="0"/>
        <pt x="327" y="1638" on="1"/>
        <pt x="326" y="1641" on="1"/>
        <pt x="325" y="1645" on="1"/>
        <pt x="322" y="1673" on="1"/>
        <pt x="322" y="1691" on="1"/>
        <pt x="323" y="1695" on="1"/>
        <pt x="326" y="1719" on="1"/>
        <pt x="327" y="1722" on="0"/>
        <pt x="327" y="1726" on="1"/>
        <pt x="327" y="1783" on="0"/>
        <pt x="402" y="1783" on="1"/>
        <pt x="440" y="1783" on="1"/>
        <pt x="509" y="1783" on="0"/>
        <pt x="509" y="1731" on="1"/>
        <pt x="512" y="1722" on="0"/>
        <pt x="512" y="1718" on="1"/>
        <pt x="514" y="1711" on="1"/>
        <pt x="514" y="1704" on="1"/>
        <pt x="516" y="1686" on="1"/>
        <pt x="516" y="1675" on="1"/>
        <pt x="515" y="1672" on="1"/>
        <pt x="515" y="1668" on="0"/>
        <pt x="515" y="1664" on="1"/>
        <pt x="510" y="1634" on="1"/>
        <pt x="510" y="1586" on="0"/>
        <pt x="464" y="1586" on="1"/>
        <pt x="452" y="1582" on="0"/>
        <pt x="449" y="1582" on="1"/>
        <pt x="425" y="1579" on="1"/>
        <pt x="404" y="1579" on="1"/>
        <pt x="401" y="1580" on="1"/>
        <pt x="379" y="1583" on="1"/>
        <pt x="375" y="1584" on="0"/>
      </contour>
      <contour>
        <pt x="738" y="1566" on="1"/>
        <pt x="699" y="1566" on="0"/>
        <pt x="699" y="1616" on="1"/>
        <pt x="697" y="1622" on="0"/>
        <pt x="697" y="1626" on="1"/>
        <pt x="696" y="1630" on="1"/>
        <pt x="695" y="1633" on="1"/>
        <pt x="692" y="1666" on="1"/>
        <pt x="692" y="1674" on="1"/>
        <pt x="692" y="1768" on="0"/>
        <pt x="755" y="1768" on="1"/>
        <pt x="761" y="1770" on="0"/>
        <pt x="765" y="1770" on="1"/>
        <pt x="781" y="1772" on="1"/>
        <pt x="805" y="1772" on="1"/>
        <pt x="878" y="1772" on="0"/>
        <pt x="878" y="1689" on="1"/>
        <pt x="878" y="1651" on="1"/>
        <pt x="872" y="1616" on="1"/>
        <pt x="872" y="1565" on="0"/>
        <pt x="820" y="1565" on="1"/>
        <pt x="814" y="1563" on="0"/>
        <pt x="811" y="1563" on="1"/>
        <pt x="801" y="1561" on="1"/>
        <pt x="765" y="1561" on="1"/>
        <pt x="762" y="1562" on="1"/>
        <pt x="756" y="1562" on="1"/>
        <pt x="744" y="1566" on="0"/>
      </contour>
      <contour>
        <pt x="1131" y="153" on="0"/>
        <pt x="1131" y="36" on="0"/>
        <pt x="1088" y="36" on="1"/>
        <pt x="1070" y="36" on="1"/>
        <pt x="1020" y="36" on="0"/>
        <pt x="967" y="106" on="0"/>
        <pt x="868" y="379" on="0"/>
        <pt x="809" y="427" on="0"/>
        <pt x="382" y="427" on="0"/>
        <pt x="304" y="377" on="0"/>
        <pt x="213" y="116" on="0"/>
        <pt x="165" y="50" on="0"/>
        <pt x="103" y="50" on="1"/>
        <pt x="63" y="50" on="0"/>
        <pt x="63" y="86" on="1"/>
        <pt x="63" y="146" on="0"/>
        <pt x="131" y="365" on="1"/>
        <pt x="157" y="455" on="1"/>
        <pt x="161" y="469" on="0"/>
        <pt x="171" y="501" on="1"/>
        <pt x="185" y="546" on="1"/>
        <pt x="203" y="605" on="0"/>
        <pt x="212" y="637" on="1"/>
        <pt x="226" y="683" on="1"/>
        <pt x="232" y="706" on="1"/>
        <pt x="247" y="752" on="1"/>
        <pt x="356" y="1112" on="0"/>
        <pt x="435" y="1308" on="0"/>
        <pt x="491" y="1376" on="1"/>
        <pt x="522" y="1414" on="0"/>
        <pt x="673" y="1414" on="0"/>
        <pt x="710" y="1366" on="1"/>
        <pt x="767" y="1292" on="0"/>
        <pt x="864" y="1045" on="0"/>
        <pt x="1028" y="496" on="0"/>
        <pt x="1058" y="388" on="0"/>
      </contour>
    </TTGlyph>
    <TTGlyph name="Agrave" xMin="88" yMin="33" xMax="1149" yMax="1857">
      <contour>
        <pt x="388" y="606" on="1"/>
        <pt x="388" y="592" on="1"/>
        <pt x="388" y="565" on="0"/>
        <pt x="515" y="565" on="1"/>
        <pt x="720" y="565" on="1"/>
        <pt x="819" y="565" on="0"/>
        <pt x="819" y="591" on="1"/>
        <pt x="819" y="604" on="1"/>
        <pt x="819" y="621" on="0"/>
        <pt x="725" y="958" on="0"/>
        <pt x="615" y="1210" on="0"/>
        <pt x="607" y="1210" on="1"/>
        <pt x="602" y="1210" on="1"/>
        <pt x="593" y="1210" on="0"/>
        <pt x="472" y="933" on="0"/>
        <pt x="388" y="615" on="0"/>
      </contour>
      <contour>
        <pt x="369" y="1803" on="1"/>
        <pt x="369" y="1818" on="1"/>
        <pt x="369" y="1857" on="0"/>
        <pt x="432" y="1857" on="1"/>
        <pt x="453" y="1857" on="1"/>
        <pt x="539" y="1857" on="0"/>
        <pt x="601" y="1774" on="1"/>
        <pt x="640" y="1726" on="1"/>
        <pt x="643" y="1721" on="1"/>
        <pt x="664" y="1697" on="1"/>
        <pt x="676" y="1685" on="1"/>
        <pt x="683" y="1677" on="1"/>
        <pt x="715" y="1640" on="1"/>
        <pt x="740" y="1611" on="0"/>
        <pt x="740" y="1579" on="1"/>
        <pt x="740" y="1570" on="1"/>
        <pt x="740" y="1542" on="0"/>
        <pt x="701" y="1542" on="1"/>
        <pt x="681" y="1542" on="1"/>
        <pt x="663" y="1545" on="0"/>
        <pt x="655" y="1545" on="1"/>
        <pt x="617" y="1545" on="0"/>
        <pt x="369" y="1762" on="0"/>
      </contour>
      <contour>
        <pt x="197" y="41" on="0"/>
        <pt x="88" y="41" on="0"/>
        <pt x="88" y="79" on="1"/>
        <pt x="88" y="96" on="1"/>
        <pt x="88" y="127" on="0"/>
        <pt x="357" y="1059" on="0"/>
        <pt x="464" y="1326" on="0"/>
        <pt x="545" y="1412" on="0"/>
        <pt x="683" y="1412" on="0"/>
        <pt x="714" y="1380" on="1"/>
        <pt x="832" y="1258" on="0"/>
        <pt x="1034" y="542" on="1"/>
        <pt x="1148" y="137" on="0"/>
        <pt x="1149" y="84" on="1"/>
        <pt x="1149" y="33" on="0"/>
        <pt x="1105" y="33" on="1"/>
        <pt x="1087" y="33" on="1"/>
        <pt x="1035" y="33" on="0"/>
        <pt x="985" y="101" on="0"/>
        <pt x="884" y="369" on="0"/>
        <pt x="859" y="390" on="1"/>
        <pt x="818" y="423" on="0"/>
        <pt x="664" y="423" on="1"/>
        <pt x="517" y="419" on="1"/>
        <pt x="387" y="419" on="0"/>
        <pt x="348" y="379" on="1"/>
        <pt x="325" y="355" on="0"/>
        <pt x="245" y="127" on="0"/>
        <pt x="228" y="96" on="1"/>
      </contour>
    </TTGlyph>
    <TTGlyph name="Aring" xMin="59" yMin="52" xMax="1136" yMax="1932">
      <contour>
        <pt x="499" y="1732" on="1"/>
        <pt x="501" y="1704" on="1"/>
        <pt x="501" y="1690" on="0"/>
        <pt x="557" y="1633" on="0"/>
        <pt x="593" y="1633" on="1"/>
        <pt x="618" y="1633" on="1"/>
        <pt x="650" y="1633" on="0"/>
        <pt x="705" y="1688" on="0"/>
        <pt x="705" y="1717" on="1"/>
        <pt x="707" y="1723" on="0"/>
        <pt x="707" y="1732" on="1"/>
        <pt x="707" y="1754" on="1"/>
        <pt x="704" y="1775" on="1"/>
        <pt x="704" y="1798" on="0"/>
        <pt x="654" y="1848" on="0"/>
        <pt x="634" y="1848" on="1"/>
        <pt x="617" y="1852" on="1"/>
        <pt x="588" y="1852" on="1"/>
        <pt x="562" y="1852" on="0"/>
        <pt x="502" y="1804" on="0"/>
        <pt x="502" y="1775" on="1"/>
        <pt x="500" y="1769" on="0"/>
        <pt x="500" y="1765" on="1"/>
        <pt x="498" y="1750" on="1"/>
        <pt x="498" y="1735" on="1"/>
      </contour>
      <contour>
        <pt x="515" y="589" on="1"/>
        <pt x="677" y="589" on="1"/>
        <pt x="814" y="589" on="0"/>
        <pt x="814" y="625" on="1"/>
        <pt x="814" y="633" on="1"/>
        <pt x="814" y="743" on="0"/>
        <pt x="627" y="1251" on="0"/>
        <pt x="565" y="1251" on="0"/>
        <pt x="369" y="747" on="0"/>
        <pt x="369" y="626" on="1"/>
        <pt x="369" y="589" on="0"/>
      </contour>
      <contour>
        <pt x="584" y="1932" on="1"/>
        <pt x="624" y="1932" on="1"/>
        <pt x="636" y="1930" on="0"/>
        <pt x="643" y="1930" on="1"/>
        <pt x="699" y="1930" on="0"/>
        <pt x="803" y="1826" on="0"/>
        <pt x="803" y="1762" on="1"/>
        <pt x="803" y="1723" on="1"/>
        <pt x="803" y="1661" on="0"/>
        <pt x="695" y="1553" on="0"/>
        <pt x="616" y="1553" on="1"/>
        <pt x="589" y="1553" on="1"/>
        <pt x="516" y="1553" on="0"/>
        <pt x="403" y="1653" on="0"/>
        <pt x="403" y="1723" on="1"/>
        <pt x="403" y="1762" on="1"/>
        <pt x="403" y="1831" on="0"/>
        <pt x="517" y="1932" on="0"/>
      </contour>
      <contour>
        <pt x="1136" y="124" on="1"/>
        <pt x="1136" y="105" on="1"/>
        <pt x="1136" y="52" on="0"/>
        <pt x="1021" y="52" on="0"/>
        <pt x="990" y="101" on="1"/>
        <pt x="982" y="114" on="0"/>
        <pt x="877" y="401" on="0"/>
        <pt x="846" y="425" on="1"/>
        <pt x="799" y="461" on="0"/>
        <pt x="384" y="461" on="0"/>
        <pt x="309" y="407" on="0"/>
        <pt x="211" y="133" on="0"/>
        <pt x="194" y="108" on="1"/>
        <pt x="164" y="64" on="0"/>
        <pt x="99" y="64" on="1"/>
        <pt x="59" y="64" on="0"/>
        <pt x="59" y="98" on="1"/>
        <pt x="59" y="115" on="1"/>
        <pt x="59" y="146" on="0"/>
        <pt x="188" y="612" on="1"/>
        <pt x="318" y="1080" on="0"/>
        <pt x="362" y="1190" on="1"/>
        <pt x="463" y="1440" on="0"/>
        <pt x="575" y="1440" on="1"/>
        <pt x="600" y="1440" on="1"/>
        <pt x="671" y="1440" on="0"/>
        <pt x="705" y="1404" on="1"/>
        <pt x="780" y="1324" on="0"/>
        <pt x="900" y="1032" on="0"/>
        <pt x="1136" y="162" on="0"/>
      </contour>
    </TTGlyph>
    <TTGlyph name="Atilde" xMin="95" yMin="42" xMax="1150" yMax="1770">
      <contour>
        <pt x="777" y="586" on="1"/>
        <pt x="830" y="586" on="0"/>
        <pt x="830" y="610" on="1"/>
        <pt x="830" y="617" on="1"/>
        <pt x="830" y="753" on="0"/>
        <pt x="653" y="1158" on="1"/>
        <pt x="621" y="1231" on="0"/>
        <pt x="612" y="1231" on="1"/>
        <pt x="585" y="1231" on="0"/>
        <pt x="393" y="737" on="0"/>
        <pt x="393" y="619" on="1"/>
        <pt x="393" y="588" on="0"/>
        <pt x="620" y="588" on="1"/>
        <pt x="705" y="586" on="1"/>
      </contour>
      <contour>
        <pt x="929" y="1714" on="1"/>
        <pt x="929" y="1699" on="1"/>
        <pt x="929" y="1655" on="0"/>
        <pt x="829" y="1555" on="0"/>
        <pt x="767" y="1555" on="1"/>
        <pt x="751" y="1555" on="1"/>
        <pt x="743" y="1556" on="1"/>
        <pt x="696" y="1556" on="0"/>
        <pt x="531" y="1644" on="0"/>
        <pt x="462" y="1644" on="0"/>
        <pt x="363" y="1562" on="0"/>
        <pt x="345" y="1562" on="1"/>
        <pt x="306" y="1562" on="0"/>
        <pt x="306" y="1604" on="1"/>
        <pt x="306" y="1619" on="1"/>
        <pt x="306" y="1671" on="0"/>
        <pt x="414" y="1770" on="0"/>
        <pt x="470" y="1770" on="1"/>
        <pt x="502" y="1770" on="1"/>
        <pt x="542" y="1770" on="0"/>
        <pt x="728" y="1677" on="0"/>
        <pt x="786" y="1677" on="0"/>
        <pt x="872" y="1755" on="0"/>
        <pt x="929" y="1755" on="0"/>
      </contour>
      <contour>
        <pt x="1150" y="155" on="0"/>
        <pt x="1150" y="42" on="0"/>
        <pt x="1106" y="42" on="1"/>
        <pt x="1039" y="42" on="0"/>
        <pt x="983" y="115" on="0"/>
        <pt x="894" y="378" on="0"/>
        <pt x="830" y="429" on="0"/>
        <pt x="669" y="429" on="1"/>
        <pt x="645" y="428" on="1"/>
        <pt x="621" y="427" on="0"/>
        <pt x="596" y="427" on="1"/>
        <pt x="394" y="427" on="0"/>
        <pt x="352" y="386" on="1"/>
        <pt x="328" y="363" on="0"/>
        <pt x="238" y="110" on="0"/>
        <pt x="225" y="91" on="1"/>
        <pt x="198" y="51" on="0"/>
        <pt x="95" y="51" on="0"/>
        <pt x="95" y="87" on="1"/>
        <pt x="95" y="152" on="0"/>
        <pt x="163" y="366" on="0"/>
        <pt x="197" y="488" on="0"/>
        <pt x="209" y="525" on="1"/>
        <pt x="271" y="731" on="1"/>
        <pt x="397" y="1144" on="0"/>
        <pt x="408" y="1174" on="1"/>
        <pt x="458" y="1307" on="0"/>
        <pt x="517" y="1376" on="1"/>
        <pt x="548" y="1413" on="0"/>
        <pt x="695" y="1413" on="0"/>
        <pt x="781" y="1300" on="0"/>
        <pt x="917" y="962" on="0"/>
        <pt x="1091" y="359" on="1"/>
      </contour>
    </TTGlyph>
    <TTGlyph name="B" xMin="157" yMin="2" xMax="1092" yMax="1414">
      <contour>
        <pt x="336" y="914" on="1"/>
        <pt x="336" y="839" on="0"/>
        <pt x="363" y="812" on="0"/>
        <pt x="404" y="812" on="1"/>
        <pt x="462" y="812" on="1"/>
        <pt x="471" y="813" on="1"/>
        <pt x="505" y="815" on="1"/>
        <pt x="547" y="818" on="1"/>
        <pt x="675" y="818" on="0"/>
        <pt x="827" y="957" on="0"/>
        <pt x="827" y="1058" on="1"/>
        <pt x="827" y="1085" on="1"/>
        <pt x="827" y="1176" on="0"/>
        <pt x="701" y="1279" on="0"/>
        <pt x="573" y="1279" on="1"/>
        <pt x="555" y="1279" on="1"/>
        <pt x="547" y="1278" on="1"/>
        <pt x="538" y="1278" on="1"/>
        <pt x="372" y="1278" on="0"/>
        <pt x="338" y="1209" on="0"/>
        <pt x="338" y="1018" on="1"/>
        <pt x="337" y="1001" on="1"/>
        <pt x="337" y="983" on="0"/>
        <pt x="337" y="966" on="1"/>
        <pt x="336" y="931" on="1"/>
      </contour>
      <contour>
        <pt x="339" y="514" on="1"/>
        <pt x="339" y="356" on="1"/>
        <pt x="339" y="205" on="0"/>
        <pt x="374" y="152" on="0"/>
        <pt x="502" y="152" on="1"/>
        <pt x="563" y="152" on="1"/>
        <pt x="914" y="152" on="0"/>
        <pt x="914" y="433" on="1"/>
        <pt x="913" y="444" on="1"/>
        <pt x="913" y="553" on="0"/>
        <pt x="766" y="689" on="0"/>
        <pt x="648" y="689" on="1"/>
        <pt x="627" y="691" on="1"/>
        <pt x="527" y="691" on="1"/>
        <pt x="517" y="690" on="1"/>
        <pt x="497" y="690" on="1"/>
        <pt x="477" y="688" on="0"/>
        <pt x="468" y="688" on="1"/>
        <pt x="381" y="688" on="0"/>
        <pt x="339" y="632" on="0"/>
      </contour>
      <contour>
        <pt x="543" y="1414" on="1"/>
        <pt x="613" y="1414" on="1"/>
        <pt x="887" y="1414" on="0"/>
        <pt x="972" y="1230" on="1"/>
        <pt x="1000" y="1169" on="0"/>
        <pt x="1000" y="941" on="0"/>
        <pt x="907" y="827" on="1"/>
        <pt x="873" y="786" on="0"/>
        <pt x="873" y="776" on="1"/>
        <pt x="872" y="766" on="0"/>
        <pt x="908" y="744" on="1"/>
        <pt x="989" y="695" on="0"/>
        <pt x="1092" y="538" on="0"/>
        <pt x="1092" y="449" on="1"/>
        <pt x="1092" y="402" on="1"/>
        <pt x="1092" y="308" on="0"/>
        <pt x="1053" y="232" on="1"/>
        <pt x="976" y="81" on="0"/>
        <pt x="795" y="32" on="1"/>
        <pt x="685" y="2" on="0"/>
        <pt x="544" y="2" on="1"/>
        <pt x="371" y="2" on="1"/>
        <pt x="287" y="2" on="0"/>
        <pt x="227" y="22" on="1"/>
        <pt x="183" y="37" on="0"/>
        <pt x="161" y="137" on="0"/>
        <pt x="161" y="476" on="1"/>
        <pt x="161" y="869" on="1"/>
        <pt x="162" y="934" on="1"/>
        <pt x="162" y="999" on="1"/>
        <pt x="157" y="1230" on="1"/>
        <pt x="157" y="1349" on="0"/>
        <pt x="190" y="1374" on="1"/>
        <pt x="236" y="1409" on="0"/>
        <pt x="429" y="1409" on="1"/>
        <pt x="474" y="1411" on="1"/>
        <pt x="542" y="1414" on="0"/>
      </contour>
    </TTGlyph>
    <TTGlyph name="C" xMin="107" yMin="-1" xMax="1105" yMax="1409">
      <contour>
        <pt x="996" y="1134" on="1"/>
        <pt x="985" y="1134" on="0"/>
        <pt x="795" y="1234" on="0"/>
        <pt x="598" y="1234" on="0"/>
        <pt x="447" y="1152" on="0"/>
        <pt x="360" y="1025" on="0"/>
        <pt x="303" y="806" on="0"/>
        <pt x="303" y="674" on="1"/>
        <pt x="303" y="164" on="0"/>
        <pt x="694" y="164" on="1"/>
        <pt x="788" y="164" on="0"/>
        <pt x="881" y="204" on="1"/>
        <pt x="888" y="207" on="0"/>
        <pt x="1032" y="279" on="0"/>
        <pt x="1054" y="279" on="1"/>
        <pt x="1105" y="279" on="0"/>
        <pt x="1105" y="238" on="1"/>
        <pt x="1105" y="217" on="1"/>
        <pt x="1105" y="204" on="0"/>
        <pt x="1084" y="176" on="1"/>
        <pt x="1038" y="115" on="0"/>
        <pt x="801" y="-1" on="0"/>
        <pt x="646" y="-1" on="1"/>
        <pt x="616" y="-1" on="1"/>
        <pt x="614" y="-1" on="0"/>
        <pt x="611" y="-1" on="1"/>
        <pt x="496" y="-1" on="0"/>
        <pt x="401" y="48" on="1"/>
        <pt x="209" y="146" on="0"/>
        <pt x="146" y="360" on="1"/>
        <pt x="107" y="491" on="0"/>
        <pt x="107" y="630" on="1"/>
        <pt x="107" y="693" on="1"/>
        <pt x="107" y="838" on="0"/>
        <pt x="191" y="1115" on="0"/>
        <pt x="340" y="1302" on="0"/>
        <pt x="573" y="1409" on="0"/>
        <pt x="847" y="1409" on="0"/>
        <pt x="1055" y="1274" on="0"/>
        <pt x="1055" y="1134" on="0"/>
      </contour>
    </TTGlyph>
    <TTGlyph name="Ccedilla" xMin="92" yMin="-453" xMax="1093" yMax="1431">
      <contour>
        <pt x="684" y="-84" on="1"/>
        <pt x="684" y="-104" on="0"/>
        <pt x="728" y="-126" on="1"/>
        <pt x="823" y="-173" on="0"/>
        <pt x="823" y="-265" on="1"/>
        <pt x="823" y="-267" on="1"/>
        <pt x="822" y="-275" on="1"/>
        <pt x="822" y="-357" on="0"/>
        <pt x="693" y="-453" on="0"/>
        <pt x="600" y="-453" on="1"/>
        <pt x="592" y="-453" on="1"/>
        <pt x="490" y="-453" on="0"/>
        <pt x="490" y="-393" on="1"/>
        <pt x="490" y="-387" on="1"/>
        <pt x="490" y="-357" on="0"/>
        <pt x="608" y="-337" on="0"/>
        <pt x="658" y="-305" on="0"/>
        <pt x="658" y="-231" on="0"/>
        <pt x="564" y="-165" on="0"/>
        <pt x="562" y="-134" on="0"/>
        <pt x="562" y="-128" on="1"/>
        <pt x="562" y="-62" on="0"/>
        <pt x="593" y="-31" on="1"/>
        <pt x="602" y="-22" on="0"/>
        <pt x="631" y="-20" on="1"/>
        <pt x="524" y="-16" on="0"/>
        <pt x="417" y="32" on="1"/>
        <pt x="300" y="82" on="0"/>
        <pt x="230" y="178" on="1"/>
        <pt x="92" y="366" on="0"/>
        <pt x="92" y="693" on="1"/>
        <pt x="92" y="726" on="1"/>
        <pt x="92" y="1051" on="0"/>
        <pt x="238" y="1242" on="1"/>
        <pt x="303" y="1327" on="0"/>
        <pt x="524" y="1431" on="0"/>
        <pt x="823" y="1431" on="0"/>
        <pt x="939" y="1374" on="1"/>
        <pt x="987" y="1351" on="0"/>
        <pt x="1088" y="1219" on="0"/>
        <pt x="1088" y="1193" on="1"/>
        <pt x="1088" y="1108" on="0"/>
        <pt x="1033" y="1108" on="1"/>
        <pt x="1006" y="1108" on="0"/>
        <pt x="940" y="1156" on="1"/>
        <pt x="798" y="1259" on="0"/>
        <pt x="635" y="1259" on="1"/>
        <pt x="303" y="1259" on="0"/>
        <pt x="303" y="690" on="1"/>
        <pt x="303" y="443" on="0"/>
        <pt x="383" y="308" on="1"/>
        <pt x="416" y="251" on="0"/>
        <pt x="558" y="167" on="0"/>
        <pt x="748" y="167" on="0"/>
        <pt x="853" y="212" on="1"/>
        <pt x="1042" y="293" on="0"/>
        <pt x="1043" y="293" on="1"/>
        <pt x="1093" y="293" on="0"/>
        <pt x="1093" y="225" on="1"/>
        <pt x="1093" y="209" on="0"/>
        <pt x="1073" y="177" on="1"/>
        <pt x="1032" y="112" on="0"/>
        <pt x="953" y="64" on="1"/>
        <pt x="822" y="-15" on="0"/>
        <pt x="668" y="-20" on="1"/>
        <pt x="680" y="-24" on="0"/>
        <pt x="680" y="-53" on="1"/>
        <pt x="684" y="-77" on="0"/>
      </contour>
    </TTGlyph>
    <TTGlyph name="D" xMin="178" yMin="6" xMax="1186" yMax="1406">
      <contour>
        <pt x="492" y="163" on="1"/>
        <pt x="564" y="163" on="1"/>
        <pt x="861" y="163" on="0"/>
        <pt x="947" y="485" on="1"/>
        <pt x="975" y="590" on="0"/>
        <pt x="975" y="711" on="1"/>
        <pt x="975" y="745" on="1"/>
        <pt x="975" y="870" on="0"/>
        <pt x="945" y="970" on="1"/>
        <pt x="915" y="1068" on="0"/>
        <pt x="871" y="1128" on="1"/>
        <pt x="767" y="1268" on="0"/>
        <pt x="575" y="1269" on="1"/>
        <pt x="531" y="1269" on="1"/>
        <pt x="389" y="1269" on="0"/>
        <pt x="372" y="1209" on="1"/>
        <pt x="360" y="1168" on="0"/>
        <pt x="360" y="846" on="1"/>
        <pt x="360" y="451" on="1"/>
        <pt x="361" y="436" on="1"/>
        <pt x="361" y="405" on="1"/>
        <pt x="367" y="270" on="1"/>
        <pt x="367" y="205" on="0"/>
        <pt x="392" y="188" on="1"/>
        <pt x="430" y="163" on="0"/>
      </contour>
      <contour>
        <pt x="178" y="1262" on="1"/>
        <pt x="178" y="1352" on="0"/>
        <pt x="240" y="1374" on="1"/>
        <pt x="331" y="1406" on="0"/>
        <pt x="536" y="1406" on="1"/>
        <pt x="558" y="1406" on="1"/>
        <pt x="854" y="1406" on="0"/>
        <pt x="1009" y="1251" on="1"/>
        <pt x="1091" y="1169" on="0"/>
        <pt x="1186" y="916" on="0"/>
        <pt x="1186" y="770" on="1"/>
        <pt x="1186" y="698" on="1"/>
        <pt x="1186" y="559" on="0"/>
        <pt x="1142" y="422" on="1"/>
        <pt x="1058" y="156" on="0"/>
        <pt x="825" y="58" on="1"/>
        <pt x="701" y="6" on="0"/>
        <pt x="555" y="6" on="1"/>
        <pt x="469" y="6" on="1"/>
        <pt x="294" y="6" on="0"/>
        <pt x="224" y="45" on="1"/>
        <pt x="188" y="65" on="0"/>
        <pt x="188" y="154" on="1"/>
        <pt x="190" y="196" on="1"/>
        <pt x="195" y="301" on="0"/>
        <pt x="195" y="367" on="1"/>
        <pt x="194" y="409" on="1"/>
        <pt x="194" y="474" on="1"/>
        <pt x="192" y="580" on="1"/>
        <pt x="192" y="643" on="1"/>
        <pt x="191" y="686" on="1"/>
        <pt x="191" y="814" on="1"/>
        <pt x="189" y="897" on="1"/>
        <pt x="185" y="979" on="1"/>
        <pt x="183" y="1020" on="0"/>
        <pt x="183" y="1060" on="1"/>
        <pt x="178" y="1222" on="1"/>
      </contour>
    </TTGlyph>
    <TTGlyph name="E" xMin="155" yMin="5" xMax="982" yMax="1411">
      <contour>
        <pt x="982" y="168" on="0"/>
        <pt x="982" y="50" on="0"/>
        <pt x="913" y="33" on="1"/>
        <pt x="801" y="5" on="0"/>
        <pt x="508" y="5" on="1"/>
        <pt x="474" y="5" on="1"/>
        <pt x="254" y="5" on="0"/>
        <pt x="155" y="96" on="0"/>
        <pt x="155" y="291" on="1"/>
        <pt x="155" y="325" on="1"/>
        <pt x="156" y="359" on="1"/>
        <pt x="156" y="566" on="0"/>
        <pt x="188" y="918" on="0"/>
        <pt x="188" y="1315" on="0"/>
        <pt x="234" y="1345" on="1"/>
        <pt x="335" y="1411" on="0"/>
        <pt x="628" y="1411" on="1"/>
        <pt x="796" y="1411" on="1"/>
        <pt x="882" y="1411" on="0"/>
        <pt x="959" y="1382" on="0"/>
        <pt x="959" y="1339" on="1"/>
        <pt x="959" y="1305" on="0"/>
        <pt x="821" y="1267" on="0"/>
        <pt x="475" y="1239" on="0"/>
        <pt x="424" y="1204" on="0"/>
        <pt x="378" y="1072" on="0"/>
        <pt x="378" y="869" on="0"/>
        <pt x="472" y="829" on="0"/>
        <pt x="820" y="807" on="0"/>
        <pt x="829" y="804" on="1"/>
        <pt x="862" y="792" on="0"/>
        <pt x="862" y="690" on="0"/>
        <pt x="796" y="671" on="1"/>
        <pt x="770" y="664" on="0"/>
        <pt x="446" y="638" on="0"/>
        <pt x="353" y="588" on="0"/>
        <pt x="353" y="461" on="1"/>
        <pt x="353" y="257" on="0"/>
        <pt x="401" y="200" on="1"/>
        <pt x="433" y="162" on="0"/>
        <pt x="595" y="162" on="1"/>
        <pt x="630" y="162" on="0"/>
        <pt x="693" y="164" on="1"/>
        <pt x="817" y="168" on="1"/>
      </contour>
    </TTGlyph>
    <TTGlyph name="Eacute" xMin="168" yMin="64" xMax="966" yMax="1840">
      <contour>
        <pt x="523" y="1494" on="1"/>
        <pt x="493" y="1494" on="1"/>
        <pt x="443" y="1494" on="0"/>
        <pt x="443" y="1532" on="1"/>
        <pt x="443" y="1542" on="1"/>
        <pt x="444" y="1547" on="1"/>
        <pt x="444" y="1591" on="0"/>
        <pt x="609" y="1783" on="1"/>
        <pt x="655" y="1837" on="0"/>
        <pt x="710" y="1837" on="1"/>
        <pt x="740" y="1840" on="1"/>
        <pt x="751" y="1840" on="1"/>
        <pt x="802" y="1840" on="0"/>
        <pt x="802" y="1819" on="1"/>
        <pt x="802" y="1811" on="1"/>
        <pt x="801" y="1807" on="1"/>
        <pt x="801" y="1779" on="0"/>
        <pt x="548" y="1494" on="0"/>
      </contour>
      <contour>
        <pt x="168" y="244" on="1"/>
        <pt x="168" y="275" on="1"/>
        <pt x="169" y="308" on="1"/>
        <pt x="170" y="341" on="0"/>
        <pt x="170" y="374" on="1"/>
        <pt x="171" y="407" on="1"/>
        <pt x="172" y="440" on="0"/>
        <pt x="172" y="474" on="1"/>
        <pt x="175" y="573" on="1"/>
        <pt x="176" y="606" on="0"/>
        <pt x="176" y="739" on="0"/>
        <pt x="178" y="806" on="1"/>
        <pt x="179" y="839" on="1"/>
        <pt x="176" y="1005" on="1"/>
        <pt x="175" y="1038" on="1"/>
        <pt x="173" y="1170" on="1"/>
        <pt x="173" y="1347" on="0"/>
        <pt x="223" y="1378" on="1"/>
        <pt x="302" y="1427" on="0"/>
        <pt x="621" y="1427" on="1"/>
        <pt x="689" y="1427" on="1"/>
        <pt x="874" y="1427" on="0"/>
        <pt x="947" y="1403" on="0"/>
        <pt x="947" y="1370" on="1"/>
        <pt x="947" y="1314" on="0"/>
        <pt x="885" y="1302" on="1"/>
        <pt x="869" y="1299" on="0"/>
        <pt x="429" y="1279" on="0"/>
        <pt x="407" y="1264" on="1"/>
        <pt x="363" y="1234" on="0"/>
        <pt x="363" y="900" on="0"/>
        <pt x="481" y="849" on="0"/>
        <pt x="797" y="849" on="0"/>
        <pt x="854" y="821" on="0"/>
        <pt x="854" y="723" on="0"/>
        <pt x="789" y="688" on="0"/>
        <pt x="465" y="688" on="0"/>
        <pt x="361" y="623" on="0"/>
        <pt x="361" y="266" on="0"/>
        <pt x="443" y="208" on="0"/>
        <pt x="857" y="208" on="0"/>
        <pt x="966" y="186" on="0"/>
        <pt x="966" y="95" on="0"/>
        <pt x="874" y="64" on="0"/>
        <pt x="628" y="64" on="1"/>
        <pt x="527" y="64" on="1"/>
        <pt x="288" y="64" on="0"/>
        <pt x="221" y="97" on="1"/>
        <pt x="168" y="123" on="0"/>
      </contour>
    </TTGlyph>
    <TTGlyph name="Ecircumflex" xMin="160" yMin="20" xMax="975" yMax="1851">
      <contour>
        <pt x="805" y="1533" on="1"/>
        <pt x="783" y="1533" on="1"/>
        <pt x="743" y="1533" on="0"/>
        <pt x="577" y="1714" on="0"/>
        <pt x="560" y="1714" on="0"/>
        <pt x="466" y="1611" on="1"/>
        <pt x="401" y="1540" on="0"/>
        <pt x="282" y="1540" on="0"/>
        <pt x="282" y="1570" on="1"/>
        <pt x="282" y="1576" on="1"/>
        <pt x="282" y="1617" on="0"/>
        <pt x="468" y="1803" on="1"/>
        <pt x="516" y="1851" on="0"/>
        <pt x="568" y="1851" on="1"/>
        <pt x="576" y="1851" on="1"/>
        <pt x="625" y="1851" on="0"/>
        <pt x="666" y="1806" on="1"/>
        <pt x="854" y="1601" on="0"/>
        <pt x="854" y="1566" on="1"/>
        <pt x="854" y="1560" on="1"/>
        <pt x="854" y="1533" on="0"/>
      </contour>
      <contour>
        <pt x="571" y="1416" on="1"/>
        <pt x="708" y="1416" on="1"/>
        <pt x="865" y="1416" on="0"/>
        <pt x="900" y="1407" on="1"/>
        <pt x="950" y="1394" on="0"/>
        <pt x="950" y="1303" on="0"/>
        <pt x="896" y="1289" on="1"/>
        <pt x="881" y="1285" on="0"/>
        <pt x="435" y="1265" on="0"/>
        <pt x="407" y="1249" on="1"/>
        <pt x="352" y="1218" on="0"/>
        <pt x="352" y="1002" on="1"/>
        <pt x="352" y="878" on="0"/>
        <pt x="464" y="821" on="0"/>
        <pt x="699" y="821" on="1"/>
        <pt x="787" y="821" on="0"/>
        <pt x="859" y="798" on="0"/>
        <pt x="859" y="757" on="1"/>
        <pt x="859" y="684" on="0"/>
        <pt x="808" y="669" on="1"/>
        <pt x="775" y="659" on="0"/>
        <pt x="449" y="659" on="0"/>
        <pt x="395" y="619" on="1"/>
        <pt x="354" y="589" on="0"/>
        <pt x="354" y="232" on="0"/>
        <pt x="418" y="166" on="0"/>
        <pt x="975" y="166" on="0"/>
        <pt x="975" y="116" on="1"/>
        <pt x="975" y="94" on="1"/>
        <pt x="975" y="44" on="0"/>
        <pt x="851" y="20" on="0"/>
        <pt x="642" y="20" on="1"/>
        <pt x="539" y="20" on="1"/>
        <pt x="316" y="20" on="0"/>
        <pt x="224" y="52" on="1"/>
        <pt x="160" y="74" on="0"/>
        <pt x="160" y="193" on="1"/>
        <pt x="160" y="257" on="1"/>
        <pt x="161" y="291" on="1"/>
        <pt x="163" y="427" on="1"/>
        <pt x="164" y="461" on="0"/>
        <pt x="164" y="495" on="1"/>
        <pt x="166" y="562" on="1"/>
        <pt x="166" y="629" on="1"/>
        <pt x="169" y="800" on="1"/>
        <pt x="167" y="936" on="1"/>
        <pt x="166" y="970" on="1"/>
        <pt x="165" y="1004" on="0"/>
        <pt x="165" y="1038" on="1"/>
        <pt x="163" y="1106" on="1"/>
        <pt x="162" y="1173" on="1"/>
        <pt x="162" y="1286" on="0"/>
        <pt x="190" y="1357" on="0"/>
        <pt x="226" y="1375" on="1"/>
        <pt x="308" y="1416" on="0"/>
      </contour>
    </TTGlyph>
    <TTGlyph name="Edieresis" xMin="157" yMin="40" xMax="966" yMax="1784">
      <contour>
        <pt x="374" y="1551" on="1"/>
        <pt x="284" y="1551" on="0"/>
        <pt x="284" y="1610" on="1"/>
        <pt x="282" y="1617" on="1"/>
        <pt x="282" y="1624" on="1"/>
        <pt x="280" y="1642" on="1"/>
        <pt x="281" y="1645" on="1"/>
        <pt x="281" y="1655" on="0"/>
        <pt x="281" y="1664" on="1"/>
        <pt x="282" y="1668" on="1"/>
        <pt x="282" y="1671" on="1"/>
        <pt x="282" y="1733" on="0"/>
        <pt x="318" y="1778" on="0"/>
        <pt x="381" y="1778" on="1"/>
        <pt x="397" y="1778" on="1"/>
        <pt x="418" y="1774" on="1"/>
        <pt x="456" y="1774" on="0"/>
        <pt x="456" y="1724" on="1"/>
        <pt x="460" y="1712" on="0"/>
        <pt x="460" y="1705" on="1"/>
        <pt x="463" y="1682" on="1"/>
        <pt x="463" y="1645" on="1"/>
        <pt x="458" y="1610" on="1"/>
        <pt x="458" y="1556" on="0"/>
        <pt x="414" y="1556" on="1"/>
        <pt x="406" y="1552" on="0"/>
        <pt x="401" y="1552" on="1"/>
        <pt x="384" y="1550" on="1"/>
        <pt x="381" y="1550" on="1"/>
        <pt x="378" y="1551" on="1"/>
      </contour>
      <contour>
        <pt x="742" y="1784" on="1"/>
        <pt x="759" y="1784" on="1"/>
        <pt x="775" y="1780" on="0"/>
        <pt x="788" y="1780" on="1"/>
        <pt x="838" y="1780" on="0"/>
        <pt x="838" y="1722" on="1"/>
        <pt x="840" y="1716" on="0"/>
        <pt x="840" y="1712" on="1"/>
        <pt x="842" y="1694" on="1"/>
        <pt x="842" y="1665" on="1"/>
        <pt x="836" y="1631" on="1"/>
        <pt x="836" y="1584" on="0"/>
        <pt x="785" y="1584" on="1"/>
        <pt x="776" y="1581" on="0"/>
        <pt x="772" y="1581" on="1"/>
        <pt x="755" y="1579" on="1"/>
        <pt x="725" y="1579" on="1"/>
        <pt x="699" y="1583" on="1"/>
        <pt x="655" y="1583" on="0"/>
        <pt x="655" y="1631" on="1"/>
        <pt x="652" y="1640" on="0"/>
        <pt x="652" y="1644" on="1"/>
        <pt x="649" y="1665" on="1"/>
        <pt x="649" y="1701" on="1"/>
        <pt x="653" y="1725" on="1"/>
        <pt x="653" y="1784" on="0"/>
      </contour>
      <contour>
        <pt x="157" y="242" on="1"/>
        <pt x="157" y="275" on="1"/>
        <pt x="158" y="308" on="1"/>
        <pt x="159" y="342" on="0"/>
        <pt x="159" y="375" on="1"/>
        <pt x="160" y="409" on="1"/>
        <pt x="161" y="443" on="0"/>
        <pt x="161" y="477" on="1"/>
        <pt x="163" y="544" on="1"/>
        <pt x="164" y="578" on="0"/>
        <pt x="164" y="612" on="1"/>
        <pt x="164" y="678" on="1"/>
        <pt x="166" y="814" on="1"/>
        <pt x="166" y="881" on="1"/>
        <pt x="164" y="948" on="1"/>
        <pt x="162" y="1015" on="0"/>
        <pt x="162" y="1050" on="1"/>
        <pt x="160" y="1117" on="1"/>
        <pt x="159" y="1184" on="1"/>
        <pt x="159" y="1340" on="0"/>
        <pt x="201" y="1371" on="1"/>
        <pt x="269" y="1422" on="0"/>
        <pt x="533" y="1422" on="1"/>
        <pt x="737" y="1422" on="1"/>
        <pt x="863" y="1422" on="0"/>
        <pt x="894" y="1414" on="1"/>
        <pt x="942" y="1402" on="0"/>
        <pt x="942" y="1307" on="0"/>
        <pt x="825" y="1280" on="0"/>
        <pt x="547" y="1280" on="1"/>
        <pt x="410" y="1280" on="0"/>
        <pt x="343" y="1209" on="0"/>
        <pt x="343" y="903" on="0"/>
        <pt x="374" y="876" on="1"/>
        <pt x="421" y="834" on="0"/>
        <pt x="690" y="834" on="1"/>
        <pt x="779" y="834" on="0"/>
        <pt x="848" y="809" on="0"/>
        <pt x="848" y="769" on="1"/>
        <pt x="848" y="699" on="0"/>
        <pt x="796" y="683" on="1"/>
        <pt x="763" y="673" on="0"/>
        <pt x="435" y="673" on="0"/>
        <pt x="346" y="601" on="0"/>
        <pt x="346" y="224" on="0"/>
        <pt x="399" y="199" on="1"/>
        <pt x="433" y="183" on="0"/>
        <pt x="876" y="183" on="0"/>
        <pt x="966" y="163" on="0"/>
        <pt x="966" y="63" on="0"/>
        <pt x="845" y="40" on="0"/>
        <pt x="671" y="40" on="1"/>
        <pt x="501" y="40" on="1"/>
        <pt x="255" y="40" on="0"/>
        <pt x="197" y="82" on="1"/>
        <pt x="157" y="111" on="0"/>
      </contour>
    </TTGlyph>
    <TTGlyph name="Egrave" xMin="160" yMin="23" xMax="976" yMax="1856">
      <contour>
        <pt x="631" y="1537" on="1"/>
        <pt x="579" y="1537" on="0"/>
        <pt x="335" y="1781" on="0"/>
        <pt x="335" y="1802" on="1"/>
        <pt x="335" y="1807" on="1"/>
        <pt x="335" y="1856" on="0"/>
        <pt x="404" y="1856" on="1"/>
        <pt x="413" y="1856" on="1"/>
        <pt x="418" y="1855" on="1"/>
        <pt x="422" y="1855" on="1"/>
        <pt x="487" y="1855" on="0"/>
        <pt x="528" y="1808" on="1"/>
        <pt x="701" y="1610" on="0"/>
        <pt x="701" y="1566" on="1"/>
        <pt x="701" y="1561" on="1"/>
        <pt x="700" y="1557" on="1"/>
        <pt x="700" y="1534" on="0"/>
        <pt x="667" y="1534" on="1"/>
        <pt x="657" y="1534" on="1"/>
        <pt x="642" y="1537" on="0"/>
      </contour>
      <contour>
        <pt x="167" y="598" on="1"/>
        <pt x="167" y="665" on="1"/>
        <pt x="168" y="870" on="1"/>
        <pt x="166" y="1006" on="1"/>
        <pt x="165" y="1040" on="1"/>
        <pt x="164" y="1074" on="0"/>
        <pt x="164" y="1107" on="1"/>
        <pt x="163" y="1141" on="1"/>
        <pt x="162" y="1175" on="0"/>
        <pt x="162" y="1208" on="1"/>
        <pt x="162" y="1346" on="0"/>
        <pt x="226" y="1377" on="1"/>
        <pt x="312" y="1419" on="0"/>
        <pt x="604" y="1419" on="1"/>
        <pt x="639" y="1419" on="1"/>
        <pt x="673" y="1418" on="1"/>
        <pt x="707" y="1418" on="1"/>
        <pt x="864" y="1418" on="0"/>
        <pt x="899" y="1409" on="1"/>
        <pt x="950" y="1396" on="0"/>
        <pt x="950" y="1305" on="0"/>
        <pt x="895" y="1291" on="1"/>
        <pt x="861" y="1282" on="0"/>
        <pt x="439" y="1269" on="0"/>
        <pt x="407" y="1251" on="1"/>
        <pt x="351" y="1219" on="0"/>
        <pt x="351" y="1005" on="1"/>
        <pt x="351" y="881" on="0"/>
        <pt x="463" y="824" on="0"/>
        <pt x="698" y="824" on="1"/>
        <pt x="786" y="824" on="0"/>
        <pt x="858" y="801" on="0"/>
        <pt x="858" y="760" on="1"/>
        <pt x="858" y="687" on="0"/>
        <pt x="808" y="672" on="1"/>
        <pt x="775" y="662" on="0"/>
        <pt x="422" y="662" on="0"/>
        <pt x="378" y="606" on="1"/>
        <pt x="354" y="576" on="0"/>
        <pt x="354" y="210" on="0"/>
        <pt x="408" y="185" on="1"/>
        <pt x="447" y="167" on="0"/>
        <pt x="876" y="167" on="0"/>
        <pt x="976" y="146" on="0"/>
        <pt x="976" y="56" on="0"/>
        <pt x="897" y="23" on="0"/>
        <pt x="713" y="23" on="1"/>
        <pt x="506" y="23" on="1"/>
        <pt x="265" y="23" on="0"/>
        <pt x="201" y="66" on="1"/>
        <pt x="160" y="93" on="0"/>
        <pt x="160" y="227" on="1"/>
        <pt x="161" y="259" on="1"/>
        <pt x="164" y="463" on="1"/>
        <pt x="166" y="530" on="1"/>
        <pt x="167" y="564" on="0"/>
      </contour>
    </TTGlyph>
    <TTGlyph name="Eth" xMin="79" yMin="1" xMax="1214" yMax="1416">
      <contour>
        <pt x="512" y="141" on="1"/>
        <pt x="565" y="141" on="1"/>
        <pt x="569" y="141" on="0"/>
        <pt x="573" y="141" on="1"/>
        <pt x="704" y="141" on="0"/>
        <pt x="778" y="174" on="1"/>
        <pt x="1010" y="275" on="0"/>
        <pt x="1010" y="668" on="1"/>
        <pt x="1010" y="770" on="1"/>
        <pt x="1010" y="895" on="0"/>
        <pt x="978" y="995" on="1"/>
        <pt x="918" y="1184" on="0"/>
        <pt x="777" y="1243" on="1"/>
        <pt x="696" y="1277" on="0"/>
        <pt x="583" y="1277" on="1"/>
        <pt x="511" y="1277" on="1"/>
        <pt x="425" y="1277" on="0"/>
        <pt x="384" y="1202" on="0"/>
        <pt x="384" y="1048" on="1"/>
        <pt x="383" y="1011" on="1"/>
        <pt x="383" y="956" on="1"/>
        <pt x="383" y="850" on="0"/>
        <pt x="422" y="822" on="1"/>
        <pt x="442" y="807" on="0"/>
        <pt x="602" y="789" on="0"/>
        <pt x="610" y="786" on="1"/>
        <pt x="641" y="776" on="0"/>
        <pt x="641" y="684" on="0"/>
        <pt x="607" y="667" on="1"/>
        <pt x="606" y="666" on="0"/>
        <pt x="430" y="634" on="0"/>
        <pt x="386" y="577" on="0"/>
        <pt x="386" y="438" on="1"/>
        <pt x="390" y="276" on="1"/>
        <pt x="390" y="193" on="0"/>
        <pt x="432" y="141" on="0"/>
      </contour>
      <contour>
        <pt x="79" y="721" on="1"/>
        <pt x="79" y="743" on="1"/>
        <pt x="79" y="788" on="0"/>
        <pt x="116" y="802" on="1"/>
        <pt x="197" y="832" on="0"/>
        <pt x="198" y="833" on="1"/>
        <pt x="208" y="847" on="0"/>
        <pt x="208" y="910" on="1"/>
        <pt x="206" y="955" on="1"/>
        <pt x="205" y="978" on="0"/>
        <pt x="205" y="999" on="1"/>
        <pt x="204" y="1043" on="1"/>
        <pt x="204" y="1110" on="1"/>
        <pt x="204" y="1154" on="0"/>
        <pt x="202" y="1199" on="1"/>
        <pt x="197" y="1309" on="1"/>
        <pt x="197" y="1382" on="0"/>
        <pt x="303" y="1416" on="0"/>
        <pt x="487" y="1416" on="1"/>
        <pt x="582" y="1416" on="1"/>
        <pt x="895" y="1416" on="0"/>
        <pt x="1049" y="1252" on="1"/>
        <pt x="1132" y="1164" on="0"/>
        <pt x="1214" y="885" on="0"/>
        <pt x="1214" y="732" on="1"/>
        <pt x="1214" y="680" on="1"/>
        <pt x="1214" y="515" on="0"/>
        <pt x="1166" y="374" on="1"/>
        <pt x="1077" y="112" on="0"/>
        <pt x="835" y="34" on="1"/>
        <pt x="731" y="1" on="0"/>
        <pt x="555" y="1" on="1"/>
        <pt x="414" y="1" on="1"/>
        <pt x="270" y="1" on="0"/>
        <pt x="230" y="28" on="1"/>
        <pt x="205" y="45" on="0"/>
        <pt x="205" y="163" on="1"/>
        <pt x="207" y="210" on="1"/>
        <pt x="208" y="256" on="1"/>
        <pt x="208" y="464" on="1"/>
        <pt x="210" y="578" on="1"/>
        <pt x="210" y="641" on="0"/>
        <pt x="154" y="657" on="1"/>
        <pt x="79" y="678" on="0"/>
      </contour>
    </TTGlyph>
    <TTGlyph name="Euro" xMin="100" yMin="-2" xMax="1084" yMax="1371">
      <contour>
        <pt x="806" y="595" on="0"/>
        <pt x="806" y="509" on="0"/>
        <pt x="713" y="485" on="1"/>
        <pt x="570" y="447" on="0"/>
        <pt x="506" y="402" on="0"/>
        <pt x="506" y="357" on="1"/>
        <pt x="506" y="273" on="0"/>
        <pt x="619" y="212" on="1"/>
        <pt x="690" y="174" on="0"/>
        <pt x="807" y="174" on="1"/>
        <pt x="845" y="174" on="0"/>
        <pt x="1014" y="212" on="0"/>
        <pt x="1043" y="212" on="1"/>
        <pt x="1084" y="212" on="0"/>
        <pt x="1084" y="164" on="1"/>
        <pt x="1084" y="99" on="0"/>
        <pt x="871" y="-2" on="0"/>
        <pt x="759" y="-2" on="1"/>
        <pt x="720" y="-2" on="1"/>
        <pt x="416" y="-2" on="0"/>
        <pt x="279" y="294" on="1"/>
        <pt x="214" y="434" on="0"/>
        <pt x="146" y="476" on="1"/>
        <pt x="100" y="504" on="0"/>
        <pt x="100" y="575" on="0"/>
        <pt x="147" y="595" on="1"/>
        <pt x="213" y="623" on="0"/>
        <pt x="213" y="725" on="0"/>
        <pt x="171" y="745" on="1"/>
        <pt x="112" y="773" on="0"/>
        <pt x="112" y="789" on="1"/>
        <pt x="112" y="830" on="0"/>
        <pt x="222" y="923" on="0"/>
        <pt x="291" y="1049" on="1"/>
        <pt x="360" y="1174" on="0"/>
        <pt x="432" y="1238" on="1"/>
        <pt x="581" y="1370" on="0"/>
        <pt x="780" y="1371" on="1"/>
        <pt x="818" y="1371" on="1"/>
        <pt x="908" y="1371" on="0"/>
        <pt x="1068" y="1287" on="0"/>
        <pt x="1068" y="1235" on="1"/>
        <pt x="1068" y="1171" on="0"/>
        <pt x="998" y="1171" on="1"/>
        <pt x="986" y="1171" on="0"/>
        <pt x="825" y="1201" on="0"/>
        <pt x="688" y="1201" on="0"/>
        <pt x="532" y="1076" on="0"/>
        <pt x="532" y="1011" on="1"/>
        <pt x="532" y="927" on="0"/>
        <pt x="699" y="893" on="1"/>
        <pt x="830" y="866" on="0"/>
        <pt x="830" y="801" on="0"/>
        <pt x="726" y="761" on="0"/>
        <pt x="503" y="744" on="0"/>
        <pt x="486" y="740" on="1"/>
        <pt x="434" y="727" on="0"/>
        <pt x="434" y="691" on="1"/>
        <pt x="434" y="638" on="0"/>
        <pt x="466" y="623" on="1"/>
        <pt x="475" y="619" on="0"/>
        <pt x="677" y="604" on="1"/>
      </contour>
    </TTGlyph>
    <TTGlyph name="F" xMin="189" yMin="52" xMax="957" yMax="1408">
      <contour>
        <pt x="311" y="52" on="0"/>
        <pt x="207" y="52" on="0"/>
        <pt x="195" y="100" on="1"/>
        <pt x="189" y="125" on="0"/>
        <pt x="189" y="250" on="1"/>
        <pt x="189" y="485" on="1"/>
        <pt x="189" y="551" on="0"/>
        <pt x="202" y="723" on="0"/>
        <pt x="202" y="883" on="1"/>
        <pt x="201" y="910" on="1"/>
        <pt x="201" y="963" on="1"/>
        <pt x="200" y="989" on="1"/>
        <pt x="199" y="1015" on="0"/>
        <pt x="199" y="1040" on="1"/>
        <pt x="197" y="1065" on="1"/>
        <pt x="194" y="1113" on="1"/>
        <pt x="192" y="1145" on="0"/>
        <pt x="192" y="1204" on="1"/>
        <pt x="192" y="1318" on="0"/>
        <pt x="249" y="1343" on="1"/>
        <pt x="283" y="1358" on="0"/>
        <pt x="624" y="1408" on="0"/>
        <pt x="777" y="1408" on="1"/>
        <pt x="831" y="1408" on="1"/>
        <pt x="896" y="1408" on="0"/>
        <pt x="957" y="1378" on="0"/>
        <pt x="957" y="1306" on="0"/>
        <pt x="884" y="1289" on="1"/>
        <pt x="857" y="1283" on="0"/>
        <pt x="510" y="1247" on="0"/>
        <pt x="435" y="1206" on="0"/>
        <pt x="405" y="1087" on="0"/>
        <pt x="405" y="860" on="0"/>
        <pt x="486" y="806" on="0"/>
        <pt x="762" y="794" on="0"/>
        <pt x="864" y="760" on="0"/>
        <pt x="864" y="670" on="0"/>
        <pt x="819" y="654" on="1"/>
        <pt x="803" y="648" on="0"/>
        <pt x="672" y="629" on="0"/>
        <pt x="627" y="621" on="1"/>
        <pt x="496" y="596" on="0"/>
        <pt x="394" y="491" on="0"/>
        <pt x="368" y="339" on="1"/>
        <pt x="364" y="314" on="0"/>
        <pt x="342" y="140" on="0"/>
        <pt x="332" y="111" on="1"/>
      </contour>
    </TTGlyph>
    <TTGlyph name="G" xMin="112" yMin="-8" xMax="1120" yMax="1418">
      <contour>
        <pt x="959" y="457" on="1"/>
        <pt x="959" y="530" on="0"/>
        <pt x="836" y="600" on="0"/>
        <pt x="836" y="646" on="0"/>
        <pt x="886" y="646" on="1"/>
        <pt x="999" y="646" on="0"/>
        <pt x="1072" y="595" on="1"/>
        <pt x="1120" y="561" on="0"/>
        <pt x="1120" y="455" on="1"/>
        <pt x="1120" y="390" on="1"/>
        <pt x="1120" y="157" on="0"/>
        <pt x="1055" y="85" on="1"/>
        <pt x="1025" y="52" on="0"/>
        <pt x="849" y="-8" on="0"/>
        <pt x="767" y="-8" on="1"/>
        <pt x="735" y="-8" on="1"/>
        <pt x="600" y="-8" on="0"/>
        <pt x="478" y="44" on="1"/>
        <pt x="243" y="144" on="0"/>
        <pt x="159" y="399" on="1"/>
        <pt x="112" y="540" on="0"/>
        <pt x="112" y="699" on="1"/>
        <pt x="112" y="739" on="1"/>
        <pt x="112" y="1041" on="0"/>
        <pt x="286" y="1232" on="1"/>
        <pt x="374" y="1328" on="0"/>
        <pt x="601" y="1418" on="0"/>
        <pt x="710" y="1418" on="1"/>
        <pt x="747" y="1418" on="1"/>
        <pt x="889" y="1418" on="0"/>
        <pt x="1084" y="1302" on="0"/>
        <pt x="1084" y="1228" on="1"/>
        <pt x="1084" y="1181" on="0"/>
        <pt x="1022" y="1181" on="1"/>
        <pt x="1006" y="1181" on="0"/>
        <pt x="975" y="1191" on="1"/>
        <pt x="950" y="1200" on="1"/>
        <pt x="842" y="1241" on="0"/>
        <pt x="742" y="1241" on="1"/>
        <pt x="740" y="1241" on="0"/>
        <pt x="737" y="1241" on="1"/>
        <pt x="640" y="1241" on="0"/>
        <pt x="558" y="1200" on="1"/>
        <pt x="313" y="1078" on="0"/>
        <pt x="313" y="716" on="1"/>
        <pt x="313" y="459" on="0"/>
        <pt x="423" y="313" on="1"/>
        <pt x="513" y="193" on="0"/>
        <pt x="701" y="193" on="1"/>
        <pt x="821" y="193" on="0"/>
        <pt x="959" y="323" on="0"/>
      </contour>
    </TTGlyph>
    <TTGlyph name="H" xMin="175" yMin="25" xMax="1160" yMax="1390">
      <contour>
        <pt x="218" y="1375" on="0"/>
        <pt x="315" y="1375" on="0"/>
        <pt x="337" y="1290" on="1"/>
        <pt x="351" y="1238" on="0"/>
        <pt x="366" y="909" on="0"/>
        <pt x="404" y="867" on="1"/>
        <pt x="458" y="809" on="0"/>
        <pt x="742" y="809" on="1"/>
        <pt x="891" y="809" on="0"/>
        <pt x="927" y="863" on="1"/>
        <pt x="949" y="896" on="0"/>
        <pt x="976" y="1272" on="0"/>
        <pt x="989" y="1313" on="1"/>
        <pt x="1013" y="1390" on="0"/>
        <pt x="1084" y="1390" on="1"/>
        <pt x="1127" y="1390" on="0"/>
        <pt x="1160" y="1311" on="0"/>
        <pt x="1160" y="1224" on="1"/>
        <pt x="1160" y="938" on="1"/>
        <pt x="1160" y="900" on="0"/>
        <pt x="1157" y="789" on="1"/>
        <pt x="1153" y="679" on="1"/>
        <pt x="1143" y="319" on="0"/>
        <pt x="1143" y="275" on="1"/>
        <pt x="1145" y="168" on="1"/>
        <pt x="1146" y="134" on="0"/>
        <pt x="1146" y="102" on="1"/>
        <pt x="1146" y="25" on="0"/>
        <pt x="1088" y="25" on="1"/>
        <pt x="1061" y="25" on="1"/>
        <pt x="1005" y="25" on="0"/>
        <pt x="982" y="120" on="1"/>
        <pt x="970" y="169" on="0"/>
        <pt x="959" y="549" on="0"/>
        <pt x="942" y="584" on="1"/>
        <pt x="910" y="647" on="0"/>
        <pt x="566" y="647" on="0"/>
        <pt x="411" y="603" on="0"/>
        <pt x="367" y="531" on="0"/>
        <pt x="348" y="197" on="0"/>
        <pt x="337" y="146" on="1"/>
        <pt x="314" y="42" on="0"/>
        <pt x="257" y="42" on="1"/>
        <pt x="209" y="42" on="0"/>
        <pt x="175" y="91" on="0"/>
        <pt x="175" y="191" on="1"/>
        <pt x="175" y="330" on="1"/>
        <pt x="193" y="1038" on="1"/>
        <pt x="192" y="1073" on="1"/>
        <pt x="191" y="1108" on="0"/>
        <pt x="191" y="1143" on="1"/>
        <pt x="189" y="1178" on="1"/>
        <pt x="186" y="1276" on="1"/>
        <pt x="186" y="1335" on="0"/>
      </contour>
    </TTGlyph>
    <TTGlyph name="I" xMin="171" yMin="10" xMax="448" yMax="1402">
      <contour>
        <pt x="174" y="1278" on="1"/>
        <pt x="174" y="1402" on="0"/>
        <pt x="303" y="1402" on="1"/>
        <pt x="336" y="1402" on="1"/>
        <pt x="382" y="1402" on="0"/>
        <pt x="448" y="1324" on="0"/>
        <pt x="448" y="1271" on="1"/>
        <pt x="448" y="1256" on="1"/>
        <pt x="448" y="1253" on="0"/>
        <pt x="438" y="1188" on="1"/>
        <pt x="433" y="1160" on="1"/>
        <pt x="419" y="1062" on="0"/>
        <pt x="419" y="944" on="1"/>
        <pt x="417" y="907" on="1"/>
        <pt x="416" y="852" on="1"/>
        <pt x="416" y="722" on="1"/>
        <pt x="415" y="667" on="1"/>
        <pt x="415" y="649" on="0"/>
        <pt x="415" y="631" on="1"/>
        <pt x="414" y="613" on="1"/>
        <pt x="414" y="490" on="1"/>
        <pt x="411" y="372" on="1"/>
        <pt x="411" y="339" on="1"/>
        <pt x="411" y="287" on="0"/>
        <pt x="435" y="175" on="0"/>
        <pt x="435" y="74" on="0"/>
        <pt x="374" y="10" on="0"/>
        <pt x="315" y="10" on="1"/>
        <pt x="299" y="10" on="1"/>
        <pt x="171" y="10" on="0"/>
        <pt x="171" y="138" on="1"/>
        <pt x="171" y="155" on="1"/>
        <pt x="172" y="195" on="0"/>
        <pt x="190" y="260" on="1"/>
        <pt x="227" y="389" on="0"/>
        <pt x="227" y="719" on="1"/>
        <pt x="227" y="728" on="0"/>
        <pt x="227" y="737" on="1"/>
        <pt x="229" y="792" on="1"/>
        <pt x="229" y="819" on="0"/>
        <pt x="229" y="846" on="1"/>
        <pt x="227" y="899" on="1"/>
        <pt x="225" y="968" on="1"/>
        <pt x="225" y="1078" on="0"/>
        <pt x="174" y="1243" on="0"/>
      </contour>
    </TTGlyph>
    <TTGlyph name="Iacute" xMin="164" yMin="45" xMax="523" yMax="1843">
      <contour>
        <pt x="523" y="1803" on="1"/>
        <pt x="523" y="1789" on="1"/>
        <pt x="523" y="1734" on="0"/>
        <pt x="327" y="1562" on="1"/>
        <pt x="260" y="1503" on="0"/>
        <pt x="211" y="1503" on="1"/>
        <pt x="207" y="1504" on="1"/>
        <pt x="169" y="1504" on="0"/>
        <pt x="169" y="1530" on="1"/>
        <pt x="169" y="1545" on="1"/>
        <pt x="169" y="1622" on="0"/>
        <pt x="335" y="1788" on="1"/>
        <pt x="390" y="1843" on="0"/>
        <pt x="449" y="1843" on="1"/>
        <pt x="470" y="1843" on="1"/>
        <pt x="523" y="1843" on="0"/>
      </contour>
      <contour>
        <pt x="295" y="45" on="1"/>
        <pt x="262" y="45" on="1"/>
        <pt x="214" y="45" on="0"/>
        <pt x="199" y="67" on="1"/>
        <pt x="168" y="111" on="0"/>
        <pt x="168" y="202" on="1"/>
        <pt x="168" y="230" on="0"/>
        <pt x="200" y="362" on="0"/>
        <pt x="201" y="489" on="1"/>
        <pt x="201" y="907" on="1"/>
        <pt x="199" y="973" on="1"/>
        <pt x="199" y="1006" on="1"/>
        <pt x="198" y="1039" on="1"/>
        <pt x="198" y="1115" on="0"/>
        <pt x="164" y="1268" on="0"/>
        <pt x="164" y="1286" on="1"/>
        <pt x="164" y="1302" on="1"/>
        <pt x="164" y="1370" on="0"/>
        <pt x="220" y="1423" on="0"/>
        <pt x="313" y="1423" on="1"/>
        <pt x="329" y="1423" on="1"/>
        <pt x="412" y="1423" on="0"/>
        <pt x="412" y="1260" on="1"/>
        <pt x="412" y="1239" on="0"/>
        <pt x="388" y="1127" on="0"/>
        <pt x="387" y="1001" on="1"/>
        <pt x="387" y="523" on="1"/>
        <pt x="386" y="489" on="1"/>
        <pt x="386" y="438" on="1"/>
        <pt x="386" y="349" on="0"/>
        <pt x="419" y="217" on="0"/>
        <pt x="419" y="96" on="0"/>
        <pt x="362" y="45" on="0"/>
      </contour>
    </TTGlyph>
    <TTGlyph name="Icircumflex" xMin="14" yMin="30" xMax="579" yMax="1842">
      <contour>
        <pt x="14" y="1550" on="1"/>
        <pt x="14" y="1562" on="1"/>
        <pt x="14" y="1576" on="0"/>
        <pt x="49" y="1614" on="0"/>
        <pt x="70" y="1639" on="1"/>
        <pt x="175" y="1768" on="1"/>
        <pt x="238" y="1842" on="0"/>
        <pt x="298" y="1842" on="1"/>
        <pt x="306" y="1841" on="1"/>
        <pt x="314" y="1841" on="1"/>
        <pt x="364" y="1841" on="0"/>
        <pt x="446" y="1734" on="1"/>
        <pt x="579" y="1561" on="0"/>
        <pt x="579" y="1553" on="1"/>
        <pt x="579" y="1523" on="0"/>
        <pt x="511" y="1523" on="1"/>
        <pt x="503" y="1523" on="1"/>
        <pt x="503" y="1523" on="0"/>
        <pt x="502" y="1523" on="1"/>
        <pt x="441" y="1523" on="0"/>
        <pt x="328" y="1660" on="1"/>
        <pt x="304" y="1690" on="0"/>
        <pt x="293" y="1690" on="0"/>
        <pt x="192" y="1589" on="1"/>
        <pt x="127" y="1524" on="0"/>
        <pt x="14" y="1524" on="0"/>
      </contour>
      <contour>
        <pt x="295" y="30" on="1"/>
        <pt x="262" y="30" on="1"/>
        <pt x="214" y="30" on="0"/>
        <pt x="199" y="53" on="1"/>
        <pt x="169" y="98" on="0"/>
        <pt x="169" y="172" on="1"/>
        <pt x="169" y="190" on="0"/>
        <pt x="202" y="345" on="0"/>
        <pt x="202" y="406" on="1"/>
        <pt x="202" y="483" on="1"/>
        <pt x="201" y="518" on="1"/>
        <pt x="201" y="561" on="0"/>
        <pt x="201" y="604" on="1"/>
        <pt x="200" y="638" on="1"/>
        <pt x="200" y="898" on="1"/>
        <pt x="199" y="931" on="1"/>
        <pt x="199" y="948" on="0"/>
        <pt x="199" y="965" on="1"/>
        <pt x="197" y="1031" on="1"/>
        <pt x="197" y="1103" on="0"/>
        <pt x="163" y="1257" on="0"/>
        <pt x="163" y="1280" on="1"/>
        <pt x="163" y="1312" on="1"/>
        <pt x="163" y="1380" on="0"/>
        <pt x="239" y="1417" on="0"/>
        <pt x="315" y="1417" on="1"/>
        <pt x="330" y="1417" on="1"/>
        <pt x="366" y="1417" on="0"/>
        <pt x="413" y="1342" on="0"/>
        <pt x="413" y="1253" on="0"/>
        <pt x="389" y="1124" on="0"/>
        <pt x="389" y="1061" on="1"/>
        <pt x="389" y="800" on="1"/>
        <pt x="390" y="749" on="1"/>
        <pt x="390" y="593" on="1"/>
        <pt x="389" y="558" on="1"/>
        <pt x="389" y="421" on="1"/>
        <pt x="389" y="341" on="0"/>
        <pt x="421" y="187" on="0"/>
        <pt x="421" y="180" on="1"/>
        <pt x="421" y="148" on="1"/>
        <pt x="421" y="78" on="0"/>
        <pt x="361" y="30" on="0"/>
      </contour>
    </TTGlyph>
    <TTGlyph name="Idieresis" xMin="11" yMin="49" xMax="566" yMax="1783">
      <contour>
        <pt x="109" y="1775" on="1"/>
        <pt x="147" y="1775" on="0"/>
        <pt x="195" y="1727" on="0"/>
        <pt x="195" y="1675" on="1"/>
        <pt x="195" y="1635" on="1"/>
        <pt x="192" y="1616" on="1"/>
        <pt x="188" y="1594" on="1"/>
        <pt x="188" y="1539" on="0"/>
        <pt x="126" y="1539" on="1"/>
        <pt x="120" y="1537" on="0"/>
        <pt x="117" y="1537" on="1"/>
        <pt x="102" y="1535" on="1"/>
        <pt x="97" y="1535" on="1"/>
        <pt x="16" y="1535" on="0"/>
        <pt x="16" y="1609" on="1"/>
        <pt x="14" y="1617" on="1"/>
        <pt x="11" y="1644" on="1"/>
        <pt x="11" y="1671" on="1"/>
        <pt x="12" y="1675" on="1"/>
        <pt x="12" y="1679" on="0"/>
        <pt x="12" y="1683" on="1"/>
        <pt x="18" y="1716" on="1"/>
        <pt x="18" y="1772" on="0"/>
        <pt x="83" y="1772" on="1"/>
        <pt x="101" y="1775" on="1"/>
      </contour>
      <contour>
        <pt x="466" y="1783" on="1"/>
        <pt x="479" y="1783" on="1"/>
        <pt x="562" y="1783" on="0"/>
        <pt x="562" y="1721" on="1"/>
        <pt x="564" y="1713" on="0"/>
        <pt x="564" y="1710" on="1"/>
        <pt x="566" y="1693" on="1"/>
        <pt x="566" y="1667" on="1"/>
        <pt x="566" y="1624" on="0"/>
        <pt x="528" y="1577" on="0"/>
        <pt x="476" y="1577" on="1"/>
        <pt x="455" y="1577" on="1"/>
        <pt x="377" y="1577" on="0"/>
        <pt x="377" y="1636" on="1"/>
        <pt x="376" y="1640" on="1"/>
        <pt x="375" y="1643" on="1"/>
        <pt x="372" y="1671" on="1"/>
        <pt x="372" y="1693" on="1"/>
        <pt x="376" y="1721" on="1"/>
        <pt x="376" y="1783" on="0"/>
      </contour>
      <contour>
        <pt x="164" y="1290" on="1"/>
        <pt x="164" y="1305" on="1"/>
        <pt x="164" y="1372" on="0"/>
        <pt x="221" y="1426" on="0"/>
        <pt x="297" y="1426" on="1"/>
        <pt x="329" y="1426" on="1"/>
        <pt x="409" y="1426" on="0"/>
        <pt x="409" y="1276" on="1"/>
        <pt x="409" y="1254" on="0"/>
        <pt x="383" y="1140" on="0"/>
        <pt x="383" y="1073" on="1"/>
        <pt x="383" y="972" on="1"/>
        <pt x="384" y="937" on="1"/>
        <pt x="384" y="456" on="1"/>
        <pt x="384" y="353" on="0"/>
        <pt x="418" y="221" on="0"/>
        <pt x="418" y="200" on="1"/>
        <pt x="418" y="168" on="1"/>
        <pt x="418" y="100" on="0"/>
        <pt x="361" y="49" on="0"/>
        <pt x="294" y="49" on="1"/>
        <pt x="261" y="49" on="1"/>
        <pt x="213" y="49" on="0"/>
        <pt x="198" y="72" on="1"/>
        <pt x="170" y="114" on="0"/>
        <pt x="170" y="223" on="0"/>
        <pt x="202" y="351" on="0"/>
        <pt x="202" y="400" on="1"/>
        <pt x="204" y="433" on="1"/>
        <pt x="204" y="862" on="1"/>
        <pt x="201" y="996" on="1"/>
        <pt x="197" y="1093" on="1"/>
        <pt x="197" y="1133" on="0"/>
        <pt x="164" y="1255" on="0"/>
      </contour>
    </TTGlyph>
    <TTGlyph name="Igrave" xMin="57" yMin="31" xMax="416" yMax="1849">
      <contour>
        <pt x="136" y="1848" on="1"/>
        <pt x="204" y="1848" on="0"/>
        <pt x="257" y="1787" on="1"/>
        <pt x="416" y="1605" on="0"/>
        <pt x="416" y="1550" on="1"/>
        <pt x="416" y="1518" on="0"/>
        <pt x="379" y="1518" on="1"/>
        <pt x="355" y="1518" on="1"/>
        <pt x="341" y="1521" on="0"/>
        <pt x="336" y="1521" on="1"/>
        <pt x="319" y="1521" on="0"/>
        <pt x="57" y="1751" on="0"/>
        <pt x="57" y="1796" on="1"/>
        <pt x="57" y="1801" on="1"/>
        <pt x="58" y="1806" on="1"/>
        <pt x="58" y="1847" on="0"/>
        <pt x="113" y="1847" on="1"/>
        <pt x="122" y="1849" on="1"/>
        <pt x="127" y="1848" on="1"/>
      </contour>
      <contour>
        <pt x="165" y="176" on="1"/>
        <pt x="165" y="179" on="0"/>
        <pt x="197" y="365" on="0"/>
        <pt x="197" y="410" on="1"/>
        <pt x="197" y="523" on="1"/>
        <pt x="196" y="558" on="1"/>
        <pt x="196" y="834" on="1"/>
        <pt x="191" y="1018" on="1"/>
        <pt x="190" y="1035" on="0"/>
        <pt x="190" y="1102" on="0"/>
        <pt x="157" y="1250" on="0"/>
        <pt x="157" y="1284" on="1"/>
        <pt x="157" y="1300" on="1"/>
        <pt x="157" y="1368" on="0"/>
        <pt x="219" y="1420" on="0"/>
        <pt x="308" y="1420" on="1"/>
        <pt x="324" y="1420" on="1"/>
        <pt x="362" y="1420" on="0"/>
        <pt x="378" y="1390" on="1"/>
        <pt x="405" y="1340" on="0"/>
        <pt x="405" y="1260" on="0"/>
        <pt x="380" y="1120" on="0"/>
        <pt x="380" y="1030" on="1"/>
        <pt x="381" y="996" on="1"/>
        <pt x="381" y="961" on="1"/>
        <pt x="382" y="927" on="1"/>
        <pt x="382" y="788" on="1"/>
        <pt x="383" y="737" on="1"/>
        <pt x="383" y="737" on="0"/>
        <pt x="383" y="474" on="1"/>
        <pt x="383" y="358" on="0"/>
        <pt x="416" y="197" on="0"/>
        <pt x="416" y="167" on="1"/>
        <pt x="416" y="151" on="1"/>
        <pt x="416" y="80" on="0"/>
        <pt x="355" y="31" on="0"/>
        <pt x="290" y="31" on="1"/>
        <pt x="273" y="31" on="1"/>
        <pt x="210" y="31" on="0"/>
        <pt x="194" y="55" on="1"/>
        <pt x="165" y="99" on="0"/>
      </contour>
    </TTGlyph>
    <TTGlyph name="J" xMin="61" yMin="-51" xMax="779" yMax="1412">
      <contour>
        <pt x="139" y="197" on="1"/>
        <pt x="141" y="197" on="0"/>
        <pt x="268" y="147" on="0"/>
        <pt x="361" y="147" on="0"/>
        <pt x="462" y="225" on="0"/>
        <pt x="490" y="284" on="1"/>
        <pt x="554" y="416" on="0"/>
        <pt x="554" y="701" on="1"/>
        <pt x="554" y="881" on="0"/>
        <pt x="465" y="1293" on="0"/>
        <pt x="465" y="1298" on="1"/>
        <pt x="465" y="1354" on="0"/>
        <pt x="544" y="1412" on="0"/>
        <pt x="596" y="1412" on="1"/>
        <pt x="617" y="1412" on="1"/>
        <pt x="673" y="1412" on="0"/>
        <pt x="779" y="1232" on="0"/>
        <pt x="779" y="1151" on="1"/>
        <pt x="779" y="1130" on="1"/>
        <pt x="779" y="1121" on="0"/>
        <pt x="750" y="802" on="0"/>
        <pt x="750" y="730" on="1"/>
        <pt x="750" y="333" on="0"/>
        <pt x="674" y="164" on="1"/>
        <pt x="627" y="59" on="0"/>
        <pt x="451" y="-51" on="0"/>
        <pt x="365" y="-51" on="1"/>
        <pt x="323" y="-51" on="1"/>
        <pt x="220" y="-51" on="0"/>
        <pt x="61" y="60" on="0"/>
        <pt x="61" y="197" on="0"/>
      </contour>
    </TTGlyph>
    <TTGlyph name="K" xMin="187" yMin="27" xMax="1127" yMax="1376">
      <contour>
        <pt x="274" y="1376" on="1"/>
        <pt x="332" y="1376" on="0"/>
        <pt x="357" y="1282" on="1"/>
        <pt x="370" y="1235" on="0"/>
        <pt x="380" y="1104" on="1"/>
        <pt x="382" y="1073" on="1"/>
        <pt x="384" y="1010" on="1"/>
        <pt x="388" y="935" on="0"/>
        <pt x="406" y="845" on="0"/>
        <pt x="482" y="845" on="0"/>
        <pt x="845" y="1279" on="0"/>
        <pt x="944" y="1363" on="0"/>
        <pt x="1013" y="1363" on="1"/>
        <pt x="1047" y="1363" on="0"/>
        <pt x="1047" y="1341" on="1"/>
        <pt x="1047" y="1310" on="0"/>
        <pt x="696" y="840" on="0"/>
        <pt x="696" y="744" on="0"/>
        <pt x="1001" y="253" on="0"/>
        <pt x="1027" y="215" on="0"/>
        <pt x="1127" y="86" on="0"/>
        <pt x="1127" y="69" on="1"/>
        <pt x="1127" y="50" on="1"/>
        <pt x="1127" y="27" on="0"/>
        <pt x="1011" y="27" on="0"/>
        <pt x="884" y="157" on="0"/>
        <pt x="698" y="454" on="0"/>
        <pt x="567" y="600" on="0"/>
        <pt x="441" y="600" on="0"/>
        <pt x="395" y="478" on="1"/>
        <pt x="374" y="424" on="0"/>
        <pt x="356" y="173" on="0"/>
        <pt x="317" y="42" on="0"/>
        <pt x="267" y="42" on="1"/>
        <pt x="225" y="42" on="0"/>
        <pt x="187" y="92" on="0"/>
        <pt x="187" y="179" on="1"/>
        <pt x="187" y="213" on="1"/>
        <pt x="187" y="229" on="0"/>
        <pt x="196" y="387" on="0"/>
        <pt x="196" y="601" on="1"/>
        <pt x="192" y="849" on="1"/>
        <pt x="189" y="953" on="1"/>
        <pt x="189" y="1054" on="1"/>
        <pt x="192" y="1216" on="1"/>
        <pt x="192" y="1297" on="0"/>
        <pt x="223" y="1376" on="0"/>
      </contour>
    </TTGlyph>
    <TTGlyph name="L" xMin="161" yMin="4" xMax="991" yMax="1403">
      <contour>
        <pt x="991" y="126" on="0"/>
        <pt x="991" y="36" on="0"/>
        <pt x="959" y="23" on="1"/>
        <pt x="911" y="4" on="0"/>
        <pt x="766" y="4" on="1"/>
        <pt x="606" y="4" on="1"/>
        <pt x="583" y="5" on="1"/>
        <pt x="249" y="5" on="0"/>
        <pt x="161" y="67" on="0"/>
        <pt x="161" y="278" on="1"/>
        <pt x="161" y="390" on="1"/>
        <pt x="162" y="412" on="1"/>
        <pt x="165" y="570" on="1"/>
        <pt x="165" y="705" on="1"/>
        <pt x="166" y="772" on="1"/>
        <pt x="166" y="1321" on="0"/>
        <pt x="169" y="1341" on="1"/>
        <pt x="178" y="1403" on="0"/>
        <pt x="250" y="1403" on="1"/>
        <pt x="298" y="1403" on="0"/>
        <pt x="341" y="1367" on="0"/>
        <pt x="354" y="1283" on="0"/>
        <pt x="354" y="294" on="0"/>
        <pt x="388" y="224" on="1"/>
        <pt x="408" y="183" on="0"/>
        <pt x="535" y="160" on="0"/>
        <pt x="678" y="160" on="1"/>
        <pt x="883" y="166" on="1"/>
        <pt x="945" y="166" on="0"/>
      </contour>
    </TTGlyph>
    <TTGlyph name="Lslash" xMin="78" yMin="-3" xMax="1008" yMax="1388">
      <contour>
        <pt x="639" y="932" on="1"/>
        <pt x="679" y="932" on="0"/>
        <pt x="679" y="830" on="0"/>
        <pt x="472" y="680" on="0"/>
        <pt x="445" y="626" on="1"/>
        <pt x="403" y="542" on="0"/>
        <pt x="403" y="328" on="1"/>
        <pt x="403" y="200" on="0"/>
        <pt x="481" y="165" on="1"/>
        <pt x="521" y="147" on="0"/>
        <pt x="927" y="147" on="0"/>
        <pt x="1008" y="116" on="0"/>
        <pt x="1008" y="58" on="1"/>
        <pt x="1008" y="23" on="0"/>
        <pt x="895" y="-3" on="0"/>
        <pt x="794" y="-3" on="1"/>
        <pt x="520" y="-3" on="1"/>
        <pt x="292" y="-3" on="0"/>
        <pt x="209" y="64" on="0"/>
        <pt x="209" y="265" on="1"/>
        <pt x="209" y="343" on="1"/>
        <pt x="208" y="368" on="0"/>
        <pt x="208" y="426" on="1"/>
        <pt x="208" y="522" on="0"/>
        <pt x="161" y="534" on="1"/>
        <pt x="120" y="540" on="0"/>
        <pt x="116" y="541" on="1"/>
        <pt x="78" y="554" on="0"/>
        <pt x="78" y="636" on="0"/>
        <pt x="184" y="806" on="0"/>
        <pt x="211" y="911" on="0"/>
        <pt x="211" y="1211" on="0"/>
        <pt x="233" y="1326" on="1"/>
        <pt x="245" y="1388" on="0"/>
        <pt x="283" y="1388" on="1"/>
        <pt x="360" y="1388" on="0"/>
        <pt x="384" y="1309" on="1"/>
        <pt x="397" y="1266" on="0"/>
        <pt x="397" y="933" on="0"/>
        <pt x="416" y="877" on="0"/>
        <pt x="485" y="877" on="0"/>
        <pt x="616" y="932" on="0"/>
      </contour>
    </TTGlyph>
    <TTGlyph name="M" xMin="164" yMin="71" xMax="1473" yMax="1342">
      <contour>
        <pt x="1420" y="71" on="1"/>
        <pt x="1420" y="71" on="0"/>
        <pt x="1419" y="71" on="1"/>
        <pt x="1352" y="71" on="0"/>
        <pt x="1326" y="216" on="1"/>
        <pt x="1315" y="278" on="0"/>
        <pt x="1271" y="991" on="0"/>
        <pt x="1247" y="991" on="1"/>
        <pt x="1210" y="991" on="0"/>
        <pt x="1101" y="745" on="1"/>
        <pt x="926" y="349" on="0"/>
        <pt x="902" y="313" on="1"/>
        <pt x="857" y="246" on="0"/>
        <pt x="757" y="246" on="0"/>
        <pt x="719" y="314" on="1"/>
        <pt x="702" y="345" on="0"/>
        <pt x="648" y="487" on="1"/>
        <pt x="562" y="715" on="1"/>
        <pt x="453" y="988" on="0"/>
        <pt x="397" y="988" on="0"/>
        <pt x="344" y="633" on="1"/>
        <pt x="323" y="495" on="0"/>
        <pt x="297" y="260" on="0"/>
        <pt x="283" y="201" on="1"/>
        <pt x="260" y="100" on="0"/>
        <pt x="206" y="100" on="1"/>
        <pt x="164" y="100" on="0"/>
        <pt x="164" y="232" on="0"/>
        <pt x="182" y="385" on="0"/>
        <pt x="208" y="1017" on="0"/>
        <pt x="208" y="1164" on="1"/>
        <pt x="208" y="1335" on="0"/>
        <pt x="326" y="1335" on="1"/>
        <pt x="385" y="1335" on="0"/>
        <pt x="458" y="1225" on="1"/>
        <pt x="496" y="1169" on="0"/>
        <pt x="805" y="600" on="0"/>
        <pt x="832" y="600" on="0"/>
        <pt x="1108" y="1106" on="0"/>
        <pt x="1172" y="1202" on="1"/>
        <pt x="1266" y="1342" on="0"/>
        <pt x="1336" y="1342" on="1"/>
        <pt x="1423" y="1342" on="0"/>
        <pt x="1450" y="1232" on="1"/>
        <pt x="1466" y="1166" on="0"/>
        <pt x="1466" y="953" on="1"/>
        <pt x="1468" y="852" on="1"/>
        <pt x="1468" y="802" on="0"/>
        <pt x="1468" y="752" on="1"/>
        <pt x="1460" y="410" on="1"/>
        <pt x="1460" y="364" on="0"/>
        <pt x="1464" y="279" on="1"/>
        <pt x="1469" y="196" on="1"/>
        <pt x="1473" y="156" on="1"/>
        <pt x="1473" y="71" on="0"/>
      </contour>
    </TTGlyph>
    <TTGlyph name="N" xMin="169" yMin="51" xMax="1222" yMax="1328">
      <contour>
        <pt x="222" y="1328" on="0"/>
        <pt x="323" y="1328" on="0"/>
        <pt x="378" y="1279" on="1"/>
        <pt x="536" y="1138" on="0"/>
        <pt x="971" y="450" on="0"/>
        <pt x="1007" y="450" on="1"/>
        <pt x="1037" y="450" on="0"/>
        <pt x="1067" y="1148" on="0"/>
        <pt x="1102" y="1327" on="0"/>
        <pt x="1161" y="1327" on="1"/>
        <pt x="1192" y="1327" on="0"/>
        <pt x="1222" y="1284" on="0"/>
        <pt x="1222" y="1203" on="1"/>
        <pt x="1222" y="1166" on="1"/>
        <pt x="1208" y="895" on="1"/>
        <pt x="1199" y="719" on="0"/>
        <pt x="1199" y="625" on="1"/>
        <pt x="1198" y="587" on="1"/>
        <pt x="1197" y="549" on="0"/>
        <pt x="1197" y="279" on="0"/>
        <pt x="1179" y="147" on="1"/>
        <pt x="1169" y="71" on="0"/>
        <pt x="1113" y="71" on="1"/>
        <pt x="1035" y="71" on="0"/>
        <pt x="956" y="177" on="1"/>
        <pt x="877" y="282" on="0"/>
        <pt x="754" y="504" on="1"/>
        <pt x="453" y="1046" on="0"/>
        <pt x="382" y="1046" on="1"/>
        <pt x="370" y="1046" on="0"/>
        <pt x="304" y="163" on="0"/>
        <pt x="303" y="157" on="1"/>
        <pt x="283" y="51" on="0"/>
        <pt x="169" y="51" on="0"/>
        <pt x="169" y="122" on="1"/>
        <pt x="169" y="192" on="1"/>
        <pt x="193" y="1061" on="1"/>
        <pt x="189" y="1213" on="1"/>
        <pt x="189" y="1282" on="0"/>
      </contour>
    </TTGlyph>
    <TTGlyph name="Nacute" xMin="176" yMin="48" xMax="1210" yMax="1889">
      <contour>
        <pt x="644" y="1567" on="1"/>
        <pt x="618" y="1567" on="1"/>
        <pt x="578" y="1567" on="0"/>
        <pt x="578" y="1600" on="1"/>
        <pt x="578" y="1605" on="1"/>
        <pt x="578" y="1679" on="0"/>
        <pt x="749" y="1829" on="1"/>
        <pt x="818" y="1889" on="0"/>
        <pt x="887" y="1889" on="1"/>
        <pt x="897" y="1889" on="1"/>
        <pt x="969" y="1889" on="0"/>
        <pt x="969" y="1841" on="1"/>
        <pt x="969" y="1837" on="1"/>
        <pt x="969" y="1791" on="0"/>
        <pt x="866" y="1711" on="1"/>
        <pt x="681" y="1567" on="0"/>
      </contour>
      <contour>
        <pt x="346" y="1111" on="0"/>
        <pt x="346" y="260" on="0"/>
        <pt x="321" y="115" on="0"/>
        <pt x="284" y="48" on="0"/>
        <pt x="212" y="48" on="0"/>
        <pt x="201" y="72" on="1"/>
        <pt x="176" y="126" on="0"/>
        <pt x="176" y="349" on="1"/>
        <pt x="177" y="389" on="1"/>
        <pt x="178" y="430" on="0"/>
        <pt x="178" y="471" on="1"/>
        <pt x="179" y="512" on="1"/>
        <pt x="179" y="842" on="1"/>
        <pt x="179" y="1247" on="0"/>
        <pt x="186" y="1284" on="1"/>
        <pt x="201" y="1361" on="0"/>
        <pt x="289" y="1361" on="1"/>
        <pt x="336" y="1361" on="0"/>
        <pt x="460" y="1222" on="0"/>
        <pt x="650" y="975" on="0"/>
        <pt x="837" y="744" on="0"/>
        <pt x="1016" y="503" on="0"/>
        <pt x="1020" y="503" on="1"/>
        <pt x="1066" y="503" on="0"/>
        <pt x="1066" y="848" on="1"/>
        <pt x="1068" y="914" on="1"/>
        <pt x="1069" y="1010" on="1"/>
        <pt x="1069" y="1184" on="0"/>
        <pt x="1103" y="1305" on="0"/>
        <pt x="1151" y="1305" on="1"/>
        <pt x="1210" y="1305" on="0"/>
        <pt x="1210" y="1222" on="1"/>
        <pt x="1210" y="1183" on="1"/>
        <pt x="1208" y="1102" on="1"/>
        <pt x="1207" y="980" on="1"/>
        <pt x="1207" y="902" on="0"/>
        <pt x="1187" y="685" on="0"/>
        <pt x="1187" y="570" on="1"/>
        <pt x="1188" y="504" on="1"/>
        <pt x="1189" y="470" on="1"/>
        <pt x="1189" y="339" on="1"/>
        <pt x="1189" y="183" on="0"/>
        <pt x="1171" y="115" on="0"/>
        <pt x="1071" y="115" on="0"/>
        <pt x="945" y="268" on="0"/>
        <pt x="774" y="570" on="0"/>
        <pt x="708" y="670" on="1"/>
        <pt x="506" y="975" on="0"/>
        <pt x="385" y="1096" on="1"/>
        <pt x="366" y="1111" on="1"/>
      </contour>
    </TTGlyph>
    <TTGlyph name="Ntilde" xMin="168" yMin="73" xMax="1185" yMax="1777">
      <contour>
        <pt x="843" y="1548" on="1"/>
        <pt x="819" y="1548" on="1"/>
        <pt x="765" y="1548" on="0"/>
        <pt x="600" y="1658" on="0"/>
        <pt x="515" y="1658" on="0"/>
        <pt x="423" y="1558" on="0"/>
        <pt x="365" y="1558" on="0"/>
        <pt x="365" y="1587" on="1"/>
        <pt x="365" y="1594" on="1"/>
        <pt x="365" y="1650" on="0"/>
        <pt x="473" y="1777" on="0"/>
        <pt x="519" y="1777" on="1"/>
        <pt x="543" y="1777" on="1"/>
        <pt x="586" y="1777" on="0"/>
        <pt x="783" y="1666" on="0"/>
        <pt x="849" y="1666" on="0"/>
        <pt x="940" y="1765" on="0"/>
        <pt x="998" y="1765" on="0"/>
        <pt x="998" y="1737" on="1"/>
        <pt x="998" y="1730" on="1"/>
        <pt x="998" y="1672" on="0"/>
        <pt x="884" y="1548" on="0"/>
      </contour>
      <contour>
        <pt x="200" y="1354" on="0"/>
        <pt x="325" y="1354" on="0"/>
        <pt x="499" y="1146" on="0"/>
        <pt x="994" y="475" on="0"/>
        <pt x="999" y="475" on="1"/>
        <pt x="1032" y="475" on="0"/>
        <pt x="1032" y="1185" on="0"/>
        <pt x="1056" y="1269" on="1"/>
        <pt x="1071" y="1320" on="0"/>
        <pt x="1123" y="1320" on="1"/>
        <pt x="1153" y="1320" on="0"/>
        <pt x="1185" y="1273" on="0"/>
        <pt x="1185" y="1065" on="0"/>
        <pt x="1161" y="695" on="0"/>
        <pt x="1161" y="180" on="0"/>
        <pt x="1143" y="112" on="0"/>
        <pt x="1034" y="112" on="0"/>
        <pt x="960" y="211" on="1"/>
        <pt x="912" y="275" on="0"/>
        <pt x="726" y="592" on="0"/>
        <pt x="668" y="681" on="1"/>
        <pt x="393" y="1106" on="0"/>
        <pt x="344" y="1106" on="1"/>
        <pt x="329" y="1106" on="0"/>
        <pt x="329" y="812" on="1"/>
        <pt x="325" y="571" on="1"/>
        <pt x="323" y="376" on="1"/>
        <pt x="323" y="191" on="0"/>
        <pt x="281" y="73" on="0"/>
        <pt x="242" y="73" on="1"/>
        <pt x="215" y="73" on="1"/>
        <pt x="175" y="73" on="0"/>
        <pt x="175" y="230" on="1"/>
        <pt x="173" y="265" on="1"/>
        <pt x="171" y="312" on="0"/>
        <pt x="171" y="338" on="1"/>
        <pt x="173" y="499" on="1"/>
        <pt x="173" y="540" on="0"/>
        <pt x="173" y="581" on="1"/>
        <pt x="174" y="662" on="1"/>
        <pt x="174" y="1109" on="1"/>
        <pt x="168" y="1263" on="1"/>
        <pt x="168" y="1305" on="0"/>
      </contour>
    </TTGlyph>
    <TTGlyph name="O" xMin="126" yMin="-14" xMax="1226" yMax="1415">
      <contour>
        <pt x="300" y="698" on="1"/>
        <pt x="300" y="648" on="1"/>
        <pt x="300" y="404" on="0"/>
        <pt x="399" y="271" on="1"/>
        <pt x="498" y="137" on="0"/>
        <pt x="653" y="137" on="1"/>
        <pt x="668" y="137" on="1"/>
        <pt x="840" y="137" on="0"/>
        <pt x="938" y="299" on="1"/>
        <pt x="1022" y="439" on="0"/>
        <pt x="1022" y="692" on="1"/>
        <pt x="1022" y="760" on="1"/>
        <pt x="1022" y="867" on="0"/>
        <pt x="962" y="1086" on="0"/>
        <pt x="922" y="1146" on="1"/>
        <pt x="839" y="1271" on="0"/>
        <pt x="688" y="1271" on="1"/>
        <pt x="686" y="1271" on="1"/>
        <pt x="655" y="1271" on="1"/>
        <pt x="584" y="1270" on="0"/>
        <pt x="510" y="1224" on="1"/>
        <pt x="300" y="1094" on="0"/>
      </contour>
      <contour>
        <pt x="1226" y="736" on="1"/>
        <pt x="1226" y="692" on="1"/>
        <pt x="1226" y="542" on="0"/>
        <pt x="1188" y="404" on="1"/>
        <pt x="1117" y="148" on="0"/>
        <pt x="910" y="43" on="1"/>
        <pt x="796" y="-14" on="0"/>
        <pt x="671" y="-14" on="1"/>
        <pt x="649" y="-14" on="1"/>
        <pt x="414" y="-14" on="0"/>
        <pt x="263" y="166" on="1"/>
        <pt x="197" y="245" on="0"/>
        <pt x="126" y="504" on="0"/>
        <pt x="126" y="629" on="1"/>
        <pt x="126" y="695" on="1"/>
        <pt x="126" y="834" on="0"/>
        <pt x="168" y="984" on="1"/>
        <pt x="242" y="1254" on="0"/>
        <pt x="435" y="1359" on="1"/>
        <pt x="538" y="1415" on="0"/>
        <pt x="662" y="1415" on="1"/>
        <pt x="684" y="1415" on="1"/>
        <pt x="818" y="1414" on="0"/>
        <pt x="920" y="1362" on="1"/>
        <pt x="1226" y="1206" on="0"/>
      </contour>
    </TTGlyph>
    <TTGlyph name="OE" xMin="132" yMin="6" xMax="1696" yMax="1403">
      <contour>
        <pt x="703" y="1269" on="1"/>
        <pt x="673" y="1269" on="1"/>
        <pt x="598" y="1269" on="0"/>
        <pt x="453" y="1188" on="0"/>
        <pt x="366" y="1053" on="0"/>
        <pt x="303" y="823" on="0"/>
        <pt x="303" y="670" on="1"/>
        <pt x="303" y="654" on="1"/>
        <pt x="303" y="650" on="0"/>
        <pt x="303" y="645" on="1"/>
        <pt x="303" y="524" on="0"/>
        <pt x="330" y="432" on="1"/>
        <pt x="412" y="144" on="0"/>
        <pt x="664" y="143" on="1"/>
        <pt x="679" y="144" on="1"/>
        <pt x="694" y="144" on="1"/>
        <pt x="827" y="144" on="0"/>
        <pt x="872" y="241" on="1"/>
        <pt x="930" y="368" on="0"/>
        <pt x="930" y="642" on="1"/>
        <pt x="932" y="674" on="1"/>
        <pt x="933" y="738" on="1"/>
        <pt x="933" y="817" on="1"/>
        <pt x="933" y="1090" on="0"/>
        <pt x="877" y="1193" on="1"/>
        <pt x="836" y="1269" on="0"/>
      </contour>
      <contour>
        <pt x="1696" y="103" on="1"/>
        <pt x="1696" y="18" on="0"/>
        <pt x="1404" y="18" on="1"/>
        <pt x="1262" y="18" on="0"/>
        <pt x="1038" y="48" on="0"/>
        <pt x="957" y="48" on="0"/>
        <pt x="753" y="6" on="0"/>
        <pt x="655" y="6" on="1"/>
        <pt x="428" y="6" on="0"/>
        <pt x="132" y="329" on="0"/>
        <pt x="132" y="645" on="1"/>
        <pt x="132" y="688" on="1"/>
        <pt x="132" y="1206" on="0"/>
        <pt x="457" y="1355" on="1"/>
        <pt x="562" y="1403" on="0"/>
        <pt x="680" y="1403" on="1"/>
        <pt x="719" y="1403" on="1"/>
        <pt x="775" y="1403" on="0"/>
        <pt x="1022" y="1359" on="0"/>
        <pt x="1071" y="1359" on="0"/>
        <pt x="1206" y="1384" on="0"/>
        <pt x="1325" y="1399" on="0"/>
        <pt x="1679" y="1399" on="0"/>
        <pt x="1679" y="1332" on="1"/>
        <pt x="1679" y="1288" on="0"/>
        <pt x="1248" y="1245" on="0"/>
        <pt x="1216" y="1220" on="1"/>
        <pt x="1147" y="1166" on="0"/>
        <pt x="1147" y="965" on="1"/>
        <pt x="1147" y="864" on="0"/>
        <pt x="1267" y="811" on="0"/>
        <pt x="1560" y="811" on="0"/>
        <pt x="1609" y="781" on="0"/>
        <pt x="1609" y="695" on="0"/>
        <pt x="1526" y="657" on="0"/>
        <pt x="1236" y="642" on="0"/>
        <pt x="1140" y="565" on="0"/>
        <pt x="1140" y="250" on="0"/>
        <pt x="1198" y="200" on="1"/>
        <pt x="1239" y="165" on="0"/>
        <pt x="1624" y="165" on="0"/>
        <pt x="1679" y="128" on="1"/>
        <pt x="1696" y="117" on="0"/>
      </contour>
    </TTGlyph>
    <TTGlyph name="Oacute" xMin="121" yMin="-9" xMax="1215" yMax="1833">
      <contour>
        <pt x="296" y="764" on="1"/>
        <pt x="296" y="697" on="1"/>
        <pt x="298" y="663" on="0"/>
        <pt x="298" y="648" on="1"/>
        <pt x="298" y="551" on="0"/>
        <pt x="358" y="359" on="0"/>
        <pt x="397" y="306" on="1"/>
        <pt x="482" y="190" on="0"/>
        <pt x="651" y="190" on="1"/>
        <pt x="667" y="190" on="1"/>
        <pt x="838" y="190" on="0"/>
        <pt x="939" y="327" on="1"/>
        <pt x="977" y="378" on="0"/>
        <pt x="1035" y="597" on="0"/>
        <pt x="1035" y="739" on="1"/>
        <pt x="1035" y="821" on="1"/>
        <pt x="1035" y="903" on="0"/>
        <pt x="980" y="1121" on="0"/>
        <pt x="898" y="1240" on="0"/>
        <pt x="766" y="1311" on="0"/>
        <pt x="688" y="1311" on="1"/>
        <pt x="654" y="1311" on="1"/>
        <pt x="480" y="1311" on="0"/>
        <pt x="381" y="1157" on="1"/>
        <pt x="348" y="1105" on="0"/>
        <pt x="296" y="883" on="0"/>
      </contour>
      <contour>
        <pt x="581" y="1502" on="1"/>
        <pt x="570" y="1502" on="1"/>
        <pt x="531" y="1502" on="0"/>
        <pt x="531" y="1526" on="1"/>
        <pt x="531" y="1540" on="1"/>
        <pt x="531" y="1566" on="0"/>
        <pt x="563" y="1607" on="1"/>
        <pt x="674" y="1750" on="0"/>
        <pt x="769" y="1833" on="0"/>
        <pt x="833" y="1833" on="1"/>
        <pt x="852" y="1833" on="1"/>
        <pt x="906" y="1833" on="0"/>
        <pt x="906" y="1801" on="1"/>
        <pt x="906" y="1787" on="1"/>
        <pt x="906" y="1740" on="0"/>
        <pt x="683" y="1545" on="1"/>
        <pt x="634" y="1502" on="0"/>
      </contour>
      <contour>
        <pt x="1215" y="767" on="1"/>
        <pt x="1215" y="676" on="1"/>
        <pt x="1215" y="532" on="0"/>
        <pt x="1148" y="263" on="0"/>
        <pt x="1008" y="89" on="0"/>
        <pt x="794" y="-9" on="0"/>
        <pt x="670" y="-9" on="1"/>
        <pt x="648" y="-9" on="1"/>
        <pt x="400" y="-9" on="0"/>
        <pt x="258" y="169" on="1"/>
        <pt x="196" y="246" on="0"/>
        <pt x="121" y="518" on="0"/>
        <pt x="121" y="664" on="1"/>
        <pt x="121" y="754" on="1"/>
        <pt x="121" y="905" on="0"/>
        <pt x="197" y="1180" on="0"/>
        <pt x="336" y="1352" on="0"/>
        <pt x="544" y="1439" on="0"/>
        <pt x="661" y="1439" on="1"/>
        <pt x="683" y="1439" on="1"/>
        <pt x="805" y="1439" on="0"/>
        <pt x="907" y="1391" on="1"/>
        <pt x="1107" y="1297" on="0"/>
        <pt x="1172" y="1062" on="1"/>
        <pt x="1215" y="906" on="0"/>
      </contour>
    </TTGlyph>
    <TTGlyph name="Ocircumflex" xMin="118" yMin="-14" xMax="1219" yMax="1831">
      <contour>
        <pt x="300" y="762" on="1"/>
        <pt x="300" y="693" on="1"/>
        <pt x="300" y="320" on="0"/>
        <pt x="492" y="205" on="1"/>
        <pt x="557" y="166" on="0"/>
        <pt x="636" y="166" on="1"/>
        <pt x="669" y="166" on="1"/>
        <pt x="860" y="166" on="0"/>
        <pt x="952" y="323" on="1"/>
        <pt x="1029" y="455" on="0"/>
        <pt x="1029" y="728" on="1"/>
        <pt x="1029" y="762" on="1"/>
        <pt x="1029" y="868" on="0"/>
        <pt x="971" y="1107" on="0"/>
        <pt x="927" y="1169" on="1"/>
        <pt x="835" y="1299" on="0"/>
        <pt x="667" y="1299" on="1"/>
        <pt x="651" y="1299" on="1"/>
        <pt x="407" y="1299" on="0"/>
        <pt x="332" y="1015" on="1"/>
        <pt x="300" y="895" on="0"/>
      </contour>
      <contour>
        <pt x="656" y="1831" on="1"/>
        <pt x="673" y="1831" on="1"/>
        <pt x="721" y="1831" on="0"/>
        <pt x="766" y="1790" on="1"/>
        <pt x="951" y="1620" on="0"/>
        <pt x="951" y="1559" on="1"/>
        <pt x="951" y="1533" on="0"/>
        <pt x="830" y="1533" on="0"/>
        <pt x="767" y="1602" on="1"/>
        <pt x="672" y="1706" on="0"/>
        <pt x="655" y="1706" on="0"/>
        <pt x="479" y="1530" on="0"/>
        <pt x="437" y="1530" on="1"/>
        <pt x="422" y="1530" on="1"/>
        <pt x="366" y="1530" on="0"/>
        <pt x="366" y="1559" on="1"/>
        <pt x="366" y="1613" on="0"/>
        <pt x="548" y="1780" on="1"/>
        <pt x="604" y="1831" on="0"/>
      </contour>
      <contour>
        <pt x="1078" y="168" on="1"/>
        <pt x="1014" y="86" on="0"/>
        <pt x="796" y="-14" on="0"/>
        <pt x="678" y="-14" on="1"/>
        <pt x="634" y="-14" on="1"/>
        <pt x="520" y="-14" on="0"/>
        <pt x="314" y="86" on="0"/>
        <pt x="250" y="173" on="1"/>
        <pt x="118" y="352" on="0"/>
        <pt x="118" y="720" on="1"/>
        <pt x="118" y="1070" on="0"/>
        <pt x="394" y="1437" on="0"/>
        <pt x="676" y="1437" on="1"/>
        <pt x="798" y="1437" on="0"/>
        <pt x="1021" y="1341" on="0"/>
        <pt x="1097" y="1232" on="1"/>
        <pt x="1219" y="1056" on="0"/>
        <pt x="1219" y="349" on="0"/>
      </contour>
    </TTGlyph>
    <TTGlyph name="Odieresis" xMin="91" yMin="-10" xMax="1201" yMax="1786">
      <contour>
        <pt x="278" y="745" on="1"/>
        <pt x="278" y="710" on="1"/>
        <pt x="278" y="301" on="0"/>
        <pt x="469" y="194" on="1"/>
        <pt x="544" y="152" on="0"/>
        <pt x="631" y="152" on="1"/>
        <pt x="648" y="152" on="1"/>
        <pt x="837" y="152" on="0"/>
        <pt x="934" y="314" on="1"/>
        <pt x="1009" y="439" on="0"/>
        <pt x="1009" y="745" on="1"/>
        <pt x="1009" y="762" on="1"/>
        <pt x="1009" y="892" on="0"/>
        <pt x="948" y="1115" on="0"/>
        <pt x="873" y="1227" on="0"/>
        <pt x="739" y="1302" on="0"/>
        <pt x="663" y="1302" on="1"/>
        <pt x="613" y="1302" on="1"/>
        <pt x="543" y="1302" on="0"/>
        <pt x="477" y="1266" on="1"/>
        <pt x="278" y="1158" on="0"/>
      </contour>
      <contour>
        <pt x="363" y="1694" on="1"/>
        <pt x="363" y="1782" on="0"/>
        <pt x="430" y="1782" on="1"/>
        <pt x="436" y="1784" on="0"/>
        <pt x="440" y="1784" on="1"/>
        <pt x="475" y="1786" on="1"/>
        <pt x="479" y="1786" on="1"/>
        <pt x="559" y="1786" on="0"/>
        <pt x="559" y="1731" on="1"/>
        <pt x="561" y="1723" on="0"/>
        <pt x="561" y="1721" on="1"/>
        <pt x="563" y="1704" on="1"/>
        <pt x="563" y="1675" on="1"/>
        <pt x="563" y="1592" on="0"/>
        <pt x="499" y="1592" on="1"/>
        <pt x="493" y="1590" on="0"/>
        <pt x="489" y="1590" on="1"/>
        <pt x="468" y="1587" on="1"/>
        <pt x="433" y="1587" on="1"/>
        <pt x="410" y="1591" on="1"/>
        <pt x="368" y="1591" on="0"/>
        <pt x="368" y="1639" on="1"/>
        <pt x="366" y="1647" on="0"/>
        <pt x="366" y="1649" on="1"/>
        <pt x="363" y="1670" on="1"/>
      </contour>
      <contour>
        <pt x="726" y="1693" on="1"/>
        <pt x="728" y="1709" on="1"/>
        <pt x="728" y="1764" on="0"/>
        <pt x="793" y="1764" on="1"/>
        <pt x="799" y="1766" on="0"/>
        <pt x="804" y="1766" on="1"/>
        <pt x="822" y="1768" on="1"/>
        <pt x="857" y="1768" on="1"/>
        <pt x="886" y="1764" on="1"/>
        <pt x="943" y="1764" on="0"/>
        <pt x="943" y="1681" on="1"/>
        <pt x="943" y="1675" on="1"/>
        <pt x="943" y="1587" on="0"/>
        <pt x="871" y="1587" on="1"/>
        <pt x="863" y="1585" on="1"/>
        <pt x="856" y="1585" on="1"/>
        <pt x="837" y="1583" on="1"/>
        <pt x="818" y="1583" on="1"/>
        <pt x="814" y="1584" on="1"/>
        <pt x="806" y="1584" on="1"/>
        <pt x="795" y="1585" on="1"/>
        <pt x="774" y="1589" on="1"/>
        <pt x="729" y="1589" on="0"/>
        <pt x="729" y="1639" on="1"/>
        <pt x="727" y="1645" on="0"/>
        <pt x="727" y="1648" on="1"/>
        <pt x="725" y="1661" on="1"/>
        <pt x="725" y="1690" on="1"/>
      </contour>
      <contour>
        <pt x="1201" y="746" on="1"/>
        <pt x="1201" y="678" on="1"/>
        <pt x="1201" y="524" on="0"/>
        <pt x="1128" y="258" on="0"/>
        <pt x="995" y="88" on="0"/>
        <pt x="781" y="-10" on="0"/>
        <pt x="675" y="-10" on="1"/>
        <pt x="630" y="-10" on="1"/>
        <pt x="375" y="-10" on="0"/>
        <pt x="231" y="170" on="1"/>
        <pt x="165" y="252" on="0"/>
        <pt x="91" y="528" on="0"/>
        <pt x="91" y="688" on="1"/>
        <pt x="91" y="756" on="1"/>
        <pt x="91" y="906" on="0"/>
        <pt x="165" y="1174" on="0"/>
        <pt x="299" y="1346" on="0"/>
        <pt x="513" y="1444" on="0"/>
        <pt x="643" y="1444" on="1"/>
        <pt x="665" y="1444" on="1"/>
        <pt x="798" y="1444" on="0"/>
        <pt x="1010" y="1338" on="0"/>
        <pt x="1127" y="1175" on="0"/>
        <pt x="1201" y="907" on="0"/>
      </contour>
    </TTGlyph>
    <TTGlyph name="Ograve" xMin="118" yMin="-11" xMax="1219" yMax="1857">
      <contour>
        <pt x="295" y="758" on="1"/>
        <pt x="295" y="706" on="1"/>
        <pt x="296" y="432" on="0"/>
        <pt x="390" y="284" on="1"/>
        <pt x="434" y="216" on="0"/>
        <pt x="575" y="150" on="0"/>
        <pt x="650" y="150" on="1"/>
        <pt x="683" y="150" on="1"/>
        <pt x="765" y="150" on="0"/>
        <pt x="909" y="231" on="0"/>
        <pt x="954" y="308" on="1"/>
        <pt x="1029" y="437" on="0"/>
        <pt x="1029" y="721" on="1"/>
        <pt x="1029" y="755" on="1"/>
        <pt x="1029" y="885" on="0"/>
        <pt x="966" y="1113" on="0"/>
        <pt x="924" y="1169" on="1"/>
        <pt x="833" y="1292" on="0"/>
        <pt x="665" y="1292" on="1"/>
        <pt x="648" y="1292" on="1"/>
        <pt x="472" y="1292" on="0"/>
        <pt x="375" y="1140" on="1"/>
        <pt x="295" y="1015" on="0"/>
      </contour>
      <contour>
        <pt x="419" y="1805" on="1"/>
        <pt x="419" y="1815" on="1"/>
        <pt x="419" y="1857" on="0"/>
        <pt x="483" y="1857" on="1"/>
        <pt x="504" y="1857" on="1"/>
        <pt x="581" y="1857" on="0"/>
        <pt x="632" y="1799" on="1"/>
        <pt x="788" y="1621" on="0"/>
        <pt x="788" y="1569" on="1"/>
        <pt x="788" y="1543" on="0"/>
        <pt x="758" y="1543" on="1"/>
        <pt x="749" y="1541" on="1"/>
        <pt x="728" y="1541" on="1"/>
        <pt x="723" y="1542" on="1"/>
        <pt x="679" y="1542" on="0"/>
        <pt x="606" y="1599" on="1"/>
        <pt x="419" y="1744" on="0"/>
      </contour>
      <contour>
        <pt x="1219" y="746" on="1"/>
        <pt x="1219" y="677" on="1"/>
        <pt x="1219" y="183" on="0"/>
        <pt x="905" y="39" on="1"/>
        <pt x="796" y="-11" on="0"/>
        <pt x="673" y="-11" on="1"/>
        <pt x="651" y="-11" on="1"/>
        <pt x="380" y="-11" on="0"/>
        <pt x="235" y="198" on="1"/>
        <pt x="179" y="280" on="0"/>
        <pt x="118" y="550" on="0"/>
        <pt x="118" y="706" on="1"/>
        <pt x="119" y="729" on="1"/>
        <pt x="119" y="1074" on="0"/>
        <pt x="252" y="1251" on="1"/>
        <pt x="314" y="1334" on="0"/>
        <pt x="518" y="1439" on="0"/>
        <pt x="638" y="1439" on="1"/>
        <pt x="682" y="1439" on="1"/>
        <pt x="808" y="1438" on="0"/>
        <pt x="914" y="1388" on="1"/>
        <pt x="1110" y="1295" on="0"/>
        <pt x="1175" y="1064" on="1"/>
        <pt x="1219" y="904" on="0"/>
      </contour>
    </TTGlyph>
    <TTGlyph name="Oslash" xMin="114" yMin="-28" xMax="1212" yMax="1455">
      <contour>
        <pt x="288" y="689" on="1"/>
        <pt x="288" y="588" on="0"/>
        <pt x="341" y="324" on="0"/>
        <pt x="379" y="324" on="1"/>
        <pt x="411" y="324" on="0"/>
        <pt x="712" y="834" on="0"/>
        <pt x="836" y="1106" on="1"/>
        <pt x="866" y="1172" on="0"/>
        <pt x="866" y="1195" on="1"/>
        <pt x="866" y="1205" on="1"/>
        <pt x="866" y="1238" on="0"/>
        <pt x="758" y="1298" on="0"/>
        <pt x="683" y="1298" on="1"/>
        <pt x="657" y="1298" on="1"/>
        <pt x="490" y="1298" on="0"/>
        <pt x="396" y="1172" on="1"/>
        <pt x="354" y="1116" on="0"/>
        <pt x="291" y="909" on="0"/>
        <pt x="291" y="798" on="1"/>
        <pt x="289" y="771" on="1"/>
        <pt x="288" y="716" on="1"/>
      </contour>
      <contour>
        <pt x="1017" y="900" on="1"/>
        <pt x="1017" y="1020" on="0"/>
        <pt x="981" y="1107" on="1"/>
        <pt x="974" y="1123" on="0"/>
        <pt x="960" y="1123" on="0"/>
        <pt x="478" y="240" on="0"/>
        <pt x="478" y="210" on="1"/>
        <pt x="478" y="200" on="1"/>
        <pt x="478" y="179" on="0"/>
        <pt x="545" y="121" on="0"/>
        <pt x="594" y="121" on="1"/>
        <pt x="617" y="121" on="1"/>
        <pt x="629" y="122" on="1"/>
        <pt x="719" y="122" on="0"/>
        <pt x="868" y="219" on="0"/>
        <pt x="956" y="361" on="0"/>
        <pt x="1019" y="623" on="0"/>
        <pt x="1019" y="769" on="1"/>
        <pt x="1019" y="862" on="1"/>
        <pt x="1017" y="888" on="0"/>
      </contour>
      <contour>
        <pt x="219" y="142" on="0"/>
        <pt x="219" y="193" on="0"/>
        <pt x="160" y="347" on="0"/>
        <pt x="114" y="540" on="0"/>
        <pt x="114" y="692" on="1"/>
        <pt x="114" y="719" on="1"/>
        <pt x="114" y="1062" on="0"/>
        <pt x="410" y="1440" on="0"/>
        <pt x="703" y="1440" on="1"/>
        <pt x="757" y="1440" on="0"/>
        <pt x="914" y="1408" on="0"/>
        <pt x="955" y="1408" on="0"/>
        <pt x="1041" y="1455" on="0"/>
        <pt x="1066" y="1455" on="1"/>
        <pt x="1122" y="1455" on="0"/>
        <pt x="1122" y="1393" on="1"/>
        <pt x="1106" y="1280" on="1"/>
        <pt x="1106" y="1246" on="0"/>
        <pt x="1171" y="1061" on="0"/>
        <pt x="1173" y="1053" on="1"/>
        <pt x="1212" y="918" on="0"/>
        <pt x="1212" y="762" on="1"/>
        <pt x="1212" y="683" on="1"/>
        <pt x="1212" y="517" on="0"/>
        <pt x="1167" y="380" on="1"/>
        <pt x="1080" y="115" on="0"/>
        <pt x="861" y="30" on="1"/>
        <pt x="765" y="-7" on="0"/>
        <pt x="621" y="-7" on="1"/>
        <pt x="586" y="-7" on="0"/>
        <pt x="442" y="19" on="0"/>
        <pt x="378" y="19" on="0"/>
        <pt x="284" y="-28" on="0"/>
        <pt x="263" y="-28" on="1"/>
        <pt x="209" y="-28" on="0"/>
        <pt x="209" y="52" on="1"/>
      </contour>
    </TTGlyph>
    <TTGlyph name="Otilde" xMin="125" yMin="-8" xMax="1223" yMax="1763">
      <contour>
        <pt x="299" y="795" on="1"/>
        <pt x="299" y="709" on="1"/>
        <pt x="299" y="589" on="0"/>
        <pt x="360" y="360" on="0"/>
        <pt x="441" y="250" on="0"/>
        <pt x="576" y="178" on="0"/>
        <pt x="656" y="178" on="1"/>
        <pt x="689" y="178" on="1"/>
        <pt x="865" y="178" on="0"/>
        <pt x="962" y="334" on="1"/>
        <pt x="1041" y="460" on="0"/>
        <pt x="1041" y="745" on="1"/>
        <pt x="1041" y="779" on="1"/>
        <pt x="1041" y="881" on="0"/>
        <pt x="984" y="1107" on="0"/>
        <pt x="952" y="1159" on="1"/>
        <pt x="858" y="1310" on="0"/>
        <pt x="658" y="1310" on="1"/>
        <pt x="491" y="1310" on="0"/>
        <pt x="398" y="1184" on="1"/>
        <pt x="356" y="1127" on="0"/>
        <pt x="299" y="913" on="0"/>
      </contour>
      <contour>
        <pt x="523" y="1763" on="1"/>
        <pt x="547" y="1763" on="1"/>
        <pt x="599" y="1763" on="0"/>
        <pt x="764" y="1670" on="0"/>
        <pt x="834" y="1670" on="0"/>
        <pt x="918" y="1754" on="0"/>
        <pt x="978" y="1754" on="0"/>
        <pt x="978" y="1715" on="1"/>
        <pt x="978" y="1708" on="1"/>
        <pt x="978" y="1657" on="0"/>
        <pt x="877" y="1556" on="0"/>
        <pt x="808" y="1556" on="1"/>
        <pt x="793" y="1556" on="1"/>
        <pt x="746" y="1556" on="0"/>
        <pt x="564" y="1647" on="0"/>
        <pt x="496" y="1647" on="0"/>
        <pt x="411" y="1562" on="0"/>
        <pt x="388" y="1562" on="1"/>
        <pt x="349" y="1562" on="0"/>
        <pt x="349" y="1601" on="1"/>
        <pt x="349" y="1616" on="1"/>
        <pt x="349" y="1664" on="0"/>
        <pt x="458" y="1763" on="0"/>
      </contour>
      <contour>
        <pt x="1223" y="745" on="1"/>
        <pt x="1223" y="676" on="1"/>
        <pt x="1223" y="525" on="0"/>
        <pt x="1153" y="264" on="0"/>
        <pt x="1022" y="97" on="0"/>
        <pt x="806" y="-8" on="0"/>
        <pt x="696" y="-8" on="1"/>
        <pt x="652" y="-8" on="1"/>
        <pt x="536" y="-8" on="0"/>
        <pt x="432" y="38" on="1"/>
        <pt x="234" y="126" on="0"/>
        <pt x="166" y="372" on="1"/>
        <pt x="125" y="521" on="0"/>
        <pt x="125" y="668" on="1"/>
        <pt x="125" y="758" on="1"/>
        <pt x="125" y="906" on="0"/>
        <pt x="161" y="1040" on="1"/>
        <pt x="230" y="1298" on="0"/>
        <pt x="429" y="1392" on="1"/>
        <pt x="535" y="1442" on="0"/>
        <pt x="647" y="1442" on="1"/>
        <pt x="691" y="1442" on="1"/>
        <pt x="809" y="1442" on="0"/>
        <pt x="1020" y="1345" on="0"/>
        <pt x="1149" y="1178" on="0"/>
        <pt x="1223" y="909" on="0"/>
      </contour>
    </TTGlyph>
    <TTGlyph name="P" xMin="198" yMin="40" xMax="1103" yMax="1425">
      <contour>
        <pt x="389" y="769" on="1"/>
        <pt x="389" y="713" on="0"/>
        <pt x="438" y="677" on="0"/>
        <pt x="500" y="677" on="1"/>
        <pt x="528" y="677" on="1"/>
        <pt x="537" y="678" on="1"/>
        <pt x="711" y="678" on="0"/>
        <pt x="893" y="860" on="0"/>
        <pt x="893" y="1004" on="1"/>
        <pt x="893" y="1037" on="1"/>
        <pt x="893" y="1157" on="0"/>
        <pt x="746" y="1293" on="0"/>
        <pt x="634" y="1293" on="1"/>
        <pt x="574" y="1293" on="1"/>
        <pt x="544" y="1290" on="0"/>
        <pt x="527" y="1290" on="1"/>
        <pt x="452" y="1290" on="0"/>
        <pt x="393" y="1241" on="0"/>
        <pt x="393" y="1178" on="1"/>
        <pt x="391" y="1158" on="1"/>
        <pt x="390" y="1128" on="1"/>
        <pt x="390" y="882" on="1"/>
        <pt x="389" y="850" on="1"/>
      </contour>
      <contour>
        <pt x="225" y="820" on="1"/>
        <pt x="225" y="913" on="0"/>
        <pt x="205" y="1166" on="0"/>
        <pt x="205" y="1205" on="1"/>
        <pt x="205" y="1356" on="0"/>
        <pt x="250" y="1380" on="1"/>
        <pt x="334" y="1425" on="0"/>
        <pt x="621" y="1425" on="1"/>
        <pt x="664" y="1425" on="1"/>
        <pt x="861" y="1425" on="0"/>
        <pt x="1103" y="1205" on="0"/>
        <pt x="1103" y="1034" on="1"/>
        <pt x="1103" y="1011" on="1"/>
        <pt x="1103" y="919" on="0"/>
        <pt x="1022" y="734" on="0"/>
        <pt x="849" y="592" on="0"/>
        <pt x="440" y="510" on="0"/>
        <pt x="422" y="488" on="1"/>
        <pt x="388" y="445" on="0"/>
        <pt x="365" y="136" on="0"/>
        <pt x="351" y="94" on="1"/>
        <pt x="334" y="40" on="0"/>
        <pt x="238" y="40" on="0"/>
        <pt x="198" y="80" on="0"/>
        <pt x="198" y="145" on="1"/>
        <pt x="198" y="166" on="1"/>
        <pt x="198" y="174" on="0"/>
        <pt x="214" y="342" on="0"/>
        <pt x="214" y="394" on="1"/>
        <pt x="222" y="611" on="1"/>
        <pt x="224" y="653" on="1"/>
        <pt x="225" y="717" on="1"/>
      </contour>
    </TTGlyph>
    <TTGlyph name="Q" xMin="108" yMin="-172" xMax="1246" yMax="1428">
      <contour>
        <pt x="1063" y="690" on="1"/>
        <pt x="1063" y="724" on="1"/>
        <pt x="1062" y="742" on="1"/>
        <pt x="1062" y="855" on="0"/>
        <pt x="1008" y="1064" on="0"/>
        <pt x="927" y="1188" on="0"/>
        <pt x="782" y="1274" on="0"/>
        <pt x="700" y="1274" on="1"/>
        <pt x="665" y="1274" on="1"/>
        <pt x="493" y="1274" on="0"/>
        <pt x="390" y="1115" on="1"/>
        <pt x="354" y="1060" on="0"/>
        <pt x="295" y="851" on="0"/>
        <pt x="295" y="715" on="1"/>
        <pt x="295" y="661" on="1"/>
        <pt x="295" y="558" on="0"/>
        <pt x="321" y="454" on="1"/>
        <pt x="371" y="254" on="0"/>
        <pt x="504" y="185" on="1"/>
        <pt x="566" y="153" on="0"/>
        <pt x="615" y="153" on="1"/>
        <pt x="643" y="153" on="1"/>
        <pt x="808" y="153" on="0"/>
        <pt x="1063" y="477" on="0"/>
      </contour>
      <contour>
        <pt x="1246" y="706" on="1"/>
        <pt x="1246" y="444" on="0"/>
        <pt x="1118" y="208" on="1"/>
        <pt x="1062" y="104" on="0"/>
        <pt x="1062" y="32" on="0"/>
        <pt x="1158" y="-115" on="0"/>
        <pt x="1158" y="-132" on="0"/>
        <pt x="1106" y="-172" on="0"/>
        <pt x="937" y="-172" on="0"/>
        <pt x="404" y="39" on="0"/>
        <pt x="334" y="105" on="1"/>
        <pt x="219" y="214" on="0"/>
        <pt x="108" y="532" on="0"/>
        <pt x="108" y="715" on="1"/>
        <pt x="108" y="742" on="1"/>
        <pt x="108" y="1052" on="0"/>
        <pt x="254" y="1239" on="1"/>
        <pt x="320" y="1323" on="0"/>
        <pt x="526" y="1428" on="0"/>
        <pt x="664" y="1428" on="1"/>
        <pt x="1074" y="1428" on="0"/>
        <pt x="1205" y="1039" on="1"/>
        <pt x="1246" y="916" on="0"/>
        <pt x="1246" y="760" on="1"/>
      </contour>
    </TTGlyph>
    <TTGlyph name="R" xMin="178" yMin="36" xMax="1096" yMax="1420">
      <contour>
        <pt x="359" y="790" on="1"/>
        <pt x="359" y="745" on="0"/>
        <pt x="392" y="708" on="0"/>
        <pt x="465" y="708" on="1"/>
        <pt x="473" y="708" on="1"/>
        <pt x="649" y="708" on="0"/>
        <pt x="762" y="797" on="1"/>
        <pt x="803" y="829" on="0"/>
        <pt x="860" y="951" on="0"/>
        <pt x="860" y="1008" on="1"/>
        <pt x="860" y="1058" on="1"/>
        <pt x="860" y="1158" on="0"/>
        <pt x="731" y="1276" on="0"/>
        <pt x="638" y="1276" on="1"/>
        <pt x="562" y="1276" on="1"/>
        <pt x="410" y="1276" on="0"/>
        <pt x="383" y="1226" on="1"/>
        <pt x="362" y="1187" on="0"/>
        <pt x="362" y="956" on="1"/>
        <pt x="360" y="907" on="1"/>
        <pt x="360" y="897" on="0"/>
        <pt x="360" y="887" on="1"/>
        <pt x="359" y="848" on="1"/>
      </contour>
      <contour>
        <pt x="560" y="1420" on="1"/>
        <pt x="618" y="1420" on="1"/>
        <pt x="830" y="1420" on="0"/>
        <pt x="948" y="1308" on="1"/>
        <pt x="1005" y="1255" on="0"/>
        <pt x="1045" y="1123" on="0"/>
        <pt x="1045" y="1031" on="1"/>
        <pt x="1045" y="858" on="0"/>
        <pt x="905" y="714" on="1"/>
        <pt x="822" y="629" on="0"/>
        <pt x="822" y="594" on="1"/>
        <pt x="822" y="533" on="0"/>
        <pt x="944" y="325" on="1"/>
        <pt x="998" y="233" on="0"/>
        <pt x="1096" y="94" on="0"/>
        <pt x="1096" y="69" on="1"/>
        <pt x="1096" y="36" on="0"/>
        <pt x="1052" y="36" on="1"/>
        <pt x="1033" y="36" on="1"/>
        <pt x="980" y="36" on="0"/>
        <pt x="933" y="96" on="1"/>
        <pt x="912" y="123" on="0"/>
        <pt x="699" y="470" on="0"/>
        <pt x="604" y="553" on="0"/>
        <pt x="408" y="553" on="0"/>
        <pt x="389" y="502" on="1"/>
        <pt x="377" y="469" on="0"/>
        <pt x="354" y="173" on="0"/>
        <pt x="313" y="44" on="0"/>
        <pt x="207" y="44" on="0"/>
        <pt x="197" y="89" on="1"/>
        <pt x="190" y="120" on="0"/>
        <pt x="190" y="424" on="1"/>
        <pt x="193" y="798" on="1"/>
        <pt x="193" y="919" on="0"/>
        <pt x="189" y="990" on="1"/>
        <pt x="178" y="1169" on="1"/>
        <pt x="178" y="1345" on="0"/>
        <pt x="307" y="1420" on="0"/>
      </contour>
    </TTGlyph>
    <TTGlyph name="S" xMin="124" yMin="-6" xMax="1017" yMax="1420">
      <contour>
        <pt x="1017" y="357" on="1"/>
        <pt x="1016" y="304" on="0"/>
        <pt x="988" y="232" on="1"/>
        <pt x="932" y="90" on="0"/>
        <pt x="763" y="28" on="1"/>
        <pt x="670" y="-6" on="0"/>
        <pt x="405" y="-6" on="0"/>
        <pt x="190" y="92" on="0"/>
        <pt x="146" y="152" on="1"/>
        <pt x="124" y="182" on="0"/>
        <pt x="124" y="200" on="1"/>
        <pt x="124" y="282" on="0"/>
        <pt x="190" y="282" on="1"/>
        <pt x="202" y="282" on="0"/>
        <pt x="441" y="160" on="0"/>
        <pt x="688" y="160" on="0"/>
        <pt x="819" y="278" on="0"/>
        <pt x="819" y="466" on="0"/>
        <pt x="724" y="542" on="1"/>
        <pt x="668" y="587" on="0"/>
        <pt x="327" y="743" on="0"/>
        <pt x="260" y="810" on="1"/>
        <pt x="158" y="912" on="0"/>
        <pt x="158" y="1067" on="1"/>
        <pt x="158" y="1147" on="0"/>
        <pt x="233" y="1287" on="0"/>
        <pt x="297" y="1333" on="1"/>
        <pt x="418" y="1420" on="0"/>
        <pt x="752" y="1420" on="0"/>
        <pt x="846" y="1372" on="1"/>
        <pt x="962" y="1313" on="0"/>
        <pt x="962" y="1233" on="1"/>
        <pt x="962" y="1172" on="0"/>
        <pt x="901" y="1172" on="1"/>
        <pt x="880" y="1172" on="0"/>
        <pt x="675" y="1264" on="0"/>
        <pt x="598" y="1264" on="1"/>
        <pt x="382" y="1264" on="0"/>
        <pt x="344" y="1102" on="1"/>
        <pt x="340" y="1087" on="0"/>
        <pt x="340" y="1070" on="1"/>
        <pt x="340" y="1033" on="0"/>
        <pt x="358" y="992" on="1"/>
        <pt x="384" y="933" on="0"/>
        <pt x="458" y="885" on="1"/>
        <pt x="481" y="870" on="0"/>
        <pt x="835" y="708" on="0"/>
        <pt x="907" y="639" on="1"/>
        <pt x="1017" y="534" on="0"/>
        <pt x="1017" y="389" on="1"/>
      </contour>
    </TTGlyph>
    <TTGlyph name="Scaron" xMin="108" yMin="10" xMax="1033" yMax="1850">
      <contour>
        <pt x="344" y="1850" on="1"/>
        <pt x="358" y="1850" on="1"/>
        <pt x="408" y="1850" on="0"/>
        <pt x="558" y="1673" on="0"/>
        <pt x="574" y="1673" on="1"/>
        <pt x="581" y="1673" on="0"/>
        <pt x="671" y="1781" on="1"/>
        <pt x="727" y="1848" on="0"/>
        <pt x="850" y="1848" on="0"/>
        <pt x="850" y="1818" on="1"/>
        <pt x="850" y="1751" on="0"/>
        <pt x="673" y="1589" on="1"/>
        <pt x="611" y="1532" on="0"/>
        <pt x="563" y="1532" on="1"/>
        <pt x="556" y="1532" on="1"/>
        <pt x="515" y="1532" on="0"/>
        <pt x="483" y="1564" on="1"/>
        <pt x="285" y="1762" on="0"/>
        <pt x="285" y="1821" on="1"/>
        <pt x="285" y="1850" on="0"/>
      </contour>
      <contour>
        <pt x="1033" y="380" on="1"/>
        <pt x="1032" y="300" on="0"/>
        <pt x="994" y="222" on="1"/>
        <pt x="888" y="10" on="0"/>
        <pt x="571" y="10" on="1"/>
        <pt x="385" y="10" on="0"/>
        <pt x="249" y="73" on="1"/>
        <pt x="172" y="109" on="0"/>
        <pt x="108" y="193" on="0"/>
        <pt x="108" y="213" on="1"/>
        <pt x="108" y="310" on="0"/>
        <pt x="170" y="310" on="1"/>
        <pt x="200" y="310" on="0"/>
        <pt x="325" y="216" on="0"/>
        <pt x="465" y="163" on="0"/>
        <pt x="710" y="163" on="0"/>
        <pt x="847" y="285" on="0"/>
        <pt x="847" y="508" on="0"/>
        <pt x="738" y="583" on="1"/>
        <pt x="678" y="625" on="0"/>
        <pt x="295" y="762" on="0"/>
        <pt x="232" y="820" on="1"/>
        <pt x="124" y="919" on="0"/>
        <pt x="124" y="1254" on="0"/>
        <pt x="365" y="1438" on="0"/>
        <pt x="738" y="1438" on="0"/>
        <pt x="969" y="1327" on="0"/>
        <pt x="969" y="1236" on="1"/>
        <pt x="969" y="1170" on="0"/>
        <pt x="906" y="1170" on="1"/>
        <pt x="902" y="1170" on="0"/>
        <pt x="764" y="1243" on="1"/>
        <pt x="679" y="1288" on="0"/>
        <pt x="549" y="1288" on="1"/>
        <pt x="488" y="1288" on="0"/>
        <pt x="365" y="1235" on="0"/>
        <pt x="308" y="1143" on="0"/>
        <pt x="308" y="1028" on="0"/>
        <pt x="341" y="978" on="1"/>
        <pt x="388" y="906" on="0"/>
        <pt x="801" y="767" on="0"/>
        <pt x="964" y="644" on="0"/>
        <pt x="1033" y="504" on="0"/>
        <pt x="1033" y="414" on="1"/>
      </contour>
    </TTGlyph>
    <TTGlyph name="T" xMin="82" yMin="5" xMax="1072" yMax="1409">
      <contour>
        <pt x="560" y="5" on="1"/>
        <pt x="538" y="5" on="1"/>
        <pt x="489" y="5" on="0"/>
        <pt x="464" y="61" on="0"/>
        <pt x="464" y="186" on="1"/>
        <pt x="466" y="210" on="1"/>
        <pt x="469" y="257" on="1"/>
        <pt x="471" y="294" on="0"/>
        <pt x="476" y="369" on="0"/>
        <pt x="476" y="429" on="1"/>
        <pt x="478" y="505" on="1"/>
        <pt x="478" y="530" on="0"/>
        <pt x="478" y="555" on="1"/>
        <pt x="481" y="707" on="1"/>
        <pt x="481" y="1101" on="0"/>
        <pt x="450" y="1167" on="1"/>
        <pt x="431" y="1208" on="0"/>
        <pt x="358" y="1229" on="0"/>
        <pt x="145" y="1229" on="0"/>
        <pt x="82" y="1257" on="0"/>
        <pt x="82" y="1306" on="1"/>
        <pt x="82" y="1361" on="0"/>
        <pt x="166" y="1376" on="1"/>
        <pt x="350" y="1409" on="0"/>
        <pt x="715" y="1409" on="1"/>
        <pt x="935" y="1409" on="1"/>
        <pt x="1011" y="1409" on="0"/>
        <pt x="1072" y="1381" on="0"/>
        <pt x="1072" y="1298" on="0"/>
        <pt x="1035" y="1280" on="1"/>
        <pt x="1015" y="1270" on="0"/>
        <pt x="750" y="1234" on="0"/>
        <pt x="716" y="1183" on="1"/>
        <pt x="662" y="1102" on="0"/>
        <pt x="662" y="770" on="1"/>
        <pt x="658" y="569" on="1"/>
        <pt x="644" y="206" on="1"/>
        <pt x="644" y="79" on="0"/>
        <pt x="606" y="5" on="0"/>
      </contour>
    </TTGlyph>
    <TTGlyph name="Thorn" xMin="179" yMin="14" xMax="1039" yMax="1403">
      <contour>
        <pt x="500" y="436" on="1"/>
        <pt x="558" y="436" on="1"/>
        <pt x="686" y="436" on="0"/>
        <pt x="845" y="595" on="0"/>
        <pt x="845" y="746" on="1"/>
        <pt x="845" y="757" on="1"/>
        <pt x="845" y="1050" on="0"/>
        <pt x="553" y="1050" on="1"/>
        <pt x="487" y="1050" on="1"/>
        <pt x="402" y="1050" on="0"/>
        <pt x="352" y="1000" on="0"/>
        <pt x="352" y="934" on="1"/>
        <pt x="352" y="791" on="1"/>
        <pt x="353" y="781" on="1"/>
        <pt x="353" y="760" on="1"/>
        <pt x="354" y="740" on="1"/>
        <pt x="354" y="740" on="0"/>
        <pt x="354" y="612" on="1"/>
        <pt x="354" y="494" on="0"/>
        <pt x="362" y="475" on="1"/>
        <pt x="379" y="436" on="0"/>
      </contour>
      <contour>
        <pt x="264" y="14" on="1"/>
        <pt x="212" y="14" on="0"/>
        <pt x="198" y="37" on="1"/>
        <pt x="186" y="58" on="0"/>
        <pt x="185" y="123" on="1"/>
        <pt x="186" y="130" on="0"/>
        <pt x="186" y="138" on="1"/>
        <pt x="187" y="190" on="0"/>
        <pt x="187" y="208" on="1"/>
        <pt x="187" y="217" on="0"/>
        <pt x="187" y="218" on="1"/>
        <pt x="189" y="344" on="1"/>
        <pt x="189" y="387" on="1"/>
        <pt x="191" y="450" on="1"/>
        <pt x="191" y="493" on="1"/>
        <pt x="192" y="515" on="1"/>
        <pt x="192" y="536" on="0"/>
        <pt x="192" y="557" on="1"/>
        <pt x="191" y="578" on="1"/>
        <pt x="191" y="769" on="1"/>
        <pt x="183" y="1169" on="1"/>
        <pt x="179" y="1253" on="1"/>
        <pt x="179" y="1314" on="1"/>
        <pt x="179" y="1361" on="0"/>
        <pt x="213" y="1403" on="0"/>
        <pt x="255" y="1403" on="1"/>
        <pt x="273" y="1403" on="1"/>
        <pt x="321" y="1403" on="0"/>
        <pt x="337" y="1369" on="1"/>
        <pt x="342" y="1359" on="0"/>
        <pt x="368" y="1230" on="0"/>
        <pt x="405" y="1191" on="0"/>
        <pt x="523" y="1191" on="1"/>
        <pt x="768" y="1191" on="0"/>
        <pt x="1039" y="979" on="0"/>
        <pt x="1039" y="742" on="1"/>
        <pt x="1039" y="543" on="0"/>
        <pt x="927" y="433" on="1"/>
        <pt x="860" y="368" on="0"/>
        <pt x="682" y="311" on="0"/>
        <pt x="416" y="291" on="0"/>
        <pt x="371" y="253" on="0"/>
        <pt x="348" y="77" on="0"/>
        <pt x="338" y="56" on="1"/>
        <pt x="318" y="14" on="0"/>
      </contour>
    </TTGlyph>
    <TTGlyph name="U" xMin="157" yMin="22" xMax="1160" yMax="1360">
      <contour>
        <pt x="157" y="1289" on="1"/>
        <pt x="157" y="1325" on="0"/>
        <pt x="185" y="1355" on="0"/>
        <pt x="293" y="1355" on="0"/>
        <pt x="313" y="1264" on="1"/>
        <pt x="344" y="1126" on="0"/>
        <pt x="344" y="905" on="1"/>
        <pt x="346" y="838" on="1"/>
        <pt x="346" y="735" on="1"/>
        <pt x="346" y="413" on="0"/>
        <pt x="399" y="303" on="1"/>
        <pt x="469" y="157" on="0"/>
        <pt x="644" y="157" on="1"/>
        <pt x="732" y="157" on="0"/>
        <pt x="876" y="249" on="0"/>
        <pt x="957" y="447" on="0"/>
        <pt x="987" y="1157" on="0"/>
        <pt x="1012" y="1285" on="1"/>
        <pt x="1026" y="1360" on="0"/>
        <pt x="1096" y="1360" on="1"/>
        <pt x="1140" y="1360" on="0"/>
        <pt x="1160" y="1307" on="0"/>
        <pt x="1160" y="1197" on="1"/>
        <pt x="1160" y="1163" on="1"/>
        <pt x="1158" y="1095" on="1"/>
        <pt x="1157" y="994" on="1"/>
        <pt x="1157" y="825" on="1"/>
        <pt x="1157" y="502" on="0"/>
        <pt x="1147" y="396" on="1"/>
        <pt x="1125" y="164" on="0"/>
        <pt x="931" y="74" on="1"/>
        <pt x="818" y="22" on="0"/>
        <pt x="658" y="22" on="1"/>
        <pt x="590" y="22" on="1"/>
        <pt x="382" y="22" on="0"/>
        <pt x="168" y="305" on="0"/>
        <pt x="168" y="614" on="1"/>
        <pt x="166" y="683" on="1"/>
        <pt x="165" y="786" on="1"/>
        <pt x="160" y="1046" on="1"/>
        <pt x="158" y="1139" on="1"/>
        <pt x="157" y="1170" on="1"/>
      </contour>
    </TTGlyph>
    <TTGlyph name="Uacute" xMin="148" yMin="22" xMax="1153" yMax="1836">
      <contour>
        <pt x="560" y="1535" on="1"/>
        <pt x="526" y="1535" on="0"/>
        <pt x="526" y="1564" on="1"/>
        <pt x="526" y="1579" on="1"/>
        <pt x="526" y="1638" on="0"/>
        <pt x="695" y="1769" on="1"/>
        <pt x="781" y="1836" on="0"/>
        <pt x="840" y="1836" on="1"/>
        <pt x="855" y="1836" on="1"/>
        <pt x="902" y="1836" on="0"/>
        <pt x="902" y="1814" on="1"/>
        <pt x="902" y="1803" on="1"/>
        <pt x="902" y="1729" on="0"/>
        <pt x="738" y="1601" on="1"/>
        <pt x="651" y="1533" on="0"/>
        <pt x="595" y="1533" on="1"/>
        <pt x="575" y="1533" on="1"/>
        <pt x="565" y="1535" on="0"/>
      </contour>
      <contour>
        <pt x="661" y="171" on="1"/>
        <pt x="849" y="171" on="0"/>
        <pt x="923" y="324" on="1"/>
        <pt x="975" y="430" on="0"/>
        <pt x="975" y="1257" on="0"/>
        <pt x="991" y="1342" on="1"/>
        <pt x="1005" y="1414" on="0"/>
        <pt x="1110" y="1414" on="1"/>
        <pt x="1153" y="1414" on="0"/>
        <pt x="1153" y="1295" on="1"/>
        <pt x="1153" y="1230" on="1"/>
        <pt x="1151" y="1165" on="1"/>
        <pt x="1147" y="867" on="1"/>
        <pt x="1147" y="535" on="0"/>
        <pt x="1128" y="321" on="0"/>
        <pt x="1081" y="236" on="1"/>
        <pt x="962" y="22" on="0"/>
        <pt x="635" y="22" on="1"/>
        <pt x="363" y="22" on="0"/>
        <pt x="242" y="210" on="1"/>
        <pt x="193" y="287" on="0"/>
        <pt x="155" y="498" on="0"/>
        <pt x="155" y="803" on="0"/>
        <pt x="154" y="836" on="1"/>
        <pt x="151" y="936" on="1"/>
        <pt x="148" y="1193" on="1"/>
        <pt x="148" y="1320" on="1"/>
        <pt x="148" y="1391" on="0"/>
        <pt x="177" y="1411" on="0"/>
        <pt x="220" y="1411" on="1"/>
        <pt x="300" y="1411" on="0"/>
        <pt x="316" y="1348" on="1"/>
        <pt x="338" y="1260" on="0"/>
        <pt x="338" y="412" on="0"/>
        <pt x="397" y="308" on="1"/>
        <pt x="438" y="235" on="0"/>
        <pt x="566" y="171" on="0"/>
      </contour>
    </TTGlyph>
    <TTGlyph name="Ucircumflex" xMin="142" yMin="-11" xMax="1158" yMax="1852">
      <contour>
        <pt x="648" y="1852" on="1"/>
        <pt x="664" y="1852" on="1"/>
        <pt x="713" y="1852" on="0"/>
        <pt x="749" y="1816" on="1"/>
        <pt x="943" y="1622" on="0"/>
        <pt x="943" y="1579" on="1"/>
        <pt x="943" y="1573" on="1"/>
        <pt x="943" y="1546" on="0"/>
        <pt x="827" y="1546" on="0"/>
        <pt x="758" y="1615" on="1"/>
        <pt x="736" y="1639" on="1"/>
        <pt x="659" y="1723" on="0"/>
        <pt x="643" y="1723" on="0"/>
        <pt x="479" y="1545" on="0"/>
        <pt x="436" y="1545" on="1"/>
        <pt x="421" y="1545" on="1"/>
        <pt x="364" y="1545" on="0"/>
        <pt x="364" y="1575" on="1"/>
        <pt x="364" y="1634" on="0"/>
        <pt x="550" y="1805" on="1"/>
        <pt x="601" y="1852" on="0"/>
      </contour>
      <contour>
        <pt x="977" y="401" on="0"/>
        <pt x="977" y="1247" on="0"/>
        <pt x="1009" y="1405" on="0"/>
        <pt x="1113" y="1405" on="1"/>
        <pt x="1158" y="1405" on="0"/>
        <pt x="1158" y="1250" on="1"/>
        <pt x="1157" y="1217" on="1"/>
        <pt x="1156" y="1184" on="0"/>
        <pt x="1156" y="1151" on="1"/>
        <pt x="1152" y="847" on="1"/>
        <pt x="1152" y="510" on="0"/>
        <pt x="1133" y="290" on="0"/>
        <pt x="1085" y="207" on="1"/>
        <pt x="960" y="-11" on="0"/>
        <pt x="633" y="-11" on="1"/>
        <pt x="502" y="-11" on="0"/>
        <pt x="398" y="38" on="1"/>
        <pt x="211" y="127" on="0"/>
        <pt x="168" y="369" on="1"/>
        <pt x="149" y="476" on="0"/>
        <pt x="149" y="614" on="1"/>
        <pt x="149" y="787" on="1"/>
        <pt x="148" y="821" on="1"/>
        <pt x="147" y="855" on="0"/>
        <pt x="147" y="888" on="1"/>
        <pt x="145" y="955" on="1"/>
        <pt x="144" y="988" on="0"/>
        <pt x="144" y="1021" on="1"/>
        <pt x="142" y="1183" on="1"/>
        <pt x="142" y="1312" on="1"/>
        <pt x="142" y="1382" on="0"/>
        <pt x="173" y="1404" on="0"/>
        <pt x="273" y="1404" on="0"/>
        <pt x="309" y="1367" on="0"/>
        <pt x="333" y="1194" on="0"/>
        <pt x="333" y="378" on="0"/>
        <pt x="392" y="275" on="1"/>
        <pt x="472" y="136" on="0"/>
        <pt x="851" y="136" on="0"/>
        <pt x="926" y="293" on="1"/>
      </contour>
    </TTGlyph>
    <TTGlyph name="Udieresis" xMin="134" yMin="8" xMax="1147" yMax="1780">
      <contour>
        <pt x="356" y="1719" on="1"/>
        <pt x="356" y="1756" on="0"/>
        <pt x="395" y="1756" on="1"/>
        <pt x="404" y="1759" on="0"/>
        <pt x="405" y="1759" on="1"/>
        <pt x="443" y="1762" on="1"/>
        <pt x="492" y="1762" on="1"/>
        <pt x="553" y="1762" on="0"/>
        <pt x="553" y="1716" on="1"/>
        <pt x="555" y="1710" on="1"/>
        <pt x="558" y="1689" on="1"/>
        <pt x="558" y="1676" on="1"/>
        <pt x="558" y="1571" on="0"/>
        <pt x="483" y="1571" on="1"/>
        <pt x="467" y="1567" on="0"/>
        <pt x="465" y="1567" on="1"/>
        <pt x="442" y="1567" on="1"/>
        <pt x="417" y="1571" on="1"/>
        <pt x="358" y="1571" on="0"/>
        <pt x="358" y="1627" on="1"/>
        <pt x="353" y="1642" on="0"/>
        <pt x="353" y="1652" on="1"/>
        <pt x="352" y="1655" on="1"/>
        <pt x="352" y="1659" on="0"/>
        <pt x="352" y="1663" on="1"/>
        <pt x="350" y="1680" on="1"/>
        <pt x="352" y="1695" on="1"/>
        <pt x="352" y="1702" on="1"/>
        <pt x="356" y="1714" on="0"/>
      </contour>
      <contour>
        <pt x="931" y="1664" on="1"/>
        <pt x="929" y="1647" on="1"/>
        <pt x="929" y="1578" on="0"/>
        <pt x="830" y="1578" on="1"/>
        <pt x="816" y="1578" on="1"/>
        <pt x="812" y="1579" on="1"/>
        <pt x="785" y="1582" on="1"/>
        <pt x="781" y="1583" on="0"/>
        <pt x="779" y="1583" on="1"/>
        <pt x="732" y="1583" on="0"/>
        <pt x="732" y="1655" on="1"/>
        <pt x="732" y="1691" on="1"/>
        <pt x="733" y="1694" on="1"/>
        <pt x="733" y="1701" on="1"/>
        <pt x="735" y="1709" on="0"/>
        <pt x="735" y="1711" on="1"/>
        <pt x="738" y="1725" on="1"/>
        <pt x="738" y="1774" on="0"/>
        <pt x="792" y="1774" on="1"/>
        <pt x="806" y="1778" on="0"/>
        <pt x="809" y="1778" on="1"/>
        <pt x="830" y="1780" on="1"/>
        <pt x="852" y="1780" on="1"/>
        <pt x="864" y="1776" on="0"/>
        <pt x="882" y="1776" on="1"/>
        <pt x="932" y="1776" on="0"/>
        <pt x="932" y="1703" on="1"/>
        <pt x="932" y="1668" on="1"/>
      </contour>
      <contour>
        <pt x="134" y="1321" on="1"/>
        <pt x="134" y="1389" on="0"/>
        <pt x="166" y="1411" on="0"/>
        <pt x="209" y="1411" on="1"/>
        <pt x="287" y="1411" on="0"/>
        <pt x="318" y="1283" on="0"/>
        <pt x="318" y="1062" on="1"/>
        <pt x="320" y="995" on="1"/>
        <pt x="320" y="928" on="1"/>
        <pt x="321" y="859" on="1"/>
        <pt x="321" y="825" on="0"/>
        <pt x="321" y="791" on="1"/>
        <pt x="321" y="394" on="0"/>
        <pt x="382" y="290" on="1"/>
        <pt x="461" y="153" on="0"/>
        <pt x="842" y="153" on="0"/>
        <pt x="919" y="306" on="1"/>
        <pt x="971" y="410" on="0"/>
        <pt x="971" y="844" on="1"/>
        <pt x="972" y="913" on="1"/>
        <pt x="972" y="1016" on="1"/>
        <pt x="975" y="1184" on="1"/>
        <pt x="975" y="1330" on="0"/>
        <pt x="990" y="1364" on="1"/>
        <pt x="1011" y="1412" on="0"/>
        <pt x="1075" y="1412" on="1"/>
        <pt x="1103" y="1412" on="1"/>
        <pt x="1147" y="1412" on="0"/>
        <pt x="1147" y="1292" on="1"/>
        <pt x="1147" y="1226" on="1"/>
        <pt x="1146" y="1194" on="1"/>
        <pt x="1145" y="1162" on="0"/>
        <pt x="1145" y="1128" on="1"/>
        <pt x="1144" y="1095" on="1"/>
        <pt x="1144" y="1028" on="1"/>
        <pt x="1143" y="995" on="1"/>
        <pt x="1143" y="961" on="0"/>
        <pt x="1143" y="927" on="1"/>
        <pt x="1142" y="893" on="1"/>
        <pt x="1142" y="826" on="1"/>
        <pt x="1142" y="504" on="0"/>
        <pt x="1130" y="403" on="1"/>
        <pt x="1103" y="172" on="0"/>
        <pt x="922" y="73" on="1"/>
        <pt x="803" y="8" on="0"/>
        <pt x="661" y="8" on="1"/>
        <pt x="624" y="8" on="1"/>
        <pt x="353" y="8" on="0"/>
        <pt x="228" y="200" on="1"/>
        <pt x="175" y="282" on="0"/>
        <pt x="142" y="506" on="0"/>
        <pt x="142" y="765" on="1"/>
        <pt x="136" y="1064" on="1"/>
        <pt x="135" y="1128" on="1"/>
        <pt x="134" y="1160" on="1"/>
      </contour>
    </TTGlyph>
    <TTGlyph name="Ugrave" xMin="141" yMin="-9" xMax="1157" yMax="1855">
      <contour>
        <pt x="413" y="1803" on="1"/>
        <pt x="413" y="1817" on="1"/>
        <pt x="413" y="1855" on="0"/>
        <pt x="474" y="1855" on="1"/>
        <pt x="495" y="1855" on="1"/>
        <pt x="505" y="1853" on="0"/>
        <pt x="510" y="1853" on="1"/>
        <pt x="574" y="1853" on="0"/>
        <pt x="623" y="1797" on="1"/>
        <pt x="782" y="1615" on="0"/>
        <pt x="782" y="1579" on="1"/>
        <pt x="782" y="1565" on="1"/>
        <pt x="782" y="1541" on="0"/>
        <pt x="735" y="1541" on="1"/>
        <pt x="730" y="1541" on="1"/>
        <pt x="725" y="1542" on="1"/>
        <pt x="669" y="1542" on="0"/>
        <pt x="604" y="1599" on="1"/>
        <pt x="413" y="1766" on="0"/>
      </contour>
      <contour>
        <pt x="977" y="403" on="0"/>
        <pt x="977" y="1254" on="0"/>
        <pt x="1008" y="1407" on="0"/>
        <pt x="1085" y="1407" on="1"/>
        <pt x="1113" y="1407" on="1"/>
        <pt x="1157" y="1407" on="0"/>
        <pt x="1157" y="1286" on="1"/>
        <pt x="1157" y="1220" on="1"/>
        <pt x="1156" y="1187" on="1"/>
        <pt x="1153" y="918" on="1"/>
        <pt x="1152" y="501" on="0"/>
        <pt x="1140" y="395" on="1"/>
        <pt x="1110" y="137" on="0"/>
        <pt x="904" y="43" on="1"/>
        <pt x="790" y="-9" on="0"/>
        <pt x="646" y="-9" on="1"/>
        <pt x="361" y="-9" on="0"/>
        <pt x="236" y="185" on="1"/>
        <pt x="149" y="319" on="0"/>
        <pt x="149" y="633" on="1"/>
        <pt x="149" y="789" on="0"/>
        <pt x="148" y="823" on="1"/>
        <pt x="145" y="925" on="1"/>
        <pt x="141" y="1218" on="1"/>
        <pt x="141" y="1251" on="1"/>
        <pt x="141" y="1358" on="0"/>
        <pt x="147" y="1376" on="1"/>
        <pt x="157" y="1406" on="0"/>
        <pt x="273" y="1406" on="0"/>
        <pt x="309" y="1368" on="0"/>
        <pt x="333" y="1197" on="0"/>
        <pt x="333" y="410" on="0"/>
        <pt x="378" y="306" on="1"/>
        <pt x="450" y="138" on="0"/>
        <pt x="852" y="138" on="0"/>
        <pt x="926" y="295" on="1"/>
      </contour>
    </TTGlyph>
    <TTGlyph name="V" xMin="51" yMin="22" xMax="1161" yMax="1393">
      <contour>
        <pt x="625" y="292" on="1"/>
        <pt x="640" y="292" on="0"/>
        <pt x="813" y="776" on="1"/>
        <pt x="833" y="832" on="0"/>
        <pt x="973" y="1252" on="0"/>
        <pt x="994" y="1297" on="1"/>
        <pt x="1039" y="1393" on="0"/>
        <pt x="1109" y="1393" on="1"/>
        <pt x="1161" y="1393" on="0"/>
        <pt x="1161" y="1369" on="1"/>
        <pt x="1161" y="1348" on="1"/>
        <pt x="1161" y="1330" on="0"/>
        <pt x="1014" y="882" on="1"/>
        <pt x="768" y="131" on="0"/>
        <pt x="695" y="52" on="1"/>
        <pt x="667" y="22" on="0"/>
        <pt x="534" y="22" on="0"/>
        <pt x="482" y="135" on="1"/>
        <pt x="476" y="148" on="0"/>
        <pt x="299" y="662" on="0"/>
        <pt x="51" y="1314" on="0"/>
        <pt x="51" y="1316" on="1"/>
        <pt x="51" y="1362" on="0"/>
        <pt x="131" y="1362" on="1"/>
        <pt x="170" y="1362" on="0"/>
        <pt x="212" y="1314" on="1"/>
        <pt x="315" y="1195" on="0"/>
        <pt x="600" y="292" on="0"/>
      </contour>
    </TTGlyph>
    <TTGlyph name="W" xMin="123" yMin="109" xMax="1662" yMax="1347">
      <contour>
        <pt x="1223" y="362" on="0"/>
        <pt x="1304" y="362" on="0"/>
        <pt x="1513" y="1182" on="0"/>
        <pt x="1536" y="1242" on="1"/>
        <pt x="1576" y="1347" on="0"/>
        <pt x="1662" y="1347" on="0"/>
        <pt x="1662" y="1303" on="1"/>
        <pt x="1662" y="1268" on="0"/>
        <pt x="1566" y="716" on="0"/>
        <pt x="1446" y="297" on="1"/>
        <pt x="1393" y="109" on="0"/>
        <pt x="1300" y="109" on="1"/>
        <pt x="1219" y="109" on="0"/>
        <pt x="1143" y="240" on="1"/>
        <pt x="1049" y="400" on="0"/>
        <pt x="947" y="678" on="1"/>
        <pt x="916" y="762" on="0"/>
        <pt x="907" y="781" on="1"/>
        <pt x="890" y="812" on="1"/>
        <pt x="871" y="812" on="0"/>
        <pt x="677" y="364" on="0"/>
        <pt x="543" y="129" on="0"/>
        <pt x="474" y="129" on="1"/>
        <pt x="451" y="129" on="0"/>
        <pt x="377" y="191" on="0"/>
        <pt x="351" y="270" on="1"/>
        <pt x="255" y="569" on="0"/>
        <pt x="123" y="1243" on="0"/>
        <pt x="123" y="1309" on="0"/>
        <pt x="144" y="1309" on="1"/>
        <pt x="221" y="1309" on="0"/>
        <pt x="302" y="1121" on="0"/>
        <pt x="521" y="353" on="0"/>
        <pt x="548" y="353" on="1"/>
        <pt x="585" y="353" on="0"/>
        <pt x="686" y="711" on="1"/>
        <pt x="718" y="826" on="0"/>
        <pt x="791" y="1138" on="0"/>
        <pt x="808" y="1183" on="1"/>
        <pt x="838" y="1260" on="0"/>
        <pt x="943" y="1260" on="0"/>
        <pt x="991" y="1223" on="0"/>
        <pt x="1010" y="1172" on="1"/>
        <pt x="1024" y="1128" on="1"/>
        <pt x="1033" y="1098" on="0"/>
        <pt x="1048" y="1036" on="1"/>
        <pt x="1109" y="796" on="1"/>
        <pt x="1118" y="762" on="0"/>
        <pt x="1134" y="702" on="1"/>
      </contour>
    </TTGlyph>
    <TTGlyph name="X" xMin="106" yMin="10" xMax="1110" yMax="1395">
      <contour>
        <pt x="1033" y="1395" on="1"/>
        <pt x="1060" y="1395" on="1"/>
        <pt x="1100" y="1395" on="0"/>
        <pt x="1100" y="1356" on="1"/>
        <pt x="1100" y="1341" on="0"/>
        <pt x="748" y="774" on="0"/>
        <pt x="748" y="711" on="1"/>
        <pt x="748" y="626" on="0"/>
        <pt x="1110" y="83" on="0"/>
        <pt x="1110" y="74" on="1"/>
        <pt x="1110" y="31" on="0"/>
        <pt x="1013" y="31" on="1"/>
        <pt x="923" y="31" on="0"/>
        <pt x="738" y="328" on="1"/>
        <pt x="612" y="529" on="0"/>
        <pt x="597" y="529" on="1"/>
        <pt x="565" y="529" on="0"/>
        <pt x="350" y="163" on="0"/>
        <pt x="232" y="10" on="0"/>
        <pt x="106" y="10" on="0"/>
        <pt x="106" y="36" on="1"/>
        <pt x="106" y="56" on="1"/>
        <pt x="106" y="80" on="0"/>
        <pt x="465" y="648" on="0"/>
        <pt x="465" y="735" on="1"/>
        <pt x="465" y="785" on="0"/>
        <pt x="129" y="1299" on="0"/>
        <pt x="129" y="1367" on="0"/>
        <pt x="272" y="1367" on="0"/>
        <pt x="323" y="1311" on="1"/>
        <pt x="348" y="1284" on="0"/>
        <pt x="597" y="902" on="0"/>
        <pt x="614" y="902" on="1"/>
        <pt x="639" y="902" on="0"/>
        <pt x="878" y="1278" on="0"/>
        <pt x="914" y="1322" on="1"/>
        <pt x="973" y="1395" on="0"/>
      </contour>
    </TTGlyph>
    <TTGlyph name="Y" xMin="98" yMin="-9" xMax="1078" yMax="1389">
      <contour>
        <pt x="1009" y="1389" on="1"/>
        <pt x="1029" y="1389" on="1"/>
        <pt x="1078" y="1389" on="0"/>
        <pt x="1078" y="1355" on="1"/>
        <pt x="1078" y="1337" on="1"/>
        <pt x="1078" y="1298" on="0"/>
        <pt x="738" y="560" on="0"/>
        <pt x="677" y="383" on="0"/>
        <pt x="619" y="49" on="0"/>
        <pt x="611" y="28" on="1"/>
        <pt x="598" y="-9" on="0"/>
        <pt x="479" y="-9" on="0"/>
        <pt x="479" y="57" on="1"/>
        <pt x="479" y="108" on="0"/>
        <pt x="512" y="339" on="0"/>
        <pt x="512" y="506" on="0"/>
        <pt x="444" y="660" on="0"/>
        <pt x="368" y="797" on="0"/>
        <pt x="248" y="1037" on="0"/>
        <pt x="98" y="1293" on="0"/>
        <pt x="98" y="1324" on="1"/>
        <pt x="98" y="1363" on="0"/>
        <pt x="233" y="1363" on="0"/>
        <pt x="347" y="1213" on="0"/>
        <pt x="567" y="774" on="0"/>
        <pt x="583" y="774" on="1"/>
        <pt x="631" y="774" on="0"/>
        <pt x="770" y="1041" on="1"/>
        <pt x="788" y="1075" on="0"/>
        <pt x="900" y="1323" on="0"/>
        <pt x="918" y="1345" on="1"/>
        <pt x="953" y="1389" on="0"/>
      </contour>
    </TTGlyph>
    <TTGlyph name="Yacute" xMin="83" yMin="39" xMax="1058" yMax="1841">
      <contour>
        <pt x="501" y="1523" on="1"/>
        <pt x="487" y="1523" on="1"/>
        <pt x="462" y="1523" on="0"/>
        <pt x="462" y="1540" on="1"/>
        <pt x="462" y="1548" on="1"/>
        <pt x="462" y="1590" on="0"/>
        <pt x="626" y="1777" on="1"/>
        <pt x="679" y="1838" on="0"/>
        <pt x="746" y="1838" on="1"/>
        <pt x="771" y="1841" on="1"/>
        <pt x="833" y="1841" on="0"/>
        <pt x="833" y="1801" on="1"/>
        <pt x="833" y="1789" on="1"/>
        <pt x="833" y="1763" on="0"/>
        <pt x="559" y="1523" on="0"/>
      </contour>
      <contour>
        <pt x="1008" y="1408" on="1"/>
        <pt x="1058" y="1408" on="0"/>
        <pt x="1058" y="1381" on="1"/>
        <pt x="1058" y="1368" on="0"/>
        <pt x="917" y="1051" on="0"/>
        <pt x="884" y="975" on="0"/>
        <pt x="855" y="910" on="1"/>
        <pt x="801" y="794" on="1"/>
        <pt x="731" y="640" on="0"/>
        <pt x="712" y="585" on="1"/>
        <pt x="667" y="453" on="0"/>
        <pt x="667" y="113" on="0"/>
        <pt x="635" y="39" on="0"/>
        <pt x="579" y="39" on="1"/>
        <pt x="556" y="39" on="1"/>
        <pt x="513" y="39" on="0"/>
        <pt x="485" y="76" on="0"/>
        <pt x="485" y="186" on="1"/>
        <pt x="488" y="258" on="1"/>
        <pt x="490" y="306" on="0"/>
        <pt x="490" y="357" on="1"/>
        <pt x="490" y="500" on="0"/>
        <pt x="452" y="595" on="1"/>
        <pt x="443" y="617" on="0"/>
        <pt x="309" y="880" on="0"/>
        <pt x="83" y="1352" on="0"/>
        <pt x="83" y="1371" on="1"/>
        <pt x="83" y="1408" on="0"/>
        <pt x="132" y="1408" on="1"/>
        <pt x="227" y="1408" on="0"/>
        <pt x="287" y="1322" on="1"/>
        <pt x="316" y="1280" on="0"/>
        <pt x="555" y="769" on="0"/>
        <pt x="587" y="769" on="1"/>
        <pt x="644" y="769" on="0"/>
        <pt x="816" y="1196" on="1"/>
        <pt x="861" y="1309" on="0"/>
        <pt x="883" y="1343" on="1"/>
        <pt x="925" y="1408" on="0"/>
      </contour>
    </TTGlyph>
    <TTGlyph name="Ydieresis" xMin="108" yMin="35" xMax="1069" yMax="1771">
      <contour>
        <pt x="397" y="1522" on="0"/>
        <pt x="371" y="1522" on="0"/>
        <pt x="326" y="1567" on="0"/>
        <pt x="326" y="1591" on="1"/>
        <pt x="323" y="1614" on="1"/>
        <pt x="323" y="1641" on="1"/>
        <pt x="324" y="1646" on="1"/>
        <pt x="324" y="1654" on="1"/>
        <pt x="325" y="1658" on="1"/>
        <pt x="327" y="1674" on="1"/>
        <pt x="340" y="1724" on="1"/>
        <pt x="340" y="1748" on="0"/>
        <pt x="383" y="1748" on="1"/>
        <pt x="394" y="1748" on="1"/>
        <pt x="397" y="1747" on="1"/>
        <pt x="433" y="1748" on="1"/>
        <pt x="452" y="1748" on="1"/>
        <pt x="484" y="1748" on="0"/>
        <pt x="484" y="1721" on="1"/>
        <pt x="487" y="1709" on="1"/>
        <pt x="492" y="1682" on="1"/>
        <pt x="494" y="1674" on="0"/>
        <pt x="494" y="1670" on="1"/>
        <pt x="496" y="1650" on="1"/>
        <pt x="496" y="1618" on="1"/>
        <pt x="490" y="1581" on="1"/>
        <pt x="490" y="1570" on="0"/>
        <pt x="443" y="1523" on="0"/>
        <pt x="417" y="1523" on="1"/>
        <pt x="403" y="1520" on="1"/>
      </contour>
      <contour>
        <pt x="727" y="1570" on="1"/>
        <pt x="677" y="1570" on="0"/>
        <pt x="677" y="1629" on="1"/>
        <pt x="675" y="1635" on="0"/>
        <pt x="675" y="1639" on="1"/>
        <pt x="673" y="1656" on="1"/>
        <pt x="673" y="1677" on="1"/>
        <pt x="673" y="1766" on="0"/>
        <pt x="740" y="1766" on="1"/>
        <pt x="743" y="1767" on="1"/>
        <pt x="747" y="1768" on="1"/>
        <pt x="777" y="1771" on="1"/>
        <pt x="781" y="1771" on="1"/>
        <pt x="784" y="1770" on="1"/>
        <pt x="808" y="1768" on="1"/>
        <pt x="812" y="1767" on="0"/>
        <pt x="814" y="1767" on="1"/>
        <pt x="866" y="1767" on="0"/>
        <pt x="866" y="1711" on="1"/>
        <pt x="871" y="1680" on="1"/>
        <pt x="871" y="1663" on="1"/>
        <pt x="867" y="1635" on="1"/>
        <pt x="867" y="1570" on="0"/>
        <pt x="803" y="1570" on="1"/>
        <pt x="800" y="1569" on="1"/>
        <pt x="796" y="1568" on="1"/>
        <pt x="766" y="1565" on="1"/>
        <pt x="763" y="1565" on="1"/>
        <pt x="759" y="1566" on="1"/>
        <pt x="733" y="1569" on="1"/>
        <pt x="730" y="1570" on="0"/>
      </contour>
      <contour>
        <pt x="944" y="1414" on="0"/>
        <pt x="1069" y="1414" on="0"/>
        <pt x="1069" y="1378" on="1"/>
        <pt x="1069" y="1360" on="1"/>
        <pt x="1069" y="1334" on="0"/>
        <pt x="711" y="521" on="0"/>
        <pt x="669" y="404" on="0"/>
        <pt x="621" y="99" on="0"/>
        <pt x="593" y="35" on="0"/>
        <pt x="498" y="35" on="0"/>
        <pt x="476" y="59" on="0"/>
        <pt x="476" y="138" on="0"/>
        <pt x="509" y="369" on="0"/>
        <pt x="509" y="541" on="0"/>
        <pt x="456" y="655" on="1"/>
        <pt x="440" y="690" on="0"/>
        <pt x="108" y="1310" on="0"/>
        <pt x="108" y="1313" on="1"/>
        <pt x="108" y="1331" on="1"/>
        <pt x="108" y="1377" on="0"/>
        <pt x="247" y="1377" on="0"/>
        <pt x="361" y="1204" on="0"/>
        <pt x="568" y="789" on="0"/>
        <pt x="580" y="789" on="1"/>
        <pt x="623" y="789" on="0"/>
        <pt x="716" y="953" on="1"/>
        <pt x="767" y="1042" on="0"/>
        <pt x="890" y="1324" on="0"/>
        <pt x="902" y="1344" on="1"/>
      </contour>
    </TTGlyph>
    <TTGlyph name="Z" xMin="134" yMin="7" xMax="1084" yMax="1409">
      <contour>
        <pt x="141" y="1330" on="1"/>
        <pt x="141" y="1381" on="0"/>
        <pt x="208" y="1392" on="1"/>
        <pt x="316" y="1409" on="0"/>
        <pt x="531" y="1409" on="1"/>
        <pt x="701" y="1409" on="1"/>
        <pt x="882" y="1409" on="0"/>
        <pt x="978" y="1382" on="1"/>
        <pt x="1030" y="1367" on="0"/>
        <pt x="1030" y="1251" on="0"/>
        <pt x="879" y="973" on="0"/>
        <pt x="401" y="289" on="0"/>
        <pt x="401" y="213" on="1"/>
        <pt x="401" y="182" on="0"/>
        <pt x="473" y="162" on="0"/>
        <pt x="614" y="162" on="1"/>
        <pt x="957" y="174" on="1"/>
        <pt x="1037" y="174" on="0"/>
        <pt x="1084" y="141" on="0"/>
        <pt x="1084" y="47" on="0"/>
        <pt x="1014" y="34" on="1"/>
        <pt x="869" y="7" on="0"/>
        <pt x="488" y="7" on="1"/>
        <pt x="421" y="7" on="1"/>
        <pt x="263" y="7" on="0"/>
        <pt x="134" y="36" on="0"/>
        <pt x="134" y="86" on="1"/>
        <pt x="134" y="165" on="0"/>
        <pt x="229" y="331" on="1"/>
        <pt x="383" y="601" on="0"/>
        <pt x="501" y="764" on="1"/>
        <pt x="782" y="1153" on="0"/>
        <pt x="782" y="1211" on="1"/>
        <pt x="782" y="1260" on="0"/>
        <pt x="518" y="1260" on="1"/>
        <pt x="241" y="1252" on="1"/>
        <pt x="187" y="1252" on="0"/>
        <pt x="141" y="1284" on="0"/>
      </contour>
    </TTGlyph>
    <TTGlyph name="Zcaron" xMin="138" yMin="23" xMax="1095" yMax="1851">
      <contour>
        <pt x="901" y="1825" on="1"/>
        <pt x="901" y="1811" on="1"/>
        <pt x="901" y="1804" on="0"/>
        <pt x="832" y="1714" on="1"/>
        <pt x="686" y="1523" on="0"/>
        <pt x="610" y="1523" on="1"/>
        <pt x="603" y="1523" on="1"/>
        <pt x="558" y="1523" on="0"/>
        <pt x="516" y="1569" on="1"/>
        <pt x="330" y="1772" on="0"/>
        <pt x="330" y="1812" on="1"/>
        <pt x="330" y="1818" on="1"/>
        <pt x="330" y="1849" on="0"/>
        <pt x="448" y="1849" on="0"/>
        <pt x="515" y="1776" on="1"/>
        <pt x="612" y="1670" on="0"/>
        <pt x="620" y="1670" on="0"/>
        <pt x="786" y="1851" on="0"/>
        <pt x="831" y="1851" on="1"/>
        <pt x="846" y="1851" on="1"/>
        <pt x="901" y="1851" on="0"/>
      </contour>
      <contour>
        <pt x="138" y="1309" on="1"/>
        <pt x="138" y="1336" on="1"/>
        <pt x="138" y="1375" on="0"/>
        <pt x="190" y="1387" on="1"/>
        <pt x="278" y="1407" on="0"/>
        <pt x="449" y="1407" on="1"/>
        <pt x="517" y="1409" on="1"/>
        <pt x="620" y="1410" on="1"/>
        <pt x="757" y="1410" on="1"/>
        <pt x="903" y="1410" on="0"/>
        <pt x="1035" y="1373" on="0"/>
        <pt x="1035" y="1329" on="1"/>
        <pt x="1035" y="1255" on="0"/>
        <pt x="855" y="929" on="0"/>
        <pt x="557" y="517" on="0"/>
        <pt x="411" y="272" on="0"/>
        <pt x="411" y="212" on="1"/>
        <pt x="411" y="176" on="0"/>
        <pt x="585" y="176" on="1"/>
        <pt x="611" y="176" on="0"/>
        <pt x="779" y="184" on="1"/>
        <pt x="985" y="194" on="1"/>
        <pt x="1037" y="194" on="0"/>
        <pt x="1095" y="172" on="0"/>
        <pt x="1095" y="131" on="1"/>
        <pt x="1095" y="69" on="0"/>
        <pt x="1038" y="55" on="1"/>
        <pt x="918" y="25" on="0"/>
        <pt x="615" y="25" on="1"/>
        <pt x="547" y="23" on="1"/>
        <pt x="413" y="23" on="1"/>
        <pt x="235" y="23" on="0"/>
        <pt x="138" y="56" on="0"/>
        <pt x="138" y="110" on="1"/>
        <pt x="138" y="194" on="0"/>
        <pt x="388" y="618" on="0"/>
        <pt x="511" y="785" on="1"/>
        <pt x="782" y="1153" on="0"/>
        <pt x="782" y="1205" on="1"/>
        <pt x="782" y="1234" on="0"/>
        <pt x="687" y="1263" on="0"/>
        <pt x="532" y="1263" on="1"/>
        <pt x="258" y="1249" on="1"/>
        <pt x="199" y="1249" on="0"/>
        <pt x="176" y="1256" on="1"/>
        <pt x="138" y="1268" on="0"/>
      </contour>
    </TTGlyph>
    <TTGlyph name="a" xMin="88" yMin="-4" xMax="884" yMax="1022">
      <contour>
        <pt x="271" y="341" on="1"/>
        <pt x="271" y="295" on="1"/>
        <pt x="271" y="218" on="0"/>
        <pt x="374" y="125" on="0"/>
        <pt x="461" y="125" on="1"/>
        <pt x="475" y="125" on="1"/>
        <pt x="560" y="125" on="0"/>
        <pt x="689" y="241" on="0"/>
        <pt x="689" y="323" on="1"/>
        <pt x="691" y="337" on="1"/>
        <pt x="694" y="399" on="1"/>
        <pt x="694" y="433" on="1"/>
        <pt x="694" y="477" on="0"/>
        <pt x="642" y="511" on="0"/>
        <pt x="568" y="511" on="1"/>
        <pt x="553" y="511" on="1"/>
        <pt x="545" y="510" on="1"/>
        <pt x="523" y="510" on="1"/>
        <pt x="501" y="508" on="1"/>
        <pt x="480" y="505" on="0"/>
        <pt x="464" y="505" on="1"/>
        <pt x="378" y="505" on="0"/>
        <pt x="271" y="412" on="0"/>
      </contour>
      <contour>
        <pt x="864" y="290" on="1"/>
        <pt x="884" y="108" on="1"/>
        <pt x="884" y="22" on="0"/>
        <pt x="799" y="22" on="1"/>
        <pt x="772" y="22" on="0"/>
        <pt x="700" y="71" on="0"/>
        <pt x="683" y="71" on="0"/>
        <pt x="458" y="-4" on="0"/>
        <pt x="389" y="-4" on="1"/>
        <pt x="366" y="-4" on="1"/>
        <pt x="248" y="-4" on="0"/>
        <pt x="88" y="150" on="0"/>
        <pt x="88" y="441" on="0"/>
        <pt x="204" y="526" on="1"/>
        <pt x="290" y="589" on="0"/>
        <pt x="424" y="604" on="1"/>
        <pt x="643" y="629" on="0"/>
        <pt x="653" y="634" on="1"/>
        <pt x="681" y="648" on="0"/>
        <pt x="681" y="711" on="1"/>
        <pt x="681" y="881" on="0"/>
        <pt x="466" y="881" on="1"/>
        <pt x="414" y="881" on="0"/>
        <pt x="222" y="827" on="0"/>
        <pt x="215" y="827" on="1"/>
        <pt x="162" y="827" on="0"/>
        <pt x="162" y="939" on="0"/>
        <pt x="348" y="1022" on="0"/>
        <pt x="462" y="1022" on="1"/>
        <pt x="485" y="1022" on="1"/>
        <pt x="802" y="1022" on="0"/>
        <pt x="846" y="746" on="1"/>
        <pt x="860" y="656" on="0"/>
        <pt x="861" y="444" on="1"/>
        <pt x="862" y="377" on="1"/>
      </contour>
    </TTGlyph>
    <TTGlyph name="aacute" xMin="81" yMin="-1" xMax="875" yMax="1461">
      <contour>
        <pt x="554" y="558" on="1"/>
        <pt x="484" y="548" on="0"/>
        <pt x="465" y="548" on="1"/>
        <pt x="379" y="548" on="0"/>
        <pt x="259" y="428" on="0"/>
        <pt x="259" y="331" on="1"/>
        <pt x="259" y="324" on="1"/>
        <pt x="259" y="252" on="0"/>
        <pt x="350" y="179" on="0"/>
        <pt x="410" y="179" on="1"/>
        <pt x="447" y="179" on="1"/>
        <pt x="461" y="181" on="0"/>
        <pt x="469" y="181" on="1"/>
        <pt x="564" y="181" on="0"/>
        <pt x="688" y="319" on="0"/>
        <pt x="688" y="440" on="1"/>
        <pt x="688" y="482" on="1"/>
        <pt x="688" y="526" on="0"/>
        <pt x="655" y="559" on="0"/>
        <pt x="610" y="559" on="1"/>
        <pt x="575" y="559" on="1"/>
        <pt x="568" y="558" on="1"/>
      </contour>
      <contour>
        <pt x="442" y="1129" on="1"/>
        <pt x="427" y="1129" on="1"/>
        <pt x="375" y="1129" on="0"/>
        <pt x="375" y="1166" on="1"/>
        <pt x="376" y="1171" on="1"/>
        <pt x="376" y="1195" on="0"/>
        <pt x="405" y="1238" on="1"/>
        <pt x="499" y="1379" on="0"/>
        <pt x="528" y="1408" on="1"/>
        <pt x="581" y="1461" on="0"/>
        <pt x="650" y="1461" on="1"/>
        <pt x="655" y="1460" on="1"/>
        <pt x="732" y="1460" on="0"/>
        <pt x="732" y="1418" on="1"/>
        <pt x="732" y="1409" on="1"/>
        <pt x="732" y="1346" on="0"/>
        <pt x="484" y="1129" on="0"/>
      </contour>
      <contour>
        <pt x="668" y="704" on="1"/>
        <pt x="668" y="874" on="0"/>
        <pt x="459" y="874" on="1"/>
        <pt x="397" y="874" on="0"/>
        <pt x="231" y="827" on="0"/>
        <pt x="213" y="827" on="1"/>
        <pt x="162" y="827" on="0"/>
        <pt x="162" y="889" on="1"/>
        <pt x="162" y="932" on="0"/>
        <pt x="232" y="967" on="1"/>
        <pt x="328" y="1015" on="0"/>
        <pt x="460" y="1015" on="1"/>
        <pt x="483" y="1015" on="1"/>
        <pt x="587" y="1015" on="0"/>
        <pt x="743" y="943" on="0"/>
        <pt x="825" y="826" on="0"/>
        <pt x="852" y="655" on="0"/>
        <pt x="852" y="484" on="1"/>
        <pt x="853" y="439" on="1"/>
        <pt x="853" y="417" on="0"/>
        <pt x="853" y="395" on="1"/>
        <pt x="855" y="308" on="1"/>
        <pt x="855" y="261" on="0"/>
        <pt x="875" y="134" on="0"/>
        <pt x="875" y="108" on="1"/>
        <pt x="875" y="90" on="1"/>
        <pt x="875" y="23" on="0"/>
        <pt x="791" y="23" on="1"/>
        <pt x="762" y="23" on="0"/>
        <pt x="688" y="70" on="0"/>
        <pt x="667" y="70" on="0"/>
        <pt x="448" y="-1" on="0"/>
        <pt x="383" y="-1" on="1"/>
        <pt x="361" y="-1" on="1"/>
        <pt x="232" y="-1" on="0"/>
        <pt x="81" y="161" on="0"/>
        <pt x="81" y="284" on="1"/>
        <pt x="81" y="522" on="0"/>
        <pt x="345" y="589" on="1"/>
        <pt x="395" y="602" on="0"/>
        <pt x="629" y="623" on="0"/>
        <pt x="639" y="628" on="1"/>
        <pt x="668" y="642" on="0"/>
      </contour>
    </TTGlyph>
    <TTGlyph name="acircumflex" xMin="79" yMin="-6" xMax="879" yMax="1468">
      <contour>
        <pt x="405" y="160" on="1"/>
        <pt x="446" y="160" on="1"/>
        <pt x="549" y="160" on="0"/>
        <pt x="687" y="284" on="0"/>
        <pt x="687" y="368" on="1"/>
        <pt x="689" y="380" on="0"/>
        <pt x="689" y="387" on="1"/>
        <pt x="691" y="419" on="1"/>
        <pt x="690" y="426" on="1"/>
        <pt x="690" y="487" on="0"/>
        <pt x="656" y="526" on="0"/>
        <pt x="599" y="526" on="1"/>
        <pt x="585" y="528" on="1"/>
        <pt x="557" y="529" on="1"/>
        <pt x="528" y="529" on="1"/>
        <pt x="521" y="528" on="1"/>
        <pt x="507" y="528" on="1"/>
        <pt x="394" y="528" on="0"/>
        <pt x="256" y="428" on="0"/>
        <pt x="256" y="331" on="1"/>
        <pt x="256" y="316" on="1"/>
        <pt x="256" y="249" on="0"/>
        <pt x="336" y="160" on="0"/>
      </contour>
      <contour>
        <pt x="728" y="1144" on="1"/>
        <pt x="705" y="1144" on="1"/>
        <pt x="646" y="1144" on="0"/>
        <pt x="544" y="1279" on="1"/>
        <pt x="502" y="1333" on="0"/>
        <pt x="488" y="1333" on="0"/>
        <pt x="394" y="1230" on="1"/>
        <pt x="330" y="1160" on="0"/>
        <pt x="210" y="1160" on="0"/>
        <pt x="210" y="1187" on="1"/>
        <pt x="210" y="1222" on="0"/>
        <pt x="386" y="1414" on="1"/>
        <pt x="436" y="1468" on="0"/>
        <pt x="491" y="1468" on="1"/>
        <pt x="500" y="1468" on="1"/>
        <pt x="555" y="1468" on="0"/>
        <pt x="593" y="1427" on="1"/>
        <pt x="782" y="1221" on="0"/>
        <pt x="782" y="1178" on="1"/>
        <pt x="782" y="1171" on="1"/>
        <pt x="782" y="1144" on="0"/>
      </contour>
      <contour>
        <pt x="441" y="881" on="1"/>
        <pt x="398" y="881" on="0"/>
        <pt x="237" y="830" on="0"/>
        <pt x="210" y="830" on="1"/>
        <pt x="157" y="830" on="0"/>
        <pt x="157" y="893" on="1"/>
        <pt x="157" y="941" on="0"/>
        <pt x="339" y="1022" on="0"/>
        <pt x="435" y="1022" on="1"/>
        <pt x="504" y="1022" on="1"/>
        <pt x="595" y="1022" on="0"/>
        <pt x="756" y="944" on="0"/>
        <pt x="796" y="877" on="1"/>
        <pt x="856" y="777" on="0"/>
        <pt x="856" y="441" on="1"/>
        <pt x="856" y="261" on="0"/>
        <pt x="879" y="133" on="0"/>
        <pt x="879" y="105" on="1"/>
        <pt x="879" y="86" on="1"/>
        <pt x="879" y="18" on="0"/>
        <pt x="794" y="18" on="1"/>
        <pt x="765" y="18" on="0"/>
        <pt x="695" y="66" on="0"/>
        <pt x="668" y="66" on="0"/>
        <pt x="452" y="-6" on="0"/>
        <pt x="383" y="-6" on="1"/>
        <pt x="360" y="-6" on="1"/>
        <pt x="241" y="-6" on="0"/>
        <pt x="79" y="150" on="0"/>
        <pt x="79" y="444" on="0"/>
        <pt x="301" y="600" on="0"/>
        <pt x="526" y="615" on="1"/>
        <pt x="626" y="622" on="0"/>
        <pt x="675" y="647" on="0"/>
        <pt x="675" y="724" on="1"/>
        <pt x="675" y="881" on="0"/>
      </contour>
    </TTGlyph>
    <TTGlyph name="acute" xMin="163" yMin="1143" xMax="519" yMax="1468">
      <contour>
        <pt x="225" y="1143" on="1"/>
        <pt x="199" y="1143" on="1"/>
        <pt x="163" y="1143" on="0"/>
        <pt x="163" y="1169" on="1"/>
        <pt x="163" y="1173" on="1"/>
        <pt x="164" y="1178" on="1"/>
        <pt x="164" y="1199" on="0"/>
        <pt x="281" y="1374" on="0"/>
        <pt x="375" y="1468" on="0"/>
        <pt x="437" y="1468" on="1"/>
        <pt x="451" y="1468" on="1"/>
        <pt x="519" y="1468" on="0"/>
        <pt x="519" y="1432" on="1"/>
        <pt x="519" y="1423" on="1"/>
        <pt x="519" y="1392" on="0"/>
        <pt x="270" y="1143" on="0"/>
      </contour>
    </TTGlyph>
    <TTGlyph name="adieresis" xMin="76" yMin="-4" xMax="866" yMax="1409">
      <contour>
        <pt x="433" y="166" on="1"/>
        <pt x="537" y="166" on="0"/>
        <pt x="665" y="310" on="0"/>
        <pt x="665" y="432" on="1"/>
        <pt x="665" y="474" on="1"/>
        <pt x="665" y="541" on="0"/>
        <pt x="598" y="541" on="1"/>
        <pt x="584" y="543" on="1"/>
        <pt x="542" y="543" on="1"/>
        <pt x="535" y="542" on="1"/>
        <pt x="507" y="540" on="1"/>
        <pt x="500" y="539" on="1"/>
        <pt x="452" y="536" on="1"/>
        <pt x="354" y="536" on="0"/>
        <pt x="245" y="427" on="0"/>
        <pt x="245" y="333" on="1"/>
        <pt x="245" y="325" on="1"/>
        <pt x="245" y="251" on="0"/>
        <pt x="328" y="168" on="0"/>
        <pt x="385" y="168" on="1"/>
        <pt x="399" y="166" on="1"/>
      </contour>
      <contour>
        <pt x="220" y="1312" on="1"/>
        <pt x="220" y="1404" on="0"/>
        <pt x="280" y="1404" on="1"/>
        <pt x="283" y="1405" on="1"/>
        <pt x="287" y="1406" on="1"/>
        <pt x="320" y="1409" on="1"/>
        <pt x="323" y="1409" on="1"/>
        <pt x="327" y="1408" on="1"/>
        <pt x="356" y="1405" on="1"/>
        <pt x="359" y="1404" on="0"/>
        <pt x="362" y="1404" on="1"/>
        <pt x="412" y="1404" on="0"/>
        <pt x="412" y="1318" on="1"/>
        <pt x="412" y="1297" on="1"/>
        <pt x="412" y="1209" on="0"/>
        <pt x="355" y="1209" on="1"/>
        <pt x="352" y="1208" on="1"/>
        <pt x="348" y="1207" on="1"/>
        <pt x="326" y="1204" on="1"/>
        <pt x="295" y="1204" on="1"/>
        <pt x="264" y="1210" on="1"/>
        <pt x="225" y="1210" on="0"/>
        <pt x="225" y="1263" on="1"/>
        <pt x="224" y="1266" on="1"/>
        <pt x="223" y="1270" on="1"/>
        <pt x="220" y="1301" on="1"/>
      </contour>
      <contour>
        <pt x="558" y="1287" on="1"/>
        <pt x="558" y="1306" on="1"/>
        <pt x="563" y="1321" on="0"/>
        <pt x="563" y="1329" on="1"/>
        <pt x="563" y="1369" on="0"/>
        <pt x="620" y="1369" on="1"/>
        <pt x="628" y="1371" on="0"/>
        <pt x="632" y="1371" on="1"/>
        <pt x="651" y="1373" on="1"/>
        <pt x="678" y="1373" on="1"/>
        <pt x="769" y="1373" on="0"/>
        <pt x="769" y="1301" on="1"/>
        <pt x="771" y="1293" on="0"/>
        <pt x="771" y="1290" on="1"/>
        <pt x="773" y="1272" on="1"/>
        <pt x="773" y="1255" on="1"/>
        <pt x="772" y="1251" on="1"/>
        <pt x="772" y="1244" on="1"/>
        <pt x="766" y="1214" on="1"/>
        <pt x="766" y="1168" on="0"/>
        <pt x="697" y="1168" on="1"/>
        <pt x="671" y="1168" on="1"/>
        <pt x="643" y="1172" on="1"/>
        <pt x="606" y="1172" on="0"/>
        <pt x="558" y="1232" on="0"/>
      </contour>
      <contour>
        <pt x="430" y="877" on="1"/>
        <pt x="386" y="877" on="0"/>
        <pt x="231" y="828" on="0"/>
        <pt x="203" y="828" on="1"/>
        <pt x="151" y="828" on="0"/>
        <pt x="151" y="894" on="1"/>
        <pt x="151" y="937" on="0"/>
        <pt x="330" y="1017" on="0"/>
        <pt x="434" y="1017" on="1"/>
        <pt x="479" y="1017" on="1"/>
        <pt x="572" y="1017" on="0"/>
        <pt x="730" y="950" on="0"/>
        <pt x="819" y="828" on="0"/>
        <pt x="843" y="654" on="0"/>
        <pt x="843" y="466" on="1"/>
        <pt x="843" y="452" on="0"/>
        <pt x="843" y="438" on="1"/>
        <pt x="843" y="273" on="0"/>
        <pt x="854" y="200" on="1"/>
        <pt x="866" y="120" on="0"/>
        <pt x="866" y="88" on="1"/>
        <pt x="866" y="21" on="0"/>
        <pt x="782" y="21" on="1"/>
        <pt x="781" y="21" on="0"/>
        <pt x="780" y="21" on="1"/>
        <pt x="752" y="21" on="0"/>
        <pt x="677" y="69" on="0"/>
        <pt x="664" y="69" on="0"/>
        <pt x="445" y="-4" on="0"/>
        <pt x="371" y="-4" on="1"/>
        <pt x="349" y="-4" on="1"/>
        <pt x="232" y="-4" on="0"/>
        <pt x="76" y="152" on="0"/>
        <pt x="76" y="266" on="1"/>
        <pt x="76" y="289" on="1"/>
        <pt x="76" y="517" on="0"/>
        <pt x="347" y="589" on="1"/>
        <pt x="388" y="600" on="0"/>
        <pt x="624" y="622" on="0"/>
        <pt x="638" y="629" on="1"/>
        <pt x="664" y="643" on="0"/>
        <pt x="664" y="719" on="1"/>
        <pt x="664" y="877" on="0"/>
      </contour>
    </TTGlyph>
    <TTGlyph name="ae" xMin="95" yMin="-1" xMax="1483" yMax="1013">
      <contour>
        <pt x="287" y="305" on="1"/>
        <pt x="287" y="236" on="0"/>
        <pt x="375" y="158" on="0"/>
        <pt x="436" y="158" on="1"/>
        <pt x="485" y="158" on="1"/>
        <pt x="499" y="160" on="0"/>
        <pt x="506" y="160" on="1"/>
        <pt x="603" y="160" on="0"/>
        <pt x="716" y="285" on="0"/>
        <pt x="716" y="395" on="1"/>
        <pt x="716" y="428" on="1"/>
        <pt x="716" y="486" on="0"/>
        <pt x="682" y="520" on="0"/>
        <pt x="624" y="520" on="1"/>
        <pt x="569" y="520" on="1"/>
        <pt x="438" y="520" on="0"/>
        <pt x="289" y="425" on="0"/>
        <pt x="289" y="348" on="1"/>
        <pt x="287" y="334" on="1"/>
      </contour>
      <contour>
        <pt x="1294" y="636" on="1"/>
        <pt x="1294" y="643" on="1"/>
        <pt x="1293" y="650" on="1"/>
        <pt x="1293" y="656" on="1"/>
        <pt x="1293" y="744" on="0"/>
        <pt x="1189" y="861" on="0"/>
        <pt x="1106" y="861" on="1"/>
        <pt x="1085" y="861" on="1"/>
        <pt x="981" y="861" on="0"/>
        <pt x="845" y="725" on="0"/>
        <pt x="845" y="612" on="1"/>
        <pt x="843" y="598" on="1"/>
        <pt x="843" y="586" on="1"/>
        <pt x="843" y="542" on="0"/>
        <pt x="926" y="542" on="1"/>
        <pt x="952" y="542" on="1"/>
        <pt x="958" y="543" on="1"/>
        <pt x="1100" y="550" on="1"/>
        <pt x="1107" y="551" on="1"/>
        <pt x="1120" y="552" on="1"/>
        <pt x="1160" y="556" on="1"/>
        <pt x="1219" y="556" on="0"/>
        <pt x="1269" y="581" on="1"/>
        <pt x="1294" y="594" on="0"/>
      </contour>
      <contour>
        <pt x="1415" y="210" on="1"/>
        <pt x="1458" y="210" on="0"/>
        <pt x="1458" y="104" on="0"/>
        <pt x="1267" y="-1" on="0"/>
        <pt x="1010" y="-1" on="0"/>
        <pt x="915" y="40" on="1"/>
        <pt x="884" y="54" on="0"/>
        <pt x="778" y="118" on="0"/>
        <pt x="745" y="118" on="0"/>
        <pt x="650" y="59" on="0"/>
        <pt x="513" y="2" on="0"/>
        <pt x="272" y="2" on="0"/>
        <pt x="190" y="71" on="1"/>
        <pt x="141" y="112" on="0"/>
        <pt x="95" y="228" on="0"/>
        <pt x="95" y="273" on="1"/>
        <pt x="95" y="308" on="1"/>
        <pt x="95" y="310" on="0"/>
        <pt x="95" y="312" on="1"/>
        <pt x="95" y="376" on="0"/>
        <pt x="128" y="433" on="1"/>
        <pt x="201" y="561" on="0"/>
        <pt x="398" y="596" on="1"/>
        <pt x="441" y="604" on="0"/>
        <pt x="618" y="620" on="0"/>
        <pt x="626" y="622" on="1"/>
        <pt x="679" y="636" on="0"/>
        <pt x="679" y="783" on="0"/>
        <pt x="571" y="879" on="0"/>
        <pt x="449" y="879" on="1"/>
        <pt x="397" y="879" on="0"/>
        <pt x="231" y="817" on="0"/>
        <pt x="215" y="817" on="1"/>
        <pt x="165" y="817" on="0"/>
        <pt x="165" y="889" on="1"/>
        <pt x="165" y="934" on="0"/>
        <pt x="364" y="1010" on="0"/>
        <pt x="563" y="1010" on="0"/>
        <pt x="675" y="970" on="0"/>
        <pt x="774" y="908" on="0"/>
        <pt x="805" y="908" on="0"/>
        <pt x="895" y="966" on="0"/>
        <pt x="1008" y="1013" on="0"/>
        <pt x="1092" y="1013" on="1"/>
        <pt x="1127" y="1013" on="1"/>
        <pt x="1357" y="1013" on="0"/>
        <pt x="1451" y="805" on="1"/>
        <pt x="1483" y="734" on="0"/>
        <pt x="1483" y="652" on="1"/>
        <pt x="1483" y="530" on="0"/>
        <pt x="1349" y="469" on="0"/>
        <pt x="1090" y="453" on="1"/>
        <pt x="996" y="447" on="0"/>
        <pt x="962" y="441" on="1"/>
        <pt x="879" y="425" on="0"/>
        <pt x="879" y="366" on="1"/>
        <pt x="879" y="273" on="0"/>
        <pt x="1014" y="144" on="0"/>
        <pt x="1213" y="144" on="0"/>
        <pt x="1394" y="210" on="0"/>
      </contour>
    </TTGlyph>
    <TTGlyph name="agrave" xMin="79" yMin="-3" xMax="879" yMax="1489">
      <contour>
        <pt x="434" y="145" on="1"/>
        <pt x="455" y="145" on="1"/>
        <pt x="556" y="145" on="0"/>
        <pt x="683" y="272" on="0"/>
        <pt x="683" y="392" on="1"/>
        <pt x="683" y="439" on="1"/>
        <pt x="683" y="485" on="0"/>
        <pt x="643" y="520" on="0"/>
        <pt x="580" y="520" on="1"/>
        <pt x="523" y="520" on="1"/>
        <pt x="501" y="518" on="1"/>
        <pt x="480" y="518" on="1"/>
        <pt x="458" y="516" on="1"/>
        <pt x="431" y="514" on="1"/>
        <pt x="353" y="514" on="0"/>
        <pt x="258" y="407" on="0"/>
        <pt x="258" y="337" on="1"/>
        <pt x="258" y="314" on="1"/>
        <pt x="258" y="232" on="0"/>
        <pt x="354" y="145" on="0"/>
      </contour>
      <contour>
        <pt x="262" y="1434" on="1"/>
        <pt x="262" y="1446" on="1"/>
        <pt x="262" y="1489" on="0"/>
        <pt x="336" y="1489" on="1"/>
        <pt x="341" y="1489" on="1"/>
        <pt x="346" y="1488" on="1"/>
        <pt x="352" y="1488" on="1"/>
        <pt x="420" y="1488" on="0"/>
        <pt x="468" y="1433" on="1"/>
        <pt x="625" y="1254" on="0"/>
        <pt x="625" y="1187" on="1"/>
        <pt x="625" y="1177" on="1"/>
        <pt x="625" y="1149" on="0"/>
        <pt x="578" y="1149" on="1"/>
        <pt x="558" y="1149" on="1"/>
        <pt x="508" y="1149" on="0"/>
        <pt x="262" y="1431" on="0"/>
      </contour>
      <contour>
        <pt x="675" y="649" on="0"/>
        <pt x="675" y="803" on="0"/>
        <pt x="563" y="884" on="0"/>
        <pt x="400" y="884" on="0"/>
        <pt x="234" y="833" on="0"/>
        <pt x="210" y="833" on="1"/>
        <pt x="157" y="833" on="0"/>
        <pt x="157" y="946" on="0"/>
        <pt x="344" y="1025" on="0"/>
        <pt x="458" y="1025" on="1"/>
        <pt x="481" y="1025" on="1"/>
        <pt x="593" y="1025" on="0"/>
        <pt x="755" y="948" on="0"/>
        <pt x="796" y="880" on="1"/>
        <pt x="856" y="780" on="0"/>
        <pt x="856" y="443" on="1"/>
        <pt x="856" y="282" on="0"/>
        <pt x="879" y="127" on="0"/>
        <pt x="879" y="108" on="1"/>
        <pt x="879" y="89" on="1"/>
        <pt x="879" y="21" on="0"/>
        <pt x="794" y="21" on="1"/>
        <pt x="764" y="21" on="0"/>
        <pt x="694" y="69" on="0"/>
        <pt x="668" y="69" on="0"/>
        <pt x="452" y="-3" on="0"/>
        <pt x="383" y="-3" on="1"/>
        <pt x="360" y="-3" on="1"/>
        <pt x="242" y="-3" on="0"/>
        <pt x="79" y="149" on="0"/>
        <pt x="79" y="444" on="0"/>
        <pt x="194" y="527" on="1"/>
        <pt x="278" y="588" on="0"/>
        <pt x="415" y="607" on="1"/>
        <pt x="467" y="614" on="0"/>
        <pt x="628" y="625" on="0"/>
      </contour>
    </TTGlyph>
    <TTGlyph name="ampersand" xMin="146" yMin="-12" xMax="1161" yMax="1323">
      <contour>
        <pt x="447" y="1087" on="1"/>
        <pt x="447" y="1087" on="0"/>
        <pt x="449" y="1058" on="1"/>
        <pt x="449" y="1025" on="0"/>
        <pt x="521" y="893" on="1"/>
        <pt x="543" y="852" on="0"/>
        <pt x="567" y="852" on="1"/>
        <pt x="571" y="852" on="1"/>
        <pt x="619" y="852" on="0"/>
        <pt x="725" y="1022" on="0"/>
        <pt x="725" y="1102" on="1"/>
        <pt x="725" y="1127" on="1"/>
        <pt x="725" y="1182" on="0"/>
        <pt x="656" y="1271" on="0"/>
        <pt x="607" y="1271" on="1"/>
        <pt x="586" y="1271" on="1"/>
        <pt x="530" y="1271" on="0"/>
        <pt x="446" y="1163" on="0"/>
        <pt x="446" y="1111" on="1"/>
        <pt x="446" y="1093" on="1"/>
      </contour>
      <contour>
        <pt x="516" y="159" on="1"/>
        <pt x="555" y="159" on="1"/>
        <pt x="633" y="159" on="0"/>
        <pt x="755" y="244" on="0"/>
        <pt x="755" y="266" on="1"/>
        <pt x="755" y="271" on="1"/>
        <pt x="755" y="297" on="0"/>
        <pt x="576" y="536" on="1"/>
        <pt x="538" y="586" on="0"/>
        <pt x="496" y="659" on="0"/>
        <pt x="487" y="659" on="1"/>
        <pt x="483" y="659" on="1"/>
        <pt x="445" y="659" on="0"/>
        <pt x="360" y="542" on="1"/>
        <pt x="313" y="477" on="0"/>
        <pt x="313" y="424" on="1"/>
        <pt x="313" y="410" on="1"/>
        <pt x="313" y="294" on="0"/>
        <pt x="434" y="159" on="0"/>
      </contour>
      <contour>
        <pt x="539" y="-12" on="1"/>
        <pt x="361" y="-12" on="0"/>
        <pt x="270" y="72" on="1"/>
        <pt x="216" y="122" on="0"/>
        <pt x="146" y="268" on="0"/>
        <pt x="146" y="336" on="1"/>
        <pt x="146" y="361" on="1"/>
        <pt x="146" y="451" on="0"/>
        <pt x="342" y="764" on="0"/>
        <pt x="342" y="781" on="1"/>
        <pt x="342" y="783" on="0"/>
        <pt x="284" y="969" on="0"/>
        <pt x="284" y="1016" on="1"/>
        <pt x="284" y="1151" on="0"/>
        <pt x="461" y="1323" on="0"/>
        <pt x="577" y="1323" on="1"/>
        <pt x="602" y="1323" on="1"/>
        <pt x="713" y="1323" on="0"/>
        <pt x="797" y="1231" on="1"/>
        <pt x="853" y="1169" on="0"/>
        <pt x="853" y="967" on="0"/>
        <pt x="684" y="704" on="0"/>
        <pt x="684" y="681" on="1"/>
        <pt x="684" y="624" on="0"/>
        <pt x="825" y="454" on="0"/>
        <pt x="879" y="454" on="1"/>
        <pt x="914" y="454" on="0"/>
        <pt x="1045" y="621" on="0"/>
        <pt x="1123" y="621" on="0"/>
        <pt x="1123" y="568" on="1"/>
        <pt x="1123" y="536" on="0"/>
        <pt x="1050" y="362" on="0"/>
        <pt x="1050" y="242" on="0"/>
        <pt x="1161" y="108" on="0"/>
        <pt x="1161" y="88" on="1"/>
        <pt x="1161" y="45" on="0"/>
        <pt x="1097" y="45" on="1"/>
        <pt x="1062" y="45" on="0"/>
        <pt x="965" y="91" on="0"/>
        <pt x="926" y="91" on="0"/>
        <pt x="652" y="-12" on="0"/>
      </contour>
    </TTGlyph>
    <TTGlyph name="aring" xMin="68" yMin="-3" xMax="872" yMax="1537">
      <contour>
        <pt x="381" y="1355" on="1"/>
        <pt x="381" y="1347" on="1"/>
        <pt x="381" y="1300" on="0"/>
        <pt x="435" y="1246" on="0"/>
        <pt x="455" y="1246" on="1"/>
        <pt x="479" y="1242" on="1"/>
        <pt x="501" y="1242" on="1"/>
        <pt x="521" y="1246" on="1"/>
        <pt x="537" y="1246" on="0"/>
        <pt x="587" y="1296" on="0"/>
        <pt x="587" y="1323" on="1"/>
        <pt x="590" y="1344" on="1"/>
        <pt x="590" y="1363" on="1"/>
        <pt x="590" y="1402" on="0"/>
        <pt x="531" y="1461" on="0"/>
        <pt x="489" y="1461" on="1"/>
        <pt x="481" y="1461" on="1"/>
        <pt x="439" y="1461" on="0"/>
        <pt x="381" y="1403" on="0"/>
      </contour>
      <contour>
        <pt x="406" y="151" on="1"/>
        <pt x="434" y="151" on="1"/>
        <pt x="542" y="151" on="0"/>
        <pt x="622" y="231" on="1"/>
        <pt x="680" y="289" on="0"/>
        <pt x="680" y="411" on="1"/>
        <pt x="681" y="424" on="1"/>
        <pt x="681" y="491" on="0"/>
        <pt x="643" y="521" on="0"/>
        <pt x="579" y="521" on="1"/>
        <pt x="565" y="521" on="1"/>
        <pt x="558" y="520" on="1"/>
        <pt x="544" y="520" on="1"/>
        <pt x="522" y="519" on="1"/>
        <pt x="388" y="519" on="0"/>
        <pt x="249" y="421" on="0"/>
        <pt x="249" y="328" on="1"/>
        <pt x="249" y="298" on="1"/>
        <pt x="249" y="231" on="0"/>
        <pt x="339" y="151" on="0"/>
      </contour>
      <contour>
        <pt x="476" y="1537" on="1"/>
        <pt x="490" y="1537" on="1"/>
        <pt x="572" y="1537" on="0"/>
        <pt x="693" y="1428" on="0"/>
        <pt x="693" y="1347" on="1"/>
        <pt x="693" y="1312" on="1"/>
        <pt x="693" y="1248" on="0"/>
        <pt x="592" y="1135" on="0"/>
        <pt x="518" y="1135" on="1"/>
        <pt x="498" y="1135" on="1"/>
        <pt x="410" y="1135" on="0"/>
        <pt x="287" y="1258" on="0"/>
        <pt x="287" y="1337" on="1"/>
        <pt x="287" y="1377" on="1"/>
        <pt x="287" y="1439" on="0"/>
        <pt x="399" y="1537" on="0"/>
      </contour>
      <contour>
        <pt x="872" y="126" on="1"/>
        <pt x="872" y="87" on="1"/>
        <pt x="872" y="20" on="0"/>
        <pt x="786" y="20" on="1"/>
        <pt x="755" y="20" on="0"/>
        <pt x="686" y="70" on="0"/>
        <pt x="656" y="70" on="0"/>
        <pt x="443" y="-3" on="0"/>
        <pt x="374" y="-3" on="1"/>
        <pt x="351" y="-3" on="1"/>
        <pt x="218" y="-3" on="0"/>
        <pt x="68" y="164" on="0"/>
        <pt x="68" y="287" on="1"/>
        <pt x="68" y="311" on="1"/>
        <pt x="68" y="375" on="0"/>
        <pt x="100" y="433" on="1"/>
        <pt x="165" y="552" on="0"/>
        <pt x="339" y="596" on="1"/>
        <pt x="389" y="609" on="0"/>
        <pt x="627" y="630" on="0"/>
        <pt x="638" y="636" on="1"/>
        <pt x="666" y="652" on="0"/>
        <pt x="666" y="730" on="1"/>
        <pt x="666" y="882" on="0"/>
        <pt x="449" y="882" on="1"/>
        <pt x="390" y="882" on="0"/>
        <pt x="221" y="830" on="0"/>
        <pt x="214" y="830" on="1"/>
        <pt x="147" y="830" on="0"/>
        <pt x="147" y="895" on="1"/>
        <pt x="147" y="946" on="0"/>
        <pt x="332" y="1024" on="0"/>
        <pt x="426" y="1024" on="1"/>
        <pt x="472" y="1024" on="1"/>
        <pt x="699" y="1024" on="0"/>
        <pt x="789" y="879" on="1"/>
        <pt x="849" y="784" on="0"/>
        <pt x="849" y="464" on="1"/>
        <pt x="849" y="280" on="0"/>
        <pt x="872" y="134" on="0"/>
      </contour>
    </TTGlyph>
    <TTGlyph name="asciicircum" xMin="128" yMin="787" xMax="892" yMax="1382">
      <contour>
        <pt x="892" y="829" on="1"/>
        <pt x="892" y="792" on="0"/>
        <pt x="822" y="792" on="1"/>
        <pt x="777" y="792" on="0"/>
        <pt x="728" y="856" on="1"/>
        <pt x="723" y="863" on="0"/>
        <pt x="518" y="1200" on="0"/>
        <pt x="500" y="1200" on="0"/>
        <pt x="331" y="910" on="0"/>
        <pt x="237" y="787" on="0"/>
        <pt x="128" y="787" on="0"/>
        <pt x="128" y="822" on="1"/>
        <pt x="128" y="889" on="0"/>
        <pt x="410" y="1303" on="1"/>
        <pt x="464" y="1382" on="0"/>
        <pt x="519" y="1382" on="1"/>
        <pt x="532" y="1382" on="1"/>
        <pt x="570" y="1382" on="0"/>
        <pt x="672" y="1233" on="0"/>
        <pt x="860" y="900" on="1"/>
        <pt x="892" y="843" on="0"/>
      </contour>
    </TTGlyph>
    <TTGlyph name="asciitilde" xMin="118" yMin="614" xMax="944" yMax="876">
      <contour>
        <pt x="334" y="876" on="1"/>
        <pt x="365" y="876" on="1"/>
        <pt x="425" y="876" on="0"/>
        <pt x="650" y="752" on="0"/>
        <pt x="750" y="752" on="0"/>
        <pt x="878" y="854" on="0"/>
        <pt x="904" y="854" on="1"/>
        <pt x="944" y="854" on="0"/>
        <pt x="944" y="812" on="1"/>
        <pt x="944" y="802" on="1"/>
        <pt x="944" y="742" on="0"/>
        <pt x="806" y="614" on="0"/>
        <pt x="728" y="614" on="1"/>
        <pt x="686" y="614" on="1"/>
        <pt x="618" y="614" on="0"/>
        <pt x="405" y="737" on="0"/>
        <pt x="314" y="737" on="0"/>
        <pt x="178" y="635" on="0"/>
        <pt x="155" y="635" on="1"/>
        <pt x="118" y="635" on="0"/>
        <pt x="118" y="678" on="1"/>
        <pt x="118" y="689" on="1"/>
        <pt x="118" y="753" on="0"/>
        <pt x="260" y="876" on="0"/>
      </contour>
    </TTGlyph>
    <TTGlyph name="asterisk" xMin="136" yMin="751" xMax="749" yMax="1375">
      <contour>
        <pt x="378" y="1147" on="1"/>
        <pt x="384" y="1147" on="0"/>
        <pt x="381" y="1214" on="0"/>
        <pt x="381" y="1262" on="1"/>
        <pt x="381" y="1375" on="0"/>
        <pt x="454" y="1375" on="1"/>
        <pt x="521" y="1375" on="0"/>
        <pt x="535" y="1258" on="1"/>
        <pt x="543" y="1193" on="0"/>
        <pt x="587" y="1193" on="1"/>
        <pt x="593" y="1193" on="0"/>
        <pt x="655" y="1210" on="0"/>
        <pt x="683" y="1210" on="1"/>
        <pt x="749" y="1210" on="0"/>
        <pt x="749" y="1165" on="1"/>
        <pt x="749" y="1107" on="0"/>
        <pt x="706" y="1057" on="1"/>
        <pt x="703" y="1052" on="0"/>
        <pt x="703" y="1030" on="1"/>
        <pt x="689" y="937" on="1"/>
        <pt x="689" y="883" on="0"/>
        <pt x="657" y="842" on="1"/>
        <pt x="586" y="751" on="0"/>
        <pt x="502" y="751" on="0"/>
        <pt x="420" y="825" on="0"/>
        <pt x="380" y="825" on="0"/>
        <pt x="363" y="812" on="1"/>
        <pt x="308" y="770" on="0"/>
        <pt x="265" y="770" on="1"/>
        <pt x="204" y="770" on="0"/>
        <pt x="204" y="828" on="1"/>
        <pt x="204" y="876" on="0"/>
        <pt x="240" y="915" on="1"/>
        <pt x="275" y="950" on="1"/>
        <pt x="300" y="975" on="0"/>
        <pt x="300" y="979" on="1"/>
        <pt x="300" y="1006" on="0"/>
        <pt x="235" y="1034" on="1"/>
        <pt x="136" y="1077" on="0"/>
        <pt x="136" y="1132" on="1"/>
        <pt x="136" y="1157" on="0"/>
        <pt x="180" y="1201" on="0"/>
        <pt x="235" y="1201" on="0"/>
        <pt x="367" y="1147" on="0"/>
      </contour>
    </TTGlyph>
    <TTGlyph name="at" xMin="115" yMin="-189" xMax="1516" yMax="1300">
      <contour>
        <pt x="896" y="790" on="1"/>
        <pt x="866" y="790" on="1"/>
        <pt x="765" y="790" on="0"/>
        <pt x="629" y="608" on="0"/>
        <pt x="629" y="492" on="1"/>
        <pt x="629" y="468" on="1"/>
        <pt x="629" y="386" on="0"/>
        <pt x="701" y="274" on="0"/>
        <pt x="753" y="274" on="1"/>
        <pt x="773" y="274" on="1"/>
        <pt x="874" y="274" on="0"/>
        <pt x="1011" y="497" on="0"/>
        <pt x="1011" y="685" on="1"/>
        <pt x="1012" y="692" on="1"/>
        <pt x="1012" y="790" on="0"/>
      </contour>
      <contour>
        <pt x="841" y="-189" on="1"/>
        <pt x="786" y="-189" on="1"/>
        <pt x="647" y="-189" on="0"/>
        <pt x="391" y="-88" on="0"/>
        <pt x="299" y="6" on="1"/>
        <pt x="115" y="194" on="0"/>
        <pt x="115" y="846" on="0"/>
        <pt x="313" y="1066" on="1"/>
        <pt x="406" y="1169" on="0"/>
        <pt x="684" y="1300" on="0"/>
        <pt x="844" y="1300" on="1"/>
        <pt x="1168" y="1300" on="0"/>
        <pt x="1516" y="956" on="0"/>
        <pt x="1516" y="678" on="1"/>
        <pt x="1516" y="465" on="0"/>
        <pt x="1401" y="335" on="1"/>
        <pt x="1355" y="283" on="0"/>
        <pt x="1223" y="217" on="0"/>
        <pt x="1123" y="217" on="0"/>
        <pt x="999" y="259" on="0"/>
        <pt x="965" y="259" on="0"/>
        <pt x="852" y="233" on="0"/>
        <pt x="817" y="233" on="1"/>
        <pt x="690" y="233" on="0"/>
        <pt x="575" y="359" on="0"/>
        <pt x="575" y="609" on="0"/>
        <pt x="645" y="788" on="0"/>
        <pt x="682" y="822" on="1"/>
        <pt x="739" y="875" on="0"/>
        <pt x="949" y="875" on="1"/>
        <pt x="1034" y="875" on="0"/>
        <pt x="1090" y="798" on="0"/>
        <pt x="1147" y="507" on="0"/>
        <pt x="1155" y="489" on="1"/>
        <pt x="1181" y="432" on="0"/>
        <pt x="1211" y="432" on="1"/>
        <pt x="1328" y="432" on="0"/>
        <pt x="1328" y="661" on="1"/>
        <pt x="1328" y="718" on="0"/>
        <pt x="1300" y="806" on="1"/>
        <pt x="1242" y="989" on="0"/>
        <pt x="1061" y="1061" on="1"/>
        <pt x="972" y="1096" on="0"/>
        <pt x="873" y="1096" on="1"/>
        <pt x="643" y="1096" on="0"/>
        <pt x="484" y="933" on="1"/>
        <pt x="417" y="864" on="0"/>
        <pt x="320" y="640" on="0"/>
        <pt x="320" y="510" on="1"/>
        <pt x="320" y="232" on="0"/>
        <pt x="503" y="79" on="1"/>
        <pt x="593" y="3" on="0"/>
        <pt x="818" y="-58" on="0"/>
        <pt x="1042" y="-58" on="1"/>
        <pt x="1137" y="-58" on="0"/>
        <pt x="1137" y="-125" on="0"/>
        <pt x="955" y="-189" on="0"/>
      </contour>
    </TTGlyph>
    <TTGlyph name="atilde" xMin="85" yMin="-3" xMax="877" yMax="1386">
      <contour>
        <pt x="432" y="171" on="1"/>
        <pt x="474" y="171" on="1"/>
        <pt x="555" y="171" on="0"/>
        <pt x="691" y="293" on="0"/>
        <pt x="691" y="375" on="1"/>
        <pt x="693" y="389" on="0"/>
        <pt x="693" y="395" on="1"/>
        <pt x="695" y="428" on="1"/>
        <pt x="695" y="453" on="1"/>
        <pt x="695" y="512" on="0"/>
        <pt x="655" y="538" on="0"/>
        <pt x="601" y="538" on="1"/>
        <pt x="529" y="538" on="1"/>
        <pt x="522" y="537" on="1"/>
        <pt x="514" y="537" on="1"/>
        <pt x="381" y="537" on="0"/>
        <pt x="330" y="501" on="1"/>
        <pt x="255" y="448" on="0"/>
        <pt x="255" y="349" on="1"/>
        <pt x="255" y="319" on="1"/>
        <pt x="255" y="257" on="0"/>
        <pt x="352" y="171" on="0"/>
      </contour>
      <contour>
        <pt x="189" y="1227" on="1"/>
        <pt x="189" y="1241" on="1"/>
        <pt x="189" y="1293" on="0"/>
        <pt x="301" y="1386" on="0"/>
        <pt x="366" y="1386" on="1"/>
        <pt x="374" y="1385" on="1"/>
        <pt x="428" y="1385" on="0"/>
        <pt x="604" y="1291" on="0"/>
        <pt x="659" y="1291" on="0"/>
        <pt x="754" y="1360" on="0"/>
        <pt x="771" y="1360" on="1"/>
        <pt x="809" y="1360" on="0"/>
        <pt x="809" y="1318" on="1"/>
        <pt x="809" y="1310" on="1"/>
        <pt x="809" y="1259" on="0"/>
        <pt x="706" y="1156" on="0"/>
        <pt x="644" y="1156" on="1"/>
        <pt x="620" y="1156" on="1"/>
        <pt x="576" y="1156" on="0"/>
        <pt x="404" y="1259" on="0"/>
        <pt x="340" y="1259" on="0"/>
        <pt x="253" y="1188" on="0"/>
        <pt x="189" y="1188" on="0"/>
      </contour>
      <contour>
        <pt x="439" y="877" on="1"/>
        <pt x="395" y="877" on="0"/>
        <pt x="240" y="828" on="0"/>
        <pt x="228" y="828" on="1"/>
        <pt x="161" y="828" on="0"/>
        <pt x="161" y="895" on="1"/>
        <pt x="161" y="938" on="0"/>
        <pt x="334" y="1017" on="0"/>
        <pt x="443" y="1017" on="1"/>
        <pt x="489" y="1017" on="1"/>
        <pt x="582" y="1017" on="0"/>
        <pt x="662" y="983" on="1"/>
        <pt x="818" y="917" on="0"/>
        <pt x="843" y="727" on="1"/>
        <pt x="853" y="654" on="0"/>
        <pt x="853" y="278" on="0"/>
        <pt x="877" y="114" on="0"/>
        <pt x="877" y="86" on="1"/>
        <pt x="877" y="22" on="0"/>
        <pt x="790" y="22" on="1"/>
        <pt x="763" y="22" on="0"/>
        <pt x="689" y="70" on="0"/>
        <pt x="673" y="70" on="0"/>
        <pt x="454" y="-3" on="0"/>
        <pt x="380" y="-3" on="1"/>
        <pt x="357" y="-3" on="1"/>
        <pt x="245" y="-3" on="0"/>
        <pt x="85" y="151" on="0"/>
        <pt x="85" y="268" on="1"/>
        <pt x="85" y="291" on="1"/>
        <pt x="85" y="441" on="0"/>
        <pt x="204" y="525" on="1"/>
        <pt x="288" y="584" on="0"/>
        <pt x="423" y="602" on="1"/>
        <pt x="460" y="607" on="0"/>
        <pt x="629" y="619" on="0"/>
        <pt x="674" y="644" on="0"/>
        <pt x="674" y="721" on="1"/>
        <pt x="674" y="877" on="0"/>
      </contour>
    </TTGlyph>
    <TTGlyph name="b" xMin="155" yMin="11" xMax="979" yMax="1435">
      <contour>
        <pt x="497" y="147" on="1"/>
        <pt x="536" y="147" on="1"/>
        <pt x="646" y="147" on="0"/>
        <pt x="787" y="353" on="0"/>
        <pt x="787" y="537" on="1"/>
        <pt x="787" y="571" on="1"/>
        <pt x="787" y="731" on="0"/>
        <pt x="674" y="895" on="0"/>
        <pt x="582" y="895" on="1"/>
        <pt x="572" y="894" on="1"/>
        <pt x="515" y="894" on="0"/>
        <pt x="399" y="832" on="0"/>
        <pt x="371" y="780" on="1"/>
        <pt x="325" y="693" on="0"/>
        <pt x="325" y="475" on="1"/>
        <pt x="325" y="464" on="1"/>
        <pt x="326" y="453" on="1"/>
        <pt x="326" y="280" on="0"/>
        <pt x="401" y="147" on="0"/>
      </contour>
      <contour>
        <pt x="168" y="1178" on="1"/>
        <pt x="168" y="1347" on="0"/>
        <pt x="188" y="1435" on="0"/>
        <pt x="233" y="1435" on="1"/>
        <pt x="250" y="1435" on="1"/>
        <pt x="314" y="1435" on="0"/>
        <pt x="333" y="1371" on="1"/>
        <pt x="347" y="1323" on="0"/>
        <pt x="347" y="1008" on="0"/>
        <pt x="363" y="943" on="0"/>
        <pt x="395" y="943" on="1"/>
        <pt x="396" y="943" on="0"/>
        <pt x="544" y="980" on="0"/>
        <pt x="692" y="980" on="0"/>
        <pt x="756" y="947" on="1"/>
        <pt x="890" y="878" on="0"/>
        <pt x="948" y="696" on="1"/>
        <pt x="979" y="598" on="0"/>
        <pt x="979" y="499" on="1"/>
        <pt x="979" y="454" on="1"/>
        <pt x="978" y="362" on="0"/>
        <pt x="944" y="272" on="1"/>
        <pt x="880" y="107" on="0"/>
        <pt x="732" y="44" on="1"/>
        <pt x="654" y="11" on="0"/>
        <pt x="574" y="11" on="1"/>
        <pt x="571" y="11" on="0"/>
        <pt x="567" y="11" on="1"/>
        <pt x="490" y="11" on="0"/>
        <pt x="334" y="53" on="0"/>
        <pt x="307" y="53" on="1"/>
        <pt x="306" y="53" on="0"/>
        <pt x="304" y="53" on="1"/>
        <pt x="277" y="52" on="0"/>
        <pt x="264" y="52" on="1"/>
        <pt x="199" y="52" on="0"/>
        <pt x="173" y="114" on="1"/>
        <pt x="155" y="157" on="0"/>
        <pt x="155" y="298" on="1"/>
        <pt x="155" y="365" on="1"/>
        <pt x="156" y="387" on="1"/>
        <pt x="157" y="455" on="1"/>
        <pt x="157" y="500" on="1"/>
        <pt x="160" y="635" on="1"/>
        <pt x="160" y="691" on="0"/>
        <pt x="160" y="747" on="1"/>
        <pt x="162" y="838" on="1"/>
        <pt x="165" y="951" on="1"/>
        <pt x="167" y="1065" on="1"/>
        <pt x="168" y="1111" on="1"/>
      </contour>
    </TTGlyph>
    <TTGlyph name="backslash" xMin="63" yMin="-116" xMax="773" yMax="1481">
      <contour>
        <pt x="773" y="-80" on="1"/>
        <pt x="773" y="-116" on="0"/>
        <pt x="712" y="-116" on="1"/>
        <pt x="695" y="-116" on="1"/>
        <pt x="636" y="-116" on="0"/>
        <pt x="578" y="35" on="1"/>
        <pt x="63" y="1382" on="0"/>
        <pt x="63" y="1444" on="1"/>
        <pt x="63" y="1481" on="0"/>
        <pt x="141" y="1481" on="1"/>
        <pt x="180" y="1481" on="0"/>
        <pt x="225" y="1412" on="0"/>
        <pt x="270" y="1297" on="1"/>
        <pt x="773" y="20" on="0"/>
      </contour>
    </TTGlyph>
    <TTGlyph name="bar" xMin="196" yMin="-268" xMax="362" yMax="1544">
      <contour>
        <pt x="196" y="-152" on="1"/>
        <pt x="196" y="-113" on="1"/>
        <pt x="197" y="-94" on="1"/>
        <pt x="197" y="-36" on="1"/>
        <pt x="199" y="61" on="1"/>
        <pt x="199" y="100" on="1"/>
        <pt x="200" y="159" on="1"/>
        <pt x="200" y="198" on="1"/>
        <pt x="201" y="217" on="1"/>
        <pt x="201" y="256" on="1"/>
        <pt x="202" y="295" on="1"/>
        <pt x="202" y="334" on="1"/>
        <pt x="203" y="373" on="1"/>
        <pt x="203" y="432" on="1"/>
        <pt x="204" y="471" on="1"/>
        <pt x="204" y="530" on="1"/>
        <pt x="206" y="629" on="1"/>
        <pt x="206" y="1318" on="0"/>
        <pt x="218" y="1466" on="1"/>
        <pt x="224" y="1544" on="0"/>
        <pt x="284" y="1544" on="1"/>
        <pt x="302" y="1544" on="1"/>
        <pt x="362" y="1544" on="0"/>
        <pt x="362" y="1445" on="1"/>
        <pt x="362" y="1293" on="1"/>
        <pt x="361" y="1274" on="1"/>
        <pt x="360" y="1216" on="1"/>
        <pt x="360" y="1177" on="1"/>
        <pt x="359" y="1138" on="1"/>
        <pt x="359" y="1099" on="1"/>
        <pt x="358" y="1060" on="1"/>
        <pt x="358" y="1021" on="1"/>
        <pt x="357" y="1002" on="1"/>
        <pt x="357" y="963" on="1"/>
        <pt x="356" y="923" on="1"/>
        <pt x="356" y="884" on="1"/>
        <pt x="355" y="845" on="1"/>
        <pt x="355" y="806" on="1"/>
        <pt x="354" y="766" on="1"/>
        <pt x="354" y="727" on="1"/>
        <pt x="353" y="687" on="1"/>
        <pt x="353" y="628" on="1"/>
        <pt x="353" y="-58" on="0"/>
        <pt x="342" y="-190" on="1"/>
        <pt x="335" y="-268" on="0"/>
        <pt x="275" y="-268" on="1"/>
        <pt x="256" y="-268" on="1"/>
        <pt x="214" y="-268" on="0"/>
        <pt x="196" y="-220" on="0"/>
      </contour>
    </TTGlyph>
    <TTGlyph name="braceleft" xMin="116" yMin="-257" xMax="652" yMax="1551">
      <contour>
        <pt x="577" y="1551" on="1"/>
        <pt x="600" y="1551" on="1"/>
        <pt x="652" y="1551" on="0"/>
        <pt x="652" y="1469" on="0"/>
        <pt x="495" y="1373" on="0"/>
        <pt x="473" y="1335" on="1"/>
        <pt x="434" y="1268" on="0"/>
        <pt x="434" y="1115" on="1"/>
        <pt x="435" y="1091" on="1"/>
        <pt x="437" y="1067" on="1"/>
        <pt x="438" y="1043" on="1"/>
        <pt x="441" y="971" on="0"/>
        <pt x="441" y="855" on="0"/>
        <pt x="400" y="743" on="0"/>
        <pt x="365" y="698" on="0"/>
        <pt x="327" y="656" on="0"/>
        <pt x="327" y="648" on="0"/>
        <pt x="390" y="568" on="0"/>
        <pt x="426" y="477" on="0"/>
        <pt x="426" y="376" on="1"/>
        <pt x="413" y="132" on="1"/>
        <pt x="413" y="26" on="0"/>
        <pt x="475" y="-86" on="0"/>
        <pt x="630" y="-168" on="0"/>
        <pt x="630" y="-206" on="1"/>
        <pt x="630" y="-257" on="0"/>
        <pt x="558" y="-257" on="1"/>
        <pt x="250" y="-257" on="0"/>
        <pt x="249" y="111" on="1"/>
        <pt x="264" y="381" on="1"/>
        <pt x="264" y="466" on="0"/>
        <pt x="219" y="540" on="0"/>
        <pt x="116" y="607" on="0"/>
        <pt x="116" y="637" on="1"/>
        <pt x="116" y="658" on="1"/>
        <pt x="116" y="688" on="0"/>
        <pt x="236" y="770" on="0"/>
        <pt x="274" y="847" on="0"/>
        <pt x="274" y="964" on="1"/>
        <pt x="267" y="1160" on="1"/>
        <pt x="267" y="1442" on="0"/>
        <pt x="442" y="1519" on="1"/>
        <pt x="513" y="1551" on="0"/>
      </contour>
    </TTGlyph>
</ttFont>
